solid ascii
  facet normal -0.000000e+000 0.000000e+000 1.000000e+000
    outer loop
      vertex   -1.400000e+002 1.160000e+002 1.000000e+000
      vertex   -1.200000e+002 1.060000e+002 1.000000e+000
      vertex   -1.100000e+002 1.160000e+002 1.000000e+000
    endloop
  endfacet
  facet normal -0.000000e+000 0.000000e+000 1.000000e+000
    outer loop
      vertex   -1.400000e+002 1.160000e+002 1.000000e+000
      vertex   -1.300000e+002 1.060000e+002 1.000000e+000
      vertex   -1.200000e+002 1.060000e+002 1.000000e+000
    endloop
  endfacet
  facet normal -0.000000e+000 0.000000e+000 1.000000e+000
    outer loop
      vertex   -1.400000e+002 1.160000e+002 1.000000e+000
      vertex   -1.400000e+002 8.600000e+001 1.000000e+000
      vertex   -1.300000e+002 1.060000e+002 1.000000e+000
    endloop
  endfacet
  facet normal -0.000000e+000 0.000000e+000 1.000000e+000
    outer loop
      vertex   -1.300000e+002 1.060000e+002 1.000000e+000
      vertex   -1.400000e+002 8.600000e+001 1.000000e+000
      vertex   -1.300000e+002 9.600000e+001 1.000000e+000
    endloop
  endfacet
  facet normal -0.000000e+000 0.000000e+000 1.000000e+000
    outer loop
      vertex   -1.300000e+002 9.600000e+001 1.000000e+000
      vertex   -1.400000e+002 8.600000e+001 1.000000e+000
      vertex   -1.256000e+002 9.600000e+001 1.000000e+000
    endloop
  endfacet
  facet normal -0.000000e+000 0.000000e+000 1.000000e+000
    outer loop
      vertex   -1.256000e+002 9.600000e+001 1.000000e+000
      vertex   -1.400000e+002 8.600000e+001 1.000000e+000
      vertex   -1.100000e+002 8.600000e+001 1.000000e+000
    endloop
  endfacet
  facet normal -0.000000e+000 -0.000000e+000 1.000000e+000
    outer loop
      vertex   -1.244000e+002 9.600000e+001 1.000000e+000
      vertex   -1.100000e+002 8.600000e+001 1.000000e+000
      vertex   -1.200000e+002 9.600000e+001 1.000000e+000
    endloop
  endfacet
  facet normal 0.000000e+000 0.000000e+000 1.000000e+000
    outer loop
      vertex   -1.244000e+002 9.600000e+001 1.000000e+000
      vertex   -1.256000e+002 9.600000e+001 1.000000e+000
      vertex   -1.100000e+002 8.600000e+001 1.000000e+000
    endloop
  endfacet
  facet normal 0.000000e+000 0.000000e+000 1.000000e+000
    outer loop
      vertex   -1.244000e+002 9.600000e+001 1.000000e+000
      vertex   -1.256000e+002 9.680000e+001 1.000000e+000
      vertex   -1.256000e+002 9.600000e+001 1.000000e+000
    endloop
  endfacet
  facet normal 0.000000e+000 -0.000000e+000 1.000000e+000
    outer loop
      vertex   -1.244000e+002 9.600000e+001 1.000000e+000
      vertex   -1.244000e+002 9.680000e+001 1.000000e+000
      vertex   -1.256000e+002 9.680000e+001 1.000000e+000
    endloop
  endfacet
  facet normal 0.000000e+000 0.000000e+000 1.000000e+000
    outer loop
      vertex   -1.100000e+002 1.160000e+002 1.000000e+000
      vertex   -1.200000e+002 1.016000e+002 1.000000e+000
      vertex   -1.100000e+002 8.600000e+001 1.000000e+000
    endloop
  endfacet
  facet normal 0.000000e+000 0.000000e+000 1.000000e+000
    outer loop
      vertex   -1.100000e+002 1.160000e+002 1.000000e+000
      vertex   -1.200000e+002 1.060000e+002 1.000000e+000
      vertex   -1.200000e+002 1.016000e+002 1.000000e+000
    endloop
  endfacet
  facet normal 0.000000e+000 -0.000000e+000 1.000000e+000
    outer loop
      vertex   -1.208000e+002 1.004000e+002 1.000000e+000
      vertex   -1.200000e+002 1.004000e+002 1.000000e+000
      vertex   -1.208000e+002 1.016000e+002 1.000000e+000
    endloop
  endfacet
  facet normal -0.000000e+000 0.000000e+000 1.000000e+000
    outer loop
      vertex   -1.208000e+002 1.016000e+002 1.000000e+000
      vertex   -1.200000e+002 1.004000e+002 1.000000e+000
      vertex   -1.200000e+002 1.016000e+002 1.000000e+000
    endloop
  endfacet
  facet normal 0.000000e+000 0.000000e+000 1.000000e+000
    outer loop
      vertex   -1.200000e+002 1.016000e+002 1.000000e+000
      vertex   -1.200000e+002 1.004000e+002 1.000000e+000
      vertex   -1.100000e+002 8.600000e+001 1.000000e+000
    endloop
  endfacet
  facet normal 0.000000e+000 0.000000e+000 1.000000e+000
    outer loop
      vertex   -1.100000e+002 8.600000e+001 1.000000e+000
      vertex   -1.200000e+002 1.004000e+002 1.000000e+000
      vertex   -1.200000e+002 9.600000e+001 1.000000e+000
    endloop
  endfacet
  facet normal 1.000000e+000 0.000000e+000 -0.000000e+000
    outer loop
      vertex   -1.100000e+002 8.600000e+001 -3.608225e-015
      vertex   -1.100000e+002 1.160000e+002 -3.608225e-015
      vertex   -1.100000e+002 8.600000e+001 1.000000e+000
    endloop
  endfacet
  facet normal 1.000000e+000 -0.000000e+000 0.000000e+000
    outer loop
      vertex   -1.100000e+002 8.600000e+001 1.000000e+000
      vertex   -1.100000e+002 1.160000e+002 -3.608225e-015
      vertex   -1.100000e+002 1.160000e+002 1.000000e+000
    endloop
  endfacet
  facet normal 0.000000e+000 -1.000000e+000 0.000000e+000
    outer loop
      vertex   -1.400000e+002 8.600000e+001 -3.608225e-015
      vertex   -1.100000e+002 8.600000e+001 -3.608225e-015
      vertex   -1.400000e+002 8.600000e+001 1.000000e+000
    endloop
  endfacet
  facet normal 0.000000e+000 -1.000000e+000 0.000000e+000
    outer loop
      vertex   -1.400000e+002 8.600000e+001 1.000000e+000
      vertex   -1.100000e+002 8.600000e+001 -3.608225e-015
      vertex   -1.100000e+002 8.600000e+001 1.000000e+000
    endloop
  endfacet
  facet normal -1.000000e+000 0.000000e+000 0.000000e+000
    outer loop
      vertex   -1.400000e+002 1.160000e+002 -3.608225e-015
      vertex   -1.400000e+002 8.600000e+001 -3.608225e-015
      vertex   -1.400000e+002 1.160000e+002 1.000000e+000
    endloop
  endfacet
  facet normal -1.000000e+000 -0.000000e+000 0.000000e+000
    outer loop
      vertex   -1.400000e+002 1.160000e+002 1.000000e+000
      vertex   -1.400000e+002 8.600000e+001 -3.608225e-015
      vertex   -1.400000e+002 8.600000e+001 1.000000e+000
    endloop
  endfacet
  facet normal 0.000000e+000 1.000000e+000 -0.000000e+000
    outer loop
      vertex   -1.100000e+002 1.160000e+002 -3.608225e-015
      vertex   -1.400000e+002 1.160000e+002 -3.608225e-015
      vertex   -1.100000e+002 1.160000e+002 1.000000e+000
    endloop
  endfacet
  facet normal 0.000000e+000 1.000000e+000 -0.000000e+000
    outer loop
      vertex   -1.100000e+002 1.160000e+002 1.000000e+000
      vertex   -1.400000e+002 1.160000e+002 -3.608225e-015
      vertex   -1.400000e+002 1.160000e+002 1.000000e+000
    endloop
  endfacet
  facet normal 0.000000e+000 -0.000000e+000 -1.000000e+000
    outer loop
      vertex   -1.400000e+002 1.160000e+002 -3.608225e-015
      vertex   -1.100000e+002 1.160000e+002 -3.608225e-015
      vertex   -1.400000e+002 8.600000e+001 -3.608225e-015
    endloop
  endfacet
  facet normal 0.000000e+000 0.000000e+000 -1.000000e+000
    outer loop
      vertex   -1.400000e+002 8.600000e+001 -3.608225e-015
      vertex   -1.100000e+002 1.160000e+002 -3.608225e-015
      vertex   -1.100000e+002 8.600000e+001 -3.608225e-015
    endloop
  endfacet
  facet normal -1.000000e+000 0.000000e+000 0.000000e+000
    outer loop
      vertex   -1.266000e+002 9.700000e+001 2.000000e+000
      vertex   -1.266000e+002 9.700000e+001 5.166667e+001
      vertex   -1.266000e+002 9.780000e+001 2.000000e+000
    endloop
  endfacet
  facet normal -1.000000e+000 0.000000e+000 0.000000e+000
    outer loop
      vertex   -1.266000e+002 9.780000e+001 2.000000e+000
      vertex   -1.266000e+002 9.700000e+001 5.166667e+001
      vertex   -1.266000e+002 9.780000e+001 5.166667e+001
    endloop
  endfacet
  facet normal -1.000000e+000 0.000000e+000 0.000000e+000
    outer loop
      vertex   -1.266000e+002 9.780000e+001 5.166667e+001
      vertex   -1.266000e+002 9.700000e+001 5.166667e+001
      vertex   -1.266000e+002 9.700000e+001 1.013333e+002
    endloop
  endfacet
  facet normal -1.000000e+000 0.000000e+000 0.000000e+000
    outer loop
      vertex   -1.266000e+002 9.780000e+001 1.013333e+002
      vertex   -1.266000e+002 9.700000e+001 1.013333e+002
      vertex   -1.266000e+002 9.700000e+001 1.510000e+002
    endloop
  endfacet
  facet normal -1.000000e+000 -0.000000e+000 -0.000000e+000
    outer loop
      vertex   -1.266000e+002 9.780000e+001 1.510000e+002
      vertex   -1.266000e+002 9.780000e+001 1.013333e+002
      vertex   -1.266000e+002 9.700000e+001 1.510000e+002
    endloop
  endfacet
  facet normal -1.000000e+000 0.000000e+000 0.000000e+000
    outer loop
      vertex   -1.266000e+002 9.780000e+001 5.166667e+001
      vertex   -1.266000e+002 9.700000e+001 1.013333e+002
      vertex   -1.266000e+002 9.780000e+001 1.013333e+002
    endloop
  endfacet
  facet normal 0.000000e+000 1.000000e+000 -0.000000e+000
    outer loop
      vertex   -1.234000e+002 9.780000e+001 2.000000e+000
      vertex   -1.266000e+002 9.780000e+001 2.000000e+000
      vertex   -1.234000e+002 9.780000e+001 5.166667e+001
    endloop
  endfacet
  facet normal 0.000000e+000 1.000000e+000 -0.000000e+000
    outer loop
      vertex   -1.234000e+002 9.780000e+001 5.166667e+001
      vertex   -1.266000e+002 9.780000e+001 2.000000e+000
      vertex   -1.266000e+002 9.780000e+001 5.166667e+001
    endloop
  endfacet
  facet normal 0.000000e+000 1.000000e+000 -0.000000e+000
    outer loop
      vertex   -1.234000e+002 9.780000e+001 1.013333e+002
      vertex   -1.266000e+002 9.780000e+001 5.166667e+001
      vertex   -1.266000e+002 9.780000e+001 1.013333e+002
    endloop
  endfacet
  facet normal 0.000000e+000 1.000000e+000 -0.000000e+000
    outer loop
      vertex   -1.234000e+002 9.780000e+001 1.510000e+002
      vertex   -1.266000e+002 9.780000e+001 1.013333e+002
      vertex   -1.266000e+002 9.780000e+001 1.510000e+002
    endloop
  endfacet
  facet normal 0.000000e+000 1.000000e+000 0.000000e+000
    outer loop
      vertex   -1.234000e+002 9.780000e+001 1.510000e+002
      vertex   -1.234000e+002 9.780000e+001 1.013333e+002
      vertex   -1.266000e+002 9.780000e+001 1.013333e+002
    endloop
  endfacet
  facet normal 0.000000e+000 1.000000e+000 -0.000000e+000
    outer loop
      vertex   -1.234000e+002 9.780000e+001 5.166667e+001
      vertex   -1.266000e+002 9.780000e+001 5.166667e+001
      vertex   -1.234000e+002 9.780000e+001 1.013333e+002
    endloop
  endfacet
  facet normal 1.000000e+000 -0.000000e+000 0.000000e+000
    outer loop
      vertex   -1.234000e+002 9.700000e+001 1.510000e+002
      vertex   -1.234000e+002 9.700000e+001 1.013333e+002
      vertex   -1.234000e+002 9.780000e+001 1.510000e+002
    endloop
  endfacet
  facet normal 1.000000e+000 -0.000000e+000 0.000000e+000
    outer loop
      vertex   -1.234000e+002 9.780000e+001 1.510000e+002
      vertex   -1.234000e+002 9.700000e+001 1.013333e+002
      vertex   -1.234000e+002 9.780000e+001 1.013333e+002
    endloop
  endfacet
  facet normal 1.000000e+000 0.000000e+000 0.000000e+000
    outer loop
      vertex   -1.234000e+002 9.780000e+001 1.013333e+002
      vertex   -1.234000e+002 9.700000e+001 1.013333e+002
      vertex   -1.234000e+002 9.700000e+001 5.166667e+001
    endloop
  endfacet
  facet normal 1.000000e+000 0.000000e+000 0.000000e+000
    outer loop
      vertex   -1.234000e+002 9.780000e+001 5.166667e+001
      vertex   -1.234000e+002 9.700000e+001 5.166667e+001
      vertex   -1.234000e+002 9.700000e+001 2.000000e+000
    endloop
  endfacet
  facet normal 1.000000e+000 0.000000e+000 -0.000000e+000
    outer loop
      vertex   -1.234000e+002 9.780000e+001 2.000000e+000
      vertex   -1.234000e+002 9.780000e+001 5.166667e+001
      vertex   -1.234000e+002 9.700000e+001 2.000000e+000
    endloop
  endfacet
  facet normal 1.000000e+000 -0.000000e+000 0.000000e+000
    outer loop
      vertex   -1.234000e+002 9.780000e+001 1.013333e+002
      vertex   -1.234000e+002 9.700000e+001 5.166667e+001
      vertex   -1.234000e+002 9.780000e+001 5.166667e+001
    endloop
  endfacet
  facet normal 0.000000e+000 -2.775558e-016 1.000000e+000
    outer loop
      vertex   -1.234000e+002 9.700000e+001 2.000000e+000
      vertex   -1.210000e+002 9.700000e+001 2.000000e+000
      vertex   -1.234000e+002 9.780000e+001 2.000000e+000
    endloop
  endfacet
  facet normal 6.938894e-017 -6.938894e-017 1.000000e+000
    outer loop
      vertex   -1.234000e+002 9.780000e+001 2.000000e+000
      vertex   -1.210000e+002 9.700000e+001 2.000000e+000
      vertex   -1.218000e+002 9.940000e+001 2.000000e+000
    endloop
  endfacet
  facet normal 0.000000e+000 0.000000e+000 1.000000e+000
    outer loop
      vertex   -1.266000e+002 9.780000e+001 2.000000e+000
      vertex   -1.218000e+002 9.940000e+001 2.000000e+000
      vertex   -1.218000e+002 1.026000e+002 2.000000e+000
    endloop
  endfacet
  facet normal 0.000000e+000 9.251859e-017 1.000000e+000
    outer loop
      vertex   -1.290000e+002 1.050000e+002 2.000000e+000
      vertex   -1.218000e+002 1.026000e+002 2.000000e+000
      vertex   -1.210000e+002 1.050000e+002 2.000000e+000
    endloop
  endfacet
  facet normal -2.312965e-017 2.312965e-017 1.000000e+000
    outer loop
      vertex   -1.290000e+002 1.050000e+002 2.000000e+000
      vertex   -1.266000e+002 9.780000e+001 2.000000e+000
      vertex   -1.218000e+002 1.026000e+002 2.000000e+000
    endloop
  endfacet
  facet normal -9.251859e-017 0.000000e+000 1.000000e+000
    outer loop
      vertex   -1.290000e+002 1.050000e+002 2.000000e+000
      vertex   -1.290000e+002 9.700000e+001 2.000000e+000
      vertex   -1.266000e+002 9.780000e+001 2.000000e+000
    endloop
  endfacet
  facet normal 0.000000e+000 -2.775558e-016 1.000000e+000
    outer loop
      vertex   -1.266000e+002 9.780000e+001 2.000000e+000
      vertex   -1.290000e+002 9.700000e+001 2.000000e+000
      vertex   -1.266000e+002 9.700000e+001 2.000000e+000
    endloop
  endfacet
  facet normal 2.775558e-016 -0.000000e+000 1.000000e+000
    outer loop
      vertex   -1.210000e+002 9.700000e+001 2.000000e+000
      vertex   -1.210000e+002 9.940000e+001 2.000000e+000
      vertex   -1.218000e+002 9.940000e+001 2.000000e+000
    endloop
  endfacet
  facet normal 0.000000e+000 -0.000000e+000 1.000000e+000
    outer loop
      vertex   -1.234000e+002 9.780000e+001 2.000000e+000
      vertex   -1.218000e+002 9.940000e+001 2.000000e+000
      vertex   -1.266000e+002 9.780000e+001 2.000000e+000
    endloop
  endfacet
  facet normal 2.775558e-016 -0.000000e+000 1.000000e+000
    outer loop
      vertex   -1.218000e+002 1.026000e+002 2.000000e+000
      vertex   -1.210000e+002 1.026000e+002 2.000000e+000
      vertex   -1.210000e+002 1.050000e+002 2.000000e+000
    endloop
  endfacet
  facet normal 0.000000e+000 1.000000e+000 5.722492e-016
    outer loop
      vertex   -1.266000e+002 9.700000e+001 1.510000e+002
      vertex   -1.266000e+002 9.700000e+001 1.013333e+002
      vertex   -1.290000e+002 9.700000e+001 1.510000e+002
    endloop
  endfacet
  facet normal 5.921189e-015 1.000000e+000 8.583738e-016
    outer loop
      vertex   -1.290000e+002 9.700000e+001 1.510000e+002
      vertex   -1.266000e+002 9.700000e+001 1.013333e+002
      vertex   -1.290000e+002 9.700000e+001 1.013333e+002
    endloop
  endfacet
  facet normal 5.921189e-015 1.000000e+000 0.000000e+000
    outer loop
      vertex   -1.290000e+002 9.700000e+001 1.013333e+002
      vertex   -1.266000e+002 9.700000e+001 1.013333e+002
      vertex   -1.266000e+002 9.700000e+001 5.166667e+001
    endloop
  endfacet
  facet normal 5.921189e-015 1.000000e+000 -5.722492e-016
    outer loop
      vertex   -1.290000e+002 9.700000e+001 5.166667e+001
      vertex   -1.266000e+002 9.700000e+001 5.166667e+001
      vertex   -1.266000e+002 9.700000e+001 2.000000e+000
    endloop
  endfacet
  facet normal 0.000000e+000 1.000000e+000 -8.583738e-016
    outer loop
      vertex   -1.290000e+002 9.700000e+001 2.000000e+000
      vertex   -1.290000e+002 9.700000e+001 5.166667e+001
      vertex   -1.266000e+002 9.700000e+001 2.000000e+000
    endloop
  endfacet
  facet normal 5.921189e-015 1.000000e+000 0.000000e+000
    outer loop
      vertex   -1.290000e+002 9.700000e+001 1.013333e+002
      vertex   -1.266000e+002 9.700000e+001 5.166667e+001
      vertex   -1.290000e+002 9.700000e+001 5.166667e+001
    endloop
  endfacet
  facet normal 0.000000e+000 1.000000e+000 0.000000e+000
    outer loop
      vertex   -1.210000e+002 1.026000e+002 1.510000e+002
      vertex   -1.210000e+002 1.026000e+002 1.013333e+002
      vertex   -1.218000e+002 1.026000e+002 1.510000e+002
    endloop
  endfacet
  facet normal 0.000000e+000 1.000000e+000 0.000000e+000
    outer loop
      vertex   -1.218000e+002 1.026000e+002 1.510000e+002
      vertex   -1.210000e+002 1.026000e+002 1.013333e+002
      vertex   -1.218000e+002 1.026000e+002 1.013333e+002
    endloop
  endfacet
  facet normal -0.000000e+000 1.000000e+000 0.000000e+000
    outer loop
      vertex   -1.218000e+002 1.026000e+002 1.013333e+002
      vertex   -1.210000e+002 1.026000e+002 1.013333e+002
      vertex   -1.210000e+002 1.026000e+002 5.166667e+001
    endloop
  endfacet
  facet normal -0.000000e+000 1.000000e+000 0.000000e+000
    outer loop
      vertex   -1.218000e+002 1.026000e+002 5.166667e+001
      vertex   -1.210000e+002 1.026000e+002 5.166667e+001
      vertex   -1.210000e+002 1.026000e+002 2.000000e+000
    endloop
  endfacet
  facet normal -0.000000e+000 1.000000e+000 0.000000e+000
    outer loop
      vertex   -1.218000e+002 1.026000e+002 2.000000e+000
      vertex   -1.218000e+002 1.026000e+002 5.166667e+001
      vertex   -1.210000e+002 1.026000e+002 2.000000e+000
    endloop
  endfacet
  facet normal 0.000000e+000 1.000000e+000 0.000000e+000
    outer loop
      vertex   -1.218000e+002 1.026000e+002 1.013333e+002
      vertex   -1.210000e+002 1.026000e+002 5.166667e+001
      vertex   -1.218000e+002 1.026000e+002 5.166667e+001
    endloop
  endfacet
  facet normal 2.541297e-030 -1.000000e+000 2.861246e-016
    outer loop
      vertex   -1.210000e+002 9.940000e+001 2.000000e+000
      vertex   -1.210000e+002 9.940000e+001 5.166667e+001
      vertex   -1.218000e+002 9.940000e+001 2.000000e+000
    endloop
  endfacet
  facet normal 0.000000e+000 -1.000000e+000 2.861246e-016
    outer loop
      vertex   -1.218000e+002 9.940000e+001 2.000000e+000
      vertex   -1.210000e+002 9.940000e+001 5.166667e+001
      vertex   -1.218000e+002 9.940000e+001 5.166667e+001
    endloop
  endfacet
  facet normal 0.000000e+000 -1.000000e+000 0.000000e+000
    outer loop
      vertex   -1.218000e+002 9.940000e+001 5.166667e+001
      vertex   -1.210000e+002 9.940000e+001 5.166667e+001
      vertex   -1.210000e+002 9.940000e+001 1.013333e+002
    endloop
  endfacet
  facet normal 0.000000e+000 -1.000000e+000 -2.861246e-016
    outer loop
      vertex   -1.218000e+002 9.940000e+001 1.013333e+002
      vertex   -1.210000e+002 9.940000e+001 1.013333e+002
      vertex   -1.210000e+002 9.940000e+001 1.510000e+002
    endloop
  endfacet
  facet normal 0.000000e+000 -1.000000e+000 -2.861246e-016
    outer loop
      vertex   -1.218000e+002 9.940000e+001 1.510000e+002
      vertex   -1.218000e+002 9.940000e+001 1.013333e+002
      vertex   -1.210000e+002 9.940000e+001 1.510000e+002
    endloop
  endfacet
  facet normal 0.000000e+000 -1.000000e+000 0.000000e+000
    outer loop
      vertex   -1.218000e+002 9.940000e+001 5.166667e+001
      vertex   -1.210000e+002 9.940000e+001 1.013333e+002
      vertex   -1.218000e+002 9.940000e+001 1.013333e+002
    endloop
  endfacet
  facet normal -1.000000e+000 0.000000e+000 0.000000e+000
    outer loop
      vertex   -1.218000e+002 1.026000e+002 2.000000e+000
      vertex   -1.218000e+002 9.940000e+001 2.000000e+000
      vertex   -1.218000e+002 1.026000e+002 5.166667e+001
    endloop
  endfacet
  facet normal -1.000000e+000 -0.000000e+000 0.000000e+000
    outer loop
      vertex   -1.218000e+002 1.026000e+002 5.166667e+001
      vertex   -1.218000e+002 9.940000e+001 2.000000e+000
      vertex   -1.218000e+002 9.940000e+001 5.166667e+001
    endloop
  endfacet
  facet normal -1.000000e+000 -0.000000e+000 0.000000e+000
    outer loop
      vertex   -1.218000e+002 1.026000e+002 1.013333e+002
      vertex   -1.218000e+002 9.940000e+001 5.166667e+001
      vertex   -1.218000e+002 9.940000e+001 1.013333e+002
    endloop
  endfacet
  facet normal -1.000000e+000 -0.000000e+000 0.000000e+000
    outer loop
      vertex   -1.218000e+002 1.026000e+002 1.510000e+002
      vertex   -1.218000e+002 9.940000e+001 1.013333e+002
      vertex   -1.218000e+002 9.940000e+001 1.510000e+002
    endloop
  endfacet
  facet normal -1.000000e+000 -0.000000e+000 -0.000000e+000
    outer loop
      vertex   -1.218000e+002 1.026000e+002 1.510000e+002
      vertex   -1.218000e+002 1.026000e+002 1.013333e+002
      vertex   -1.218000e+002 9.940000e+001 1.013333e+002
    endloop
  endfacet
  facet normal -1.000000e+000 0.000000e+000 0.000000e+000
    outer loop
      vertex   -1.218000e+002 1.026000e+002 5.166667e+001
      vertex   -1.218000e+002 9.940000e+001 5.166667e+001
      vertex   -1.218000e+002 1.026000e+002 1.013333e+002
    endloop
  endfacet
  facet normal -1.000000e+000 -0.000000e+000 -0.000000e+000
    outer loop
      vertex   -1.210000e+002 9.940000e+001 1.510000e+002
      vertex   -1.210000e+002 9.940000e+001 1.013333e+002
      vertex   -1.210000e+002 9.700000e+001 1.510000e+002
    endloop
  endfacet
  facet normal -1.000000e+000 -0.000000e+000 -0.000000e+000
    outer loop
      vertex   -1.210000e+002 9.700000e+001 1.510000e+002
      vertex   -1.210000e+002 9.940000e+001 1.013333e+002
      vertex   -1.210000e+002 9.700000e+001 1.013333e+002
    endloop
  endfacet
  facet normal -1.000000e+000 0.000000e+000 0.000000e+000
    outer loop
      vertex   -1.210000e+002 9.700000e+001 1.013333e+002
      vertex   -1.210000e+002 9.940000e+001 1.013333e+002
      vertex   -1.210000e+002 9.940000e+001 5.166667e+001
    endloop
  endfacet
  facet normal -1.000000e+000 0.000000e+000 -0.000000e+000
    outer loop
      vertex   -1.210000e+002 9.700000e+001 5.166667e+001
      vertex   -1.210000e+002 9.940000e+001 5.166667e+001
      vertex   -1.210000e+002 9.940000e+001 2.000000e+000
    endloop
  endfacet
  facet normal -1.000000e+000 0.000000e+000 0.000000e+000
    outer loop
      vertex   -1.210000e+002 9.700000e+001 2.000000e+000
      vertex   -1.210000e+002 9.700000e+001 5.166667e+001
      vertex   -1.210000e+002 9.940000e+001 2.000000e+000
    endloop
  endfacet
  facet normal -1.000000e+000 -0.000000e+000 -0.000000e+000
    outer loop
      vertex   -1.210000e+002 9.700000e+001 1.013333e+002
      vertex   -1.210000e+002 9.940000e+001 5.166667e+001
      vertex   -1.210000e+002 9.700000e+001 5.166667e+001
    endloop
  endfacet
  facet normal -1.000000e+000 0.000000e+000 0.000000e+000
    outer loop
      vertex   -1.210000e+002 1.026000e+002 2.000000e+000
      vertex   -1.210000e+002 1.026000e+002 5.166667e+001
      vertex   -1.210000e+002 1.050000e+002 2.000000e+000
    endloop
  endfacet
  facet normal -1.000000e+000 0.000000e+000 0.000000e+000
    outer loop
      vertex   -1.210000e+002 1.050000e+002 2.000000e+000
      vertex   -1.210000e+002 1.026000e+002 5.166667e+001
      vertex   -1.210000e+002 1.050000e+002 5.166667e+001
    endloop
  endfacet
  facet normal -1.000000e+000 0.000000e+000 0.000000e+000
    outer loop
      vertex   -1.210000e+002 1.050000e+002 5.166667e+001
      vertex   -1.210000e+002 1.026000e+002 5.166667e+001
      vertex   -1.210000e+002 1.026000e+002 1.013333e+002
    endloop
  endfacet
  facet normal -1.000000e+000 0.000000e+000 0.000000e+000
    outer loop
      vertex   -1.210000e+002 1.050000e+002 1.013333e+002
      vertex   -1.210000e+002 1.026000e+002 1.013333e+002
      vertex   -1.210000e+002 1.026000e+002 1.510000e+002
    endloop
  endfacet
  facet normal -1.000000e+000 -0.000000e+000 -0.000000e+000
    outer loop
      vertex   -1.210000e+002 1.050000e+002 1.510000e+002
      vertex   -1.210000e+002 1.050000e+002 1.013333e+002
      vertex   -1.210000e+002 1.026000e+002 1.510000e+002
    endloop
  endfacet
  facet normal -1.000000e+000 0.000000e+000 0.000000e+000
    outer loop
      vertex   -1.210000e+002 1.050000e+002 5.166667e+001
      vertex   -1.210000e+002 1.026000e+002 1.013333e+002
      vertex   -1.210000e+002 1.050000e+002 1.013333e+002
    endloop
  endfacet
  facet normal 0.000000e+000 1.000000e+000 -5.722492e-016
    outer loop
      vertex   -1.234000e+002 9.700000e+001 2.000000e+000
      vertex   -1.234000e+002 9.700000e+001 5.166667e+001
      vertex   -1.210000e+002 9.700000e+001 2.000000e+000
    endloop
  endfacet
  facet normal 0.000000e+000 1.000000e+000 -5.722492e-016
    outer loop
      vertex   -1.210000e+002 9.700000e+001 2.000000e+000
      vertex   -1.234000e+002 9.700000e+001 5.166667e+001
      vertex   -1.210000e+002 9.700000e+001 5.166667e+001
    endloop
  endfacet
  facet normal 0.000000e+000 1.000000e+000 -0.000000e+000
    outer loop
      vertex   -1.210000e+002 9.700000e+001 5.166667e+001
      vertex   -1.234000e+002 9.700000e+001 5.166667e+001
      vertex   -1.234000e+002 9.700000e+001 1.013333e+002
    endloop
  endfacet
  facet normal 0.000000e+000 1.000000e+000 5.722492e-016
    outer loop
      vertex   -1.210000e+002 9.700000e+001 1.013333e+002
      vertex   -1.234000e+002 9.700000e+001 1.013333e+002
      vertex   -1.234000e+002 9.700000e+001 1.510000e+002
    endloop
  endfacet
  facet normal 0.000000e+000 1.000000e+000 5.722492e-016
    outer loop
      vertex   -1.210000e+002 9.700000e+001 1.510000e+002
      vertex   -1.210000e+002 9.700000e+001 1.013333e+002
      vertex   -1.234000e+002 9.700000e+001 1.510000e+002
    endloop
  endfacet
  facet normal 0.000000e+000 1.000000e+000 -0.000000e+000
    outer loop
      vertex   -1.210000e+002 9.700000e+001 5.166667e+001
      vertex   -1.234000e+002 9.700000e+001 1.013333e+002
      vertex   -1.210000e+002 9.700000e+001 1.013333e+002
    endloop
  endfacet
  facet normal 1.000000e+000 0.000000e+000 -0.000000e+000
    outer loop
      vertex   -1.290000e+002 1.050000e+002 2.000000e+000
      vertex   -1.290000e+002 1.050000e+002 5.166667e+001
      vertex   -1.290000e+002 9.700000e+001 2.000000e+000
    endloop
  endfacet
  facet normal 1.000000e+000 0.000000e+000 -0.000000e+000
    outer loop
      vertex   -1.290000e+002 9.700000e+001 2.000000e+000
      vertex   -1.290000e+002 1.050000e+002 5.166667e+001
      vertex   -1.290000e+002 9.700000e+001 5.166667e+001
    endloop
  endfacet
  facet normal 1.000000e+000 0.000000e+000 0.000000e+000
    outer loop
      vertex   -1.290000e+002 9.700000e+001 5.166667e+001
      vertex   -1.290000e+002 1.050000e+002 5.166667e+001
      vertex   -1.290000e+002 1.050000e+002 1.013333e+002
    endloop
  endfacet
  facet normal 1.000000e+000 0.000000e+000 0.000000e+000
    outer loop
      vertex   -1.290000e+002 9.700000e+001 1.013333e+002
      vertex   -1.290000e+002 1.050000e+002 1.013333e+002
      vertex   -1.290000e+002 1.050000e+002 1.510000e+002
    endloop
  endfacet
  facet normal 1.000000e+000 -0.000000e+000 0.000000e+000
    outer loop
      vertex   -1.290000e+002 9.700000e+001 1.510000e+002
      vertex   -1.290000e+002 9.700000e+001 1.013333e+002
      vertex   -1.290000e+002 1.050000e+002 1.510000e+002
    endloop
  endfacet
  facet normal 1.000000e+000 0.000000e+000 -0.000000e+000
    outer loop
      vertex   -1.290000e+002 9.700000e+001 5.166667e+001
      vertex   -1.290000e+002 1.050000e+002 1.013333e+002
      vertex   -1.290000e+002 9.700000e+001 1.013333e+002
    endloop
  endfacet
  facet normal -0.000000e+000 -1.000000e+000 0.000000e+000
    outer loop
      vertex   -1.210000e+002 1.050000e+002 2.000000e+000
      vertex   -1.210000e+002 1.050000e+002 5.166667e+001
      vertex   -1.290000e+002 1.050000e+002 2.000000e+000
    endloop
  endfacet
  facet normal 0.000000e+000 -1.000000e+000 0.000000e+000
    outer loop
      vertex   -1.290000e+002 1.050000e+002 2.000000e+000
      vertex   -1.210000e+002 1.050000e+002 5.166667e+001
      vertex   -1.290000e+002 1.050000e+002 5.166667e+001
    endloop
  endfacet
  facet normal 0.000000e+000 -1.000000e+000 0.000000e+000
    outer loop
      vertex   -1.290000e+002 1.050000e+002 5.166667e+001
      vertex   -1.210000e+002 1.050000e+002 5.166667e+001
      vertex   -1.210000e+002 1.050000e+002 1.013333e+002
    endloop
  endfacet
  facet normal 0.000000e+000 -1.000000e+000 0.000000e+000
    outer loop
      vertex   -1.290000e+002 1.050000e+002 1.013333e+002
      vertex   -1.210000e+002 1.050000e+002 1.013333e+002
      vertex   -1.210000e+002 1.050000e+002 1.510000e+002
    endloop
  endfacet
  facet normal 0.000000e+000 -1.000000e+000 0.000000e+000
    outer loop
      vertex   -1.290000e+002 1.050000e+002 1.510000e+002
      vertex   -1.290000e+002 1.050000e+002 1.013333e+002
      vertex   -1.210000e+002 1.050000e+002 1.510000e+002
    endloop
  endfacet
  facet normal 0.000000e+000 -1.000000e+000 0.000000e+000
    outer loop
      vertex   -1.290000e+002 1.050000e+002 5.166667e+001
      vertex   -1.210000e+002 1.050000e+002 1.013333e+002
      vertex   -1.290000e+002 1.050000e+002 1.013333e+002
    endloop
  endfacet
  facet normal 1.000000e+000 -0.000000e+000 0.000000e+000
    outer loop
      vertex   -1.256000e+002 9.600000e+001 1.510000e+002
      vertex   -1.256000e+002 9.600000e+001 1.010000e+002
      vertex   -1.256000e+002 9.680000e+001 1.510000e+002
    endloop
  endfacet
  facet normal 1.000000e+000 -0.000000e+000 0.000000e+000
    outer loop
      vertex   -1.256000e+002 9.680000e+001 1.510000e+002
      vertex   -1.256000e+002 9.600000e+001 1.010000e+002
      vertex   -1.256000e+002 9.680000e+001 1.010000e+002
    endloop
  endfacet
  facet normal 1.000000e+000 0.000000e+000 0.000000e+000
    outer loop
      vertex   -1.256000e+002 9.680000e+001 1.010000e+002
      vertex   -1.256000e+002 9.600000e+001 1.010000e+002
      vertex   -1.256000e+002 9.600000e+001 5.100000e+001
    endloop
  endfacet
  facet normal 1.000000e+000 0.000000e+000 0.000000e+000
    outer loop
      vertex   -1.256000e+002 9.680000e+001 5.100000e+001
      vertex   -1.256000e+002 9.600000e+001 5.100000e+001
      vertex   -1.256000e+002 9.600000e+001 1.000000e+000
    endloop
  endfacet
  facet normal 1.000000e+000 0.000000e+000 -0.000000e+000
    outer loop
      vertex   -1.256000e+002 9.680000e+001 1.000000e+000
      vertex   -1.256000e+002 9.680000e+001 5.100000e+001
      vertex   -1.256000e+002 9.600000e+001 1.000000e+000
    endloop
  endfacet
  facet normal 1.000000e+000 -0.000000e+000 0.000000e+000
    outer loop
      vertex   -1.256000e+002 9.680000e+001 1.010000e+002
      vertex   -1.256000e+002 9.600000e+001 5.100000e+001
      vertex   -1.256000e+002 9.680000e+001 5.100000e+001
    endloop
  endfacet
  facet normal -0.000000e+000 -1.000000e+000 0.000000e+000
    outer loop
      vertex   -1.244000e+002 9.680000e+001 1.000000e+000
      vertex   -1.244000e+002 9.680000e+001 5.100000e+001
      vertex   -1.256000e+002 9.680000e+001 1.000000e+000
    endloop
  endfacet
  facet normal 0.000000e+000 -1.000000e+000 0.000000e+000
    outer loop
      vertex   -1.256000e+002 9.680000e+001 1.000000e+000
      vertex   -1.244000e+002 9.680000e+001 5.100000e+001
      vertex   -1.256000e+002 9.680000e+001 5.100000e+001
    endloop
  endfacet
  facet normal 0.000000e+000 -1.000000e+000 0.000000e+000
    outer loop
      vertex   -1.256000e+002 9.680000e+001 5.100000e+001
      vertex   -1.244000e+002 9.680000e+001 5.100000e+001
      vertex   -1.244000e+002 9.680000e+001 1.010000e+002
    endloop
  endfacet
  facet normal 0.000000e+000 -1.000000e+000 0.000000e+000
    outer loop
      vertex   -1.256000e+002 9.680000e+001 1.010000e+002
      vertex   -1.244000e+002 9.680000e+001 1.010000e+002
      vertex   -1.244000e+002 9.680000e+001 1.510000e+002
    endloop
  endfacet
  facet normal 0.000000e+000 -1.000000e+000 0.000000e+000
    outer loop
      vertex   -1.256000e+002 9.680000e+001 1.510000e+002
      vertex   -1.256000e+002 9.680000e+001 1.010000e+002
      vertex   -1.244000e+002 9.680000e+001 1.510000e+002
    endloop
  endfacet
  facet normal 0.000000e+000 -1.000000e+000 0.000000e+000
    outer loop
      vertex   -1.256000e+002 9.680000e+001 5.100000e+001
      vertex   -1.244000e+002 9.680000e+001 1.010000e+002
      vertex   -1.256000e+002 9.680000e+001 1.010000e+002
    endloop
  endfacet
  facet normal -1.000000e+000 0.000000e+000 0.000000e+000
    outer loop
      vertex   -1.244000e+002 9.600000e+001 1.000000e+000
      vertex   -1.244000e+002 9.600000e+001 5.100000e+001
      vertex   -1.244000e+002 9.680000e+001 1.000000e+000
    endloop
  endfacet
  facet normal -1.000000e+000 0.000000e+000 0.000000e+000
    outer loop
      vertex   -1.244000e+002 9.680000e+001 1.000000e+000
      vertex   -1.244000e+002 9.600000e+001 5.100000e+001
      vertex   -1.244000e+002 9.680000e+001 5.100000e+001
    endloop
  endfacet
  facet normal -1.000000e+000 0.000000e+000 0.000000e+000
    outer loop
      vertex   -1.244000e+002 9.680000e+001 5.100000e+001
      vertex   -1.244000e+002 9.600000e+001 5.100000e+001
      vertex   -1.244000e+002 9.600000e+001 1.010000e+002
    endloop
  endfacet
  facet normal -1.000000e+000 -0.000000e+000 0.000000e+000
    outer loop
      vertex   -1.244000e+002 9.680000e+001 1.010000e+002
      vertex   -1.244000e+002 9.600000e+001 1.010000e+002
      vertex   -1.244000e+002 9.600000e+001 1.510000e+002
    endloop
  endfacet
  facet normal -1.000000e+000 -0.000000e+000 -0.000000e+000
    outer loop
      vertex   -1.244000e+002 9.680000e+001 1.510000e+002
      vertex   -1.244000e+002 9.680000e+001 1.010000e+002
      vertex   -1.244000e+002 9.600000e+001 1.510000e+002
    endloop
  endfacet
  facet normal -1.000000e+000 0.000000e+000 0.000000e+000
    outer loop
      vertex   -1.244000e+002 9.680000e+001 5.100000e+001
      vertex   -1.244000e+002 9.600000e+001 1.010000e+002
      vertex   -1.244000e+002 9.680000e+001 1.010000e+002
    endloop
  endfacet
  facet normal -0.000000e+000 -1.000000e+000 0.000000e+000
    outer loop
      vertex   -1.256000e+002 9.600000e+001 1.000000e+000
      vertex   -1.256000e+002 9.600000e+001 5.100000e+001
      vertex   -1.300000e+002 9.600000e+001 1.000000e+000
    endloop
  endfacet
  facet normal 0.000000e+000 -1.000000e+000 0.000000e+000
    outer loop
      vertex   -1.300000e+002 9.600000e+001 1.000000e+000
      vertex   -1.256000e+002 9.600000e+001 5.100000e+001
      vertex   -1.300000e+002 9.600000e+001 5.100000e+001
    endloop
  endfacet
  facet normal 0.000000e+000 -1.000000e+000 0.000000e+000
    outer loop
      vertex   -1.300000e+002 9.600000e+001 5.100000e+001
      vertex   -1.256000e+002 9.600000e+001 5.100000e+001
      vertex   -1.256000e+002 9.600000e+001 1.010000e+002
    endloop
  endfacet
  facet normal 0.000000e+000 -1.000000e+000 0.000000e+000
    outer loop
      vertex   -1.300000e+002 9.600000e+001 1.010000e+002
      vertex   -1.256000e+002 9.600000e+001 1.010000e+002
      vertex   -1.256000e+002 9.600000e+001 1.510000e+002
    endloop
  endfacet
  facet normal 0.000000e+000 -1.000000e+000 0.000000e+000
    outer loop
      vertex   -1.300000e+002 9.600000e+001 1.510000e+002
      vertex   -1.300000e+002 9.600000e+001 1.010000e+002
      vertex   -1.256000e+002 9.600000e+001 1.510000e+002
    endloop
  endfacet
  facet normal 0.000000e+000 -1.000000e+000 0.000000e+000
    outer loop
      vertex   -1.300000e+002 9.600000e+001 5.100000e+001
      vertex   -1.256000e+002 9.600000e+001 1.010000e+002
      vertex   -1.300000e+002 9.600000e+001 1.010000e+002
    endloop
  endfacet
  facet normal 0.000000e+000 -1.000000e+000 5.684342e-016
    outer loop
      vertex   -1.200000e+002 1.016000e+002 1.000000e+000
      vertex   -1.200000e+002 1.016000e+002 5.100000e+001
      vertex   -1.208000e+002 1.016000e+002 1.000000e+000
    endloop
  endfacet
  facet normal 3.552714e-014 -1.000000e+000 0.000000e+000
    outer loop
      vertex   -1.208000e+002 1.016000e+002 1.000000e+000
      vertex   -1.200000e+002 1.016000e+002 5.100000e+001
      vertex   -1.208000e+002 1.016000e+002 5.100000e+001
    endloop
  endfacet
  facet normal 3.552714e-014 -1.000000e+000 0.000000e+000
    outer loop
      vertex   -1.208000e+002 1.016000e+002 5.100000e+001
      vertex   -1.200000e+002 1.016000e+002 5.100000e+001
      vertex   -1.200000e+002 1.016000e+002 1.010000e+002
    endloop
  endfacet
  facet normal 3.552714e-014 -1.000000e+000 -5.684342e-016
    outer loop
      vertex   -1.208000e+002 1.016000e+002 1.010000e+002
      vertex   -1.200000e+002 1.016000e+002 1.010000e+002
      vertex   -1.200000e+002 1.016000e+002 1.510000e+002
    endloop
  endfacet
  facet normal 0.000000e+000 -1.000000e+000 0.000000e+000
    outer loop
      vertex   -1.208000e+002 1.016000e+002 1.510000e+002
      vertex   -1.208000e+002 1.016000e+002 1.010000e+002
      vertex   -1.200000e+002 1.016000e+002 1.510000e+002
    endloop
  endfacet
  facet normal 3.552714e-014 -1.000000e+000 0.000000e+000
    outer loop
      vertex   -1.208000e+002 1.016000e+002 5.100000e+001
      vertex   -1.200000e+002 1.016000e+002 1.010000e+002
      vertex   -1.208000e+002 1.016000e+002 1.010000e+002
    endloop
  endfacet
  facet normal -1.009742e-029 1.000000e+000 -2.842171e-016
    outer loop
      vertex   -1.200000e+002 1.004000e+002 1.510000e+002
      vertex   -1.200000e+002 1.004000e+002 1.010000e+002
      vertex   -1.208000e+002 1.004000e+002 1.510000e+002
    endloop
  endfacet
  facet normal 1.776357e-014 1.000000e+000 0.000000e+000
    outer loop
      vertex   -1.208000e+002 1.004000e+002 1.510000e+002
      vertex   -1.200000e+002 1.004000e+002 1.010000e+002
      vertex   -1.208000e+002 1.004000e+002 1.010000e+002
    endloop
  endfacet
  facet normal 1.776357e-014 1.000000e+000 0.000000e+000
    outer loop
      vertex   -1.208000e+002 1.004000e+002 1.010000e+002
      vertex   -1.200000e+002 1.004000e+002 1.010000e+002
      vertex   -1.200000e+002 1.004000e+002 5.100000e+001
    endloop
  endfacet
  facet normal 1.776357e-014 1.000000e+000 2.842171e-016
    outer loop
      vertex   -1.208000e+002 1.004000e+002 5.100000e+001
      vertex   -1.200000e+002 1.004000e+002 5.100000e+001
      vertex   -1.200000e+002 1.004000e+002 1.000000e+000
    endloop
  endfacet
  facet normal -0.000000e+000 1.000000e+000 0.000000e+000
    outer loop
      vertex   -1.208000e+002 1.004000e+002 1.000000e+000
      vertex   -1.208000e+002 1.004000e+002 5.100000e+001
      vertex   -1.200000e+002 1.004000e+002 1.000000e+000
    endloop
  endfacet
  facet normal 1.776357e-014 1.000000e+000 0.000000e+000
    outer loop
      vertex   -1.208000e+002 1.004000e+002 1.010000e+002
      vertex   -1.200000e+002 1.004000e+002 5.100000e+001
      vertex   -1.208000e+002 1.004000e+002 5.100000e+001
    endloop
  endfacet
  facet normal 1.000000e+000 0.000000e+000 -0.000000e+000
    outer loop
      vertex   -1.208000e+002 1.016000e+002 1.000000e+000
      vertex   -1.208000e+002 1.016000e+002 5.100000e+001
      vertex   -1.208000e+002 1.004000e+002 1.000000e+000
    endloop
  endfacet
  facet normal 1.000000e+000 0.000000e+000 -0.000000e+000
    outer loop
      vertex   -1.208000e+002 1.004000e+002 1.000000e+000
      vertex   -1.208000e+002 1.016000e+002 5.100000e+001
      vertex   -1.208000e+002 1.004000e+002 5.100000e+001
    endloop
  endfacet
  facet normal 1.000000e+000 0.000000e+000 0.000000e+000
    outer loop
      vertex   -1.208000e+002 1.004000e+002 5.100000e+001
      vertex   -1.208000e+002 1.016000e+002 5.100000e+001
      vertex   -1.208000e+002 1.016000e+002 1.010000e+002
    endloop
  endfacet
  facet normal 1.000000e+000 0.000000e+000 0.000000e+000
    outer loop
      vertex   -1.208000e+002 1.004000e+002 1.010000e+002
      vertex   -1.208000e+002 1.016000e+002 1.010000e+002
      vertex   -1.208000e+002 1.016000e+002 1.510000e+002
    endloop
  endfacet
  facet normal 1.000000e+000 -0.000000e+000 0.000000e+000
    outer loop
      vertex   -1.208000e+002 1.004000e+002 1.510000e+002
      vertex   -1.208000e+002 1.004000e+002 1.010000e+002
      vertex   -1.208000e+002 1.016000e+002 1.510000e+002
    endloop
  endfacet
  facet normal 1.000000e+000 0.000000e+000 -0.000000e+000
    outer loop
      vertex   -1.208000e+002 1.004000e+002 5.100000e+001
      vertex   -1.208000e+002 1.016000e+002 1.010000e+002
      vertex   -1.208000e+002 1.004000e+002 1.010000e+002
    endloop
  endfacet
  facet normal 1.000000e+000 0.000000e+000 0.000000e+000
    outer loop
      vertex   -1.200000e+002 1.004000e+002 1.000000e+000
      vertex   -1.200000e+002 1.004000e+002 5.100000e+001
      vertex   -1.200000e+002 9.600000e+001 1.000000e+000
    endloop
  endfacet
  facet normal 1.000000e+000 0.000000e+000 -0.000000e+000
    outer loop
      vertex   -1.200000e+002 9.600000e+001 1.000000e+000
      vertex   -1.200000e+002 1.004000e+002 5.100000e+001
      vertex   -1.200000e+002 9.600000e+001 5.100000e+001
    endloop
  endfacet
  facet normal 1.000000e+000 0.000000e+000 0.000000e+000
    outer loop
      vertex   -1.200000e+002 9.600000e+001 5.100000e+001
      vertex   -1.200000e+002 1.004000e+002 5.100000e+001
      vertex   -1.200000e+002 1.004000e+002 1.010000e+002
    endloop
  endfacet
  facet normal 1.000000e+000 0.000000e+000 0.000000e+000
    outer loop
      vertex   -1.200000e+002 9.600000e+001 1.010000e+002
      vertex   -1.200000e+002 1.004000e+002 1.010000e+002
      vertex   -1.200000e+002 1.004000e+002 1.510000e+002
    endloop
  endfacet
  facet normal 1.000000e+000 -0.000000e+000 0.000000e+000
    outer loop
      vertex   -1.200000e+002 9.600000e+001 1.510000e+002
      vertex   -1.200000e+002 9.600000e+001 1.010000e+002
      vertex   -1.200000e+002 1.004000e+002 1.510000e+002
    endloop
  endfacet
  facet normal 1.000000e+000 0.000000e+000 -0.000000e+000
    outer loop
      vertex   -1.200000e+002 9.600000e+001 5.100000e+001
      vertex   -1.200000e+002 1.004000e+002 1.010000e+002
      vertex   -1.200000e+002 9.600000e+001 1.010000e+002
    endloop
  endfacet
  facet normal 1.000000e+000 -0.000000e+000 0.000000e+000
    outer loop
      vertex   -1.200000e+002 1.016000e+002 1.510000e+002
      vertex   -1.200000e+002 1.016000e+002 1.010000e+002
      vertex   -1.200000e+002 1.060000e+002 1.510000e+002
    endloop
  endfacet
  facet normal 1.000000e+000 -0.000000e+000 0.000000e+000
    outer loop
      vertex   -1.200000e+002 1.060000e+002 1.510000e+002
      vertex   -1.200000e+002 1.016000e+002 1.010000e+002
      vertex   -1.200000e+002 1.060000e+002 1.010000e+002
    endloop
  endfacet
  facet normal 1.000000e+000 0.000000e+000 0.000000e+000
    outer loop
      vertex   -1.200000e+002 1.060000e+002 1.010000e+002
      vertex   -1.200000e+002 1.016000e+002 1.010000e+002
      vertex   -1.200000e+002 1.016000e+002 5.100000e+001
    endloop
  endfacet
  facet normal 1.000000e+000 0.000000e+000 0.000000e+000
    outer loop
      vertex   -1.200000e+002 1.060000e+002 5.100000e+001
      vertex   -1.200000e+002 1.016000e+002 5.100000e+001
      vertex   -1.200000e+002 1.016000e+002 1.000000e+000
    endloop
  endfacet
  facet normal 1.000000e+000 0.000000e+000 -0.000000e+000
    outer loop
      vertex   -1.200000e+002 1.060000e+002 1.000000e+000
      vertex   -1.200000e+002 1.060000e+002 5.100000e+001
      vertex   -1.200000e+002 1.016000e+002 1.000000e+000
    endloop
  endfacet
  facet normal 1.000000e+000 -0.000000e+000 0.000000e+000
    outer loop
      vertex   -1.200000e+002 1.060000e+002 1.010000e+002
      vertex   -1.200000e+002 1.016000e+002 5.100000e+001
      vertex   -1.200000e+002 1.060000e+002 5.100000e+001
    endloop
  endfacet
  facet normal 0.000000e+000 -2.842171e-014 1.000000e+000
    outer loop
      vertex   -1.210000e+002 9.940000e+001 1.510000e+002
      vertex   -1.208000e+002 1.004000e+002 1.510000e+002
      vertex   -1.218000e+002 9.940000e+001 1.510000e+002
    endloop
  endfacet
  facet normal 3.552714e-014 -3.552714e-014 1.000000e+000
    outer loop
      vertex   -1.210000e+002 9.940000e+001 1.510000e+002
      vertex   -1.200000e+002 1.004000e+002 1.510000e+002
      vertex   -1.208000e+002 1.004000e+002 1.510000e+002
    endloop
  endfacet
  facet normal -0.000000e+000 0.000000e+000 1.000000e+000
    outer loop
      vertex   -1.210000e+002 9.940000e+001 1.510000e+002
      vertex   -1.200000e+002 9.600000e+001 1.510000e+002
      vertex   -1.200000e+002 1.004000e+002 1.510000e+002
    endloop
  endfacet
  facet normal 0.000000e+000 0.000000e+000 1.000000e+000
    outer loop
      vertex   -1.210000e+002 9.940000e+001 1.510000e+002
      vertex   -1.210000e+002 9.700000e+001 1.510000e+002
      vertex   -1.200000e+002 9.600000e+001 1.510000e+002
    endloop
  endfacet
  facet normal 0.000000e+000 0.000000e+000 1.000000e+000
    outer loop
      vertex   -1.200000e+002 9.600000e+001 1.510000e+002
      vertex   -1.210000e+002 9.700000e+001 1.510000e+002
      vertex   -1.234000e+002 9.700000e+001 1.510000e+002
    endloop
  endfacet
  facet normal 3.552714e-014 -3.552714e-014 1.000000e+000
    outer loop
      vertex   -1.244000e+002 9.600000e+001 1.510000e+002
      vertex   -1.234000e+002 9.700000e+001 1.510000e+002
      vertex   -1.244000e+002 9.680000e+001 1.510000e+002
    endloop
  endfacet
  facet normal 0.000000e+000 -0.000000e+000 1.000000e+000
    outer loop
      vertex   -1.244000e+002 9.600000e+001 1.510000e+002
      vertex   -1.200000e+002 9.600000e+001 1.510000e+002
      vertex   -1.234000e+002 9.700000e+001 1.510000e+002
    endloop
  endfacet
  facet normal 2.842171e-014 -0.000000e+000 1.000000e+000
    outer loop
      vertex   -1.234000e+002 9.700000e+001 1.510000e+002
      vertex   -1.234000e+002 9.780000e+001 1.510000e+002
      vertex   -1.244000e+002 9.680000e+001 1.510000e+002
    endloop
  endfacet
  facet normal 0.000000e+000 2.842171e-014 1.000000e+000
    outer loop
      vertex   -1.244000e+002 9.680000e+001 1.510000e+002
      vertex   -1.234000e+002 9.780000e+001 1.510000e+002
      vertex   -1.266000e+002 9.780000e+001 1.510000e+002
    endloop
  endfacet
  facet normal -2.842171e-014 0.000000e+000 1.000000e+000
    outer loop
      vertex   -1.256000e+002 9.680000e+001 1.510000e+002
      vertex   -1.266000e+002 9.780000e+001 1.510000e+002
      vertex   -1.266000e+002 9.700000e+001 1.510000e+002
    endloop
  endfacet
  facet normal 0.000000e+000 0.000000e+000 1.000000e+000
    outer loop
      vertex   -1.256000e+002 9.600000e+001 1.510000e+002
      vertex   -1.266000e+002 9.700000e+001 1.510000e+002
      vertex   -1.290000e+002 9.700000e+001 1.510000e+002
    endloop
  endfacet
  facet normal 0.000000e+000 0.000000e+000 1.000000e+000
    outer loop
      vertex   -1.300000e+002 9.600000e+001 1.510000e+002
      vertex   -1.290000e+002 9.700000e+001 1.510000e+002
      vertex   -1.290000e+002 1.050000e+002 1.510000e+002
    endloop
  endfacet
  facet normal -0.000000e+000 0.000000e+000 1.000000e+000
    outer loop
      vertex   -1.300000e+002 1.060000e+002 1.510000e+002
      vertex   -1.290000e+002 1.050000e+002 1.510000e+002
      vertex   -1.210000e+002 1.050000e+002 1.510000e+002
    endloop
  endfacet
  facet normal 0.000000e+000 0.000000e+000 1.000000e+000
    outer loop
      vertex   -1.200000e+002 1.060000e+002 1.510000e+002
      vertex   -1.210000e+002 1.050000e+002 1.510000e+002
      vertex   -1.200000e+002 1.016000e+002 1.510000e+002
    endloop
  endfacet
  facet normal 0.000000e+000 0.000000e+000 1.000000e+000
    outer loop
      vertex   -1.200000e+002 1.060000e+002 1.510000e+002
      vertex   -1.300000e+002 1.060000e+002 1.510000e+002
      vertex   -1.210000e+002 1.050000e+002 1.510000e+002
    endloop
  endfacet
  facet normal 0.000000e+000 2.842171e-014 1.000000e+000
    outer loop
      vertex   -1.244000e+002 9.680000e+001 1.510000e+002
      vertex   -1.266000e+002 9.780000e+001 1.510000e+002
      vertex   -1.256000e+002 9.680000e+001 1.510000e+002
    endloop
  endfacet
  facet normal -3.552714e-014 -3.552714e-014 1.000000e+000
    outer loop
      vertex   -1.256000e+002 9.680000e+001 1.510000e+002
      vertex   -1.266000e+002 9.700000e+001 1.510000e+002
      vertex   -1.256000e+002 9.600000e+001 1.510000e+002
    endloop
  endfacet
  facet normal 0.000000e+000 0.000000e+000 1.000000e+000
    outer loop
      vertex   -1.256000e+002 9.600000e+001 1.510000e+002
      vertex   -1.290000e+002 9.700000e+001 1.510000e+002
      vertex   -1.300000e+002 9.600000e+001 1.510000e+002
    endloop
  endfacet
  facet normal 0.000000e+000 -0.000000e+000 1.000000e+000
    outer loop
      vertex   -1.300000e+002 9.600000e+001 1.510000e+002
      vertex   -1.290000e+002 1.050000e+002 1.510000e+002
      vertex   -1.300000e+002 1.060000e+002 1.510000e+002
    endloop
  endfacet
  facet normal 0.000000e+000 0.000000e+000 1.000000e+000
    outer loop
      vertex   -1.210000e+002 1.050000e+002 1.510000e+002
      vertex   -1.210000e+002 1.026000e+002 1.510000e+002
      vertex   -1.200000e+002 1.016000e+002 1.510000e+002
    endloop
  endfacet
  facet normal 3.552714e-014 3.552714e-014 1.000000e+000
    outer loop
      vertex   -1.200000e+002 1.016000e+002 1.510000e+002
      vertex   -1.210000e+002 1.026000e+002 1.510000e+002
      vertex   -1.208000e+002 1.016000e+002 1.510000e+002
    endloop
  endfacet
  facet normal 0.000000e+000 2.842171e-014 1.000000e+000
    outer loop
      vertex   -1.208000e+002 1.016000e+002 1.510000e+002
      vertex   -1.210000e+002 1.026000e+002 1.510000e+002
      vertex   -1.218000e+002 1.026000e+002 1.510000e+002
    endloop
  endfacet
  facet normal -2.842171e-014 0.000000e+000 1.000000e+000
    outer loop
      vertex   -1.218000e+002 9.940000e+001 1.510000e+002
      vertex   -1.208000e+002 1.016000e+002 1.510000e+002
      vertex   -1.218000e+002 1.026000e+002 1.510000e+002
    endloop
  endfacet
  facet normal -2.842171e-014 0.000000e+000 1.000000e+000
    outer loop
      vertex   -1.218000e+002 9.940000e+001 1.510000e+002
      vertex   -1.208000e+002 1.004000e+002 1.510000e+002
      vertex   -1.208000e+002 1.016000e+002 1.510000e+002
    endloop
  endfacet
  facet normal 0.000000e+000 -1.000000e+000 0.000000e+000
    outer loop
      vertex   -1.244000e+002 9.600000e+001 1.510000e+002
      vertex   -1.244000e+002 9.600000e+001 1.010000e+002
      vertex   -1.200000e+002 9.600000e+001 1.510000e+002
    endloop
  endfacet
  facet normal 0.000000e+000 -1.000000e+000 -0.000000e+000
    outer loop
      vertex   -1.200000e+002 9.600000e+001 1.510000e+002
      vertex   -1.244000e+002 9.600000e+001 1.010000e+002
      vertex   -1.200000e+002 9.600000e+001 1.010000e+002
    endloop
  endfacet
  facet normal -0.000000e+000 -1.000000e+000 -0.000000e+000
    outer loop
      vertex   -1.200000e+002 9.600000e+001 1.010000e+002
      vertex   -1.244000e+002 9.600000e+001 1.010000e+002
      vertex   -1.244000e+002 9.600000e+001 5.100000e+001
    endloop
  endfacet
  facet normal -0.000000e+000 -1.000000e+000 -0.000000e+000
    outer loop
      vertex   -1.200000e+002 9.600000e+001 5.100000e+001
      vertex   -1.244000e+002 9.600000e+001 5.100000e+001
      vertex   -1.244000e+002 9.600000e+001 1.000000e+000
    endloop
  endfacet
  facet normal -0.000000e+000 -1.000000e+000 0.000000e+000
    outer loop
      vertex   -1.200000e+002 9.600000e+001 1.000000e+000
      vertex   -1.200000e+002 9.600000e+001 5.100000e+001
      vertex   -1.244000e+002 9.600000e+001 1.000000e+000
    endloop
  endfacet
  facet normal 0.000000e+000 -1.000000e+000 -0.000000e+000
    outer loop
      vertex   -1.200000e+002 9.600000e+001 1.010000e+002
      vertex   -1.244000e+002 9.600000e+001 5.100000e+001
      vertex   -1.200000e+002 9.600000e+001 5.100000e+001
    endloop
  endfacet
  facet normal -1.000000e+000 -0.000000e+000 -0.000000e+000
    outer loop
      vertex   -1.300000e+002 1.060000e+002 1.510000e+002
      vertex   -1.300000e+002 1.060000e+002 1.010000e+002
      vertex   -1.300000e+002 9.600000e+001 1.510000e+002
    endloop
  endfacet
  facet normal -1.000000e+000 -0.000000e+000 -0.000000e+000
    outer loop
      vertex   -1.300000e+002 9.600000e+001 1.510000e+002
      vertex   -1.300000e+002 1.060000e+002 1.010000e+002
      vertex   -1.300000e+002 9.600000e+001 1.010000e+002
    endloop
  endfacet
  facet normal -1.000000e+000 0.000000e+000 0.000000e+000
    outer loop
      vertex   -1.300000e+002 9.600000e+001 1.010000e+002
      vertex   -1.300000e+002 1.060000e+002 1.010000e+002
      vertex   -1.300000e+002 1.060000e+002 5.100000e+001
    endloop
  endfacet
  facet normal -1.000000e+000 0.000000e+000 0.000000e+000
    outer loop
      vertex   -1.300000e+002 9.600000e+001 5.100000e+001
      vertex   -1.300000e+002 1.060000e+002 5.100000e+001
      vertex   -1.300000e+002 1.060000e+002 1.000000e+000
    endloop
  endfacet
  facet normal -1.000000e+000 0.000000e+000 0.000000e+000
    outer loop
      vertex   -1.300000e+002 9.600000e+001 1.000000e+000
      vertex   -1.300000e+002 9.600000e+001 5.100000e+001
      vertex   -1.300000e+002 1.060000e+002 1.000000e+000
    endloop
  endfacet
  facet normal -1.000000e+000 -0.000000e+000 -0.000000e+000
    outer loop
      vertex   -1.300000e+002 9.600000e+001 1.010000e+002
      vertex   -1.300000e+002 1.060000e+002 5.100000e+001
      vertex   -1.300000e+002 9.600000e+001 5.100000e+001
    endloop
  endfacet
  facet normal 0.000000e+000 1.000000e+000 0.000000e+000
    outer loop
      vertex   -1.200000e+002 1.060000e+002 1.510000e+002
      vertex   -1.200000e+002 1.060000e+002 1.010000e+002
      vertex   -1.300000e+002 1.060000e+002 1.510000e+002
    endloop
  endfacet
  facet normal 0.000000e+000 1.000000e+000 0.000000e+000
    outer loop
      vertex   -1.300000e+002 1.060000e+002 1.510000e+002
      vertex   -1.200000e+002 1.060000e+002 1.010000e+002
      vertex   -1.300000e+002 1.060000e+002 1.010000e+002
    endloop
  endfacet
  facet normal -0.000000e+000 1.000000e+000 0.000000e+000
    outer loop
      vertex   -1.300000e+002 1.060000e+002 1.010000e+002
      vertex   -1.200000e+002 1.060000e+002 1.010000e+002
      vertex   -1.200000e+002 1.060000e+002 5.100000e+001
    endloop
  endfacet
  facet normal -0.000000e+000 1.000000e+000 0.000000e+000
    outer loop
      vertex   -1.300000e+002 1.060000e+002 5.100000e+001
      vertex   -1.200000e+002 1.060000e+002 5.100000e+001
      vertex   -1.200000e+002 1.060000e+002 1.000000e+000
    endloop
  endfacet
  facet normal -0.000000e+000 1.000000e+000 0.000000e+000
    outer loop
      vertex   -1.300000e+002 1.060000e+002 1.000000e+000
      vertex   -1.300000e+002 1.060000e+002 5.100000e+001
      vertex   -1.200000e+002 1.060000e+002 1.000000e+000
    endloop
  endfacet
  facet normal 0.000000e+000 1.000000e+000 0.000000e+000
    outer loop
      vertex   -1.300000e+002 1.060000e+002 1.010000e+002
      vertex   -1.200000e+002 1.060000e+002 5.100000e+001
      vertex   -1.300000e+002 1.060000e+002 5.100000e+001
    endloop
  endfacet
endsolid
