solid ascii
  facet normal 0.000000e+000 -0.000000e+000 1.000000e+000
    outer loop
      vertex   -5.200000e+001 1.570800e+001 4.500000e+000
      vertex   -2.700000e+001 1.570800e+001 4.500000e+000
      vertex   -5.200000e+001 4.937787e+001 4.500000e+000
    endloop
  endfacet
  facet normal -0.000000e+000 0.000000e+000 1.000000e+000
    outer loop
      vertex   -5.200000e+001 4.937787e+001 4.500000e+000
      vertex   -2.700000e+001 1.570800e+001 4.500000e+000
      vertex   -2.700000e+001 4.937787e+001 4.500000e+000
    endloop
  endfacet
  facet normal -0.000000e+000 1.000000e+000 0.000000e+000
    outer loop
      vertex   -5.200000e+001 4.937787e+001 1.500000e+000
      vertex   -5.200000e+001 4.937787e+001 4.500000e+000
      vertex   -2.700000e+001 4.937787e+001 1.500000e+000
    endloop
  endfacet
  facet normal 0.000000e+000 1.000000e+000 -0.000000e+000
    outer loop
      vertex   -2.700000e+001 4.937787e+001 1.500000e+000
      vertex   -5.200000e+001 4.937787e+001 4.500000e+000
      vertex   -2.700000e+001 4.937787e+001 4.500000e+000
    endloop
  endfacet
  facet normal -1.000000e+000 -0.000000e+000 -0.000000e+000
    outer loop
      vertex   -5.200000e+001 4.937787e+001 4.500000e+000
      vertex   -5.200000e+001 4.937787e+001 1.500000e+000
      vertex   -5.200000e+001 1.570800e+001 4.500000e+000
    endloop
  endfacet
  facet normal -1.000000e+000 -0.000000e+000 -0.000000e+000
    outer loop
      vertex   -5.200000e+001 1.570800e+001 4.500000e+000
      vertex   -5.200000e+001 4.937787e+001 1.500000e+000
      vertex   -5.200000e+001 6.377870e+000 1.500000e+000
    endloop
  endfacet
  facet normal -1.000000e+000 -0.000000e+000 0.000000e+000
    outer loop
      vertex   -5.200000e+001 1.224390e+001 4.500000e+000
      vertex   -5.200000e+001 6.377870e+000 1.500000e+000
      vertex   -5.200000e+001 6.377870e+000 4.500000e+000
    endloop
  endfacet
  facet normal -1.000000e+000 0.000000e+000 -0.000000e+000
    outer loop
      vertex   -5.200000e+001 1.224390e+001 4.500000e+000
      vertex   -5.200000e+001 1.570800e+001 4.500000e+000
      vertex   -5.200000e+001 6.377870e+000 1.500000e+000
    endloop
  endfacet
  facet normal -1.000000e+000 0.000000e+000 -0.000000e+000
    outer loop
      vertex   -5.200000e+001 1.224390e+001 4.500000e+000
      vertex   -5.200000e+001 1.737787e+001 1.339230e+001
      vertex   -5.200000e+001 1.570800e+001 4.500000e+000
    endloop
  endfacet
  facet normal -1.000000e+000 0.000000e+000 0.000000e+000
    outer loop
      vertex   -5.200000e+001 1.570800e+001 4.500000e+000
      vertex   -5.200000e+001 1.737787e+001 1.339230e+001
      vertex   -5.200000e+001 1.977847e+001 1.155026e+001
    endloop
  endfacet
  facet normal -1.000000e+000 0.000000e+000 0.000000e+000
    outer loop
      vertex   -5.200000e+001 1.977847e+001 1.155026e+001
      vertex   -5.200000e+001 1.737787e+001 1.339230e+001
      vertex   -5.200000e+001 2.789185e+001 1.966365e+001
    endloop
  endfacet
  facet normal -1.000000e+000 -0.000000e+000 0.000000e+000
    outer loop
      vertex   -5.200000e+001 2.789185e+001 1.966365e+001
      vertex   -5.200000e+001 1.737787e+001 1.339230e+001
      vertex   -5.200000e+001 2.586315e+001 2.187759e+001
    endloop
  endfacet
  facet normal -1.000000e+000 -0.000000e+000 0.000000e+000
    outer loop
      vertex   -5.200000e+001 3.678299e+001 2.712419e+001
      vertex   -5.200000e+001 2.586315e+001 2.187759e+001
      vertex   -5.200000e+001 3.505568e+001 2.959104e+001
    endloop
  endfacet
  facet normal -1.000000e+000 -0.000000e+000 0.000000e+000
    outer loop
      vertex   -5.200000e+001 4.672069e+001 3.286173e+001
      vertex   -5.200000e+001 3.505568e+001 2.959104e+001
      vertex   -5.200000e+001 4.544799e+001 3.559104e+001
    endloop
  endfacet
  facet normal -1.000000e+000 -0.000000e+000 0.000000e+000
    outer loop
      vertex   -5.200000e+001 5.775036e+001 3.687620e+001
      vertex   -5.200000e+001 4.544799e+001 3.559104e+001
      vertex   -5.200000e+001 5.672430e+001 3.969528e+001
    endloop
  endfacet
  facet normal -1.000000e+000 -0.000000e+000 0.000000e+000
    outer loop
      vertex   -5.200000e+001 5.775036e+001 3.687620e+001
      vertex   -5.200000e+001 4.672069e+001 3.286173e+001
      vertex   -5.200000e+001 4.544799e+001 3.559104e+001
    endloop
  endfacet
  facet normal -1.000000e+000 0.000000e+000 0.000000e+000
    outer loop
      vertex   -5.200000e+001 2.789185e+001 1.966365e+001
      vertex   -5.200000e+001 2.586315e+001 2.187759e+001
      vertex   -5.200000e+001 3.678299e+001 2.712419e+001
    endloop
  endfacet
  facet normal -1.000000e+000 0.000000e+000 0.000000e+000
    outer loop
      vertex   -5.200000e+001 3.678299e+001 2.712419e+001
      vertex   -5.200000e+001 3.505568e+001 2.959104e+001
      vertex   -5.200000e+001 4.672069e+001 3.286173e+001
    endloop
  endfacet
  facet normal -0.000000e+000 -0.000000e+000 -1.000000e+000
    outer loop
      vertex   -2.700000e+001 4.937787e+001 1.500000e+000
      vertex   -2.700000e+001 6.377870e+000 1.500000e+000
      vertex   -5.200000e+001 4.937787e+001 1.500000e+000
    endloop
  endfacet
  facet normal -0.000000e+000 -0.000000e+000 -1.000000e+000
    outer loop
      vertex   -5.200000e+001 4.937787e+001 1.500000e+000
      vertex   -2.700000e+001 6.377870e+000 1.500000e+000
      vertex   -5.200000e+001 6.377870e+000 1.500000e+000
    endloop
  endfacet
  facet normal 0.000000e+000 -1.000000e+000 0.000000e+000
    outer loop
      vertex   -5.200000e+001 6.377870e+000 4.500000e+000
      vertex   -5.200000e+001 6.377870e+000 1.500000e+000
      vertex   -2.700000e+001 6.377870e+000 4.500000e+000
    endloop
  endfacet
  facet normal 0.000000e+000 -1.000000e+000 -0.000000e+000
    outer loop
      vertex   -2.700000e+001 6.377870e+000 4.500000e+000
      vertex   -5.200000e+001 6.377870e+000 1.500000e+000
      vertex   -2.700000e+001 6.377870e+000 1.500000e+000
    endloop
  endfacet
  facet normal -0.000000e+000 0.000000e+000 1.000000e+000
    outer loop
      vertex   -5.200000e+001 1.224390e+001 4.500000e+000
      vertex   -5.200000e+001 6.377870e+000 4.500000e+000
      vertex   -2.700000e+001 1.224390e+001 4.500000e+000
    endloop
  endfacet
  facet normal -0.000000e+000 0.000000e+000 1.000000e+000
    outer loop
      vertex   -2.700000e+001 1.224390e+001 4.500000e+000
      vertex   -5.200000e+001 6.377870e+000 4.500000e+000
      vertex   -2.700000e+001 6.377870e+000 4.500000e+000
    endloop
  endfacet
  facet normal 0.000000e+000 -8.660254e-001 5.000000e-001
    outer loop
      vertex   -5.200000e+001 1.737787e+001 1.339230e+001
      vertex   -5.200000e+001 1.224390e+001 4.500000e+000
      vertex   -2.700000e+001 1.737787e+001 1.339230e+001
    endloop
  endfacet
  facet normal 0.000000e+000 -8.660254e-001 5.000000e-001
    outer loop
      vertex   -2.700000e+001 1.737787e+001 1.339230e+001
      vertex   -5.200000e+001 1.224390e+001 4.500000e+000
      vertex   -2.700000e+001 1.224390e+001 4.500000e+000
    endloop
  endfacet
  facet normal 0.000000e+000 -7.071068e-001 7.071068e-001
    outer loop
      vertex   -5.200000e+001 2.586315e+001 2.187759e+001
      vertex   -5.200000e+001 1.737787e+001 1.339230e+001
      vertex   -2.700000e+001 2.586315e+001 2.187759e+001
    endloop
  endfacet
  facet normal 0.000000e+000 -7.071068e-001 7.071068e-001
    outer loop
      vertex   -2.700000e+001 2.586315e+001 2.187759e+001
      vertex   -5.200000e+001 1.737787e+001 1.339230e+001
      vertex   -2.700000e+001 1.737787e+001 1.339230e+001
    endloop
  endfacet
  facet normal 0.000000e+000 -6.427876e-001 7.660444e-001
    outer loop
      vertex   -5.200000e+001 3.505568e+001 2.959104e+001
      vertex   -5.200000e+001 2.586315e+001 2.187759e+001
      vertex   -2.700000e+001 3.505568e+001 2.959104e+001
    endloop
  endfacet
  facet normal 0.000000e+000 -6.427876e-001 7.660444e-001
    outer loop
      vertex   -2.700000e+001 3.505568e+001 2.959104e+001
      vertex   -5.200000e+001 2.586315e+001 2.187759e+001
      vertex   -2.700000e+001 2.586315e+001 2.187759e+001
    endloop
  endfacet
  facet normal 0.000000e+000 -5.000000e-001 8.660254e-001
    outer loop
      vertex   -5.200000e+001 4.544799e+001 3.559104e+001
      vertex   -5.200000e+001 3.505568e+001 2.959104e+001
      vertex   -2.700000e+001 4.544799e+001 3.559104e+001
    endloop
  endfacet
  facet normal 0.000000e+000 -5.000000e-001 8.660254e-001
    outer loop
      vertex   -2.700000e+001 4.544799e+001 3.559104e+001
      vertex   -5.200000e+001 3.505568e+001 2.959104e+001
      vertex   -2.700000e+001 3.505568e+001 2.959104e+001
    endloop
  endfacet
  facet normal 0.000000e+000 -3.420201e-001 9.396926e-001
    outer loop
      vertex   -5.200000e+001 5.672430e+001 3.969528e+001
      vertex   -5.200000e+001 4.544799e+001 3.559104e+001
      vertex   -2.700000e+001 5.672430e+001 3.969528e+001
    endloop
  endfacet
  facet normal 0.000000e+000 -3.420201e-001 9.396926e-001
    outer loop
      vertex   -2.700000e+001 5.672430e+001 3.969528e+001
      vertex   -5.200000e+001 4.544799e+001 3.559104e+001
      vertex   -2.700000e+001 4.544799e+001 3.559104e+001
    endloop
  endfacet
  facet normal 0.000000e+000 9.396926e-001 3.420201e-001
    outer loop
      vertex   -5.200000e+001 5.775036e+001 3.687620e+001
      vertex   -5.200000e+001 5.672430e+001 3.969528e+001
      vertex   -2.700000e+001 5.775036e+001 3.687620e+001
    endloop
  endfacet
  facet normal -0.000000e+000 9.396926e-001 3.420201e-001
    outer loop
      vertex   -2.700000e+001 5.775036e+001 3.687620e+001
      vertex   -5.200000e+001 5.672430e+001 3.969528e+001
      vertex   -2.700000e+001 5.672430e+001 3.969528e+001
    endloop
  endfacet
  facet normal 0.000000e+000 3.420201e-001 -9.396926e-001
    outer loop
      vertex   -5.200000e+001 4.672069e+001 3.286173e+001
      vertex   -5.200000e+001 5.775036e+001 3.687620e+001
      vertex   -2.700000e+001 4.672069e+001 3.286173e+001
    endloop
  endfacet
  facet normal 0.000000e+000 3.420201e-001 -9.396926e-001
    outer loop
      vertex   -2.700000e+001 4.672069e+001 3.286173e+001
      vertex   -5.200000e+001 5.775036e+001 3.687620e+001
      vertex   -2.700000e+001 5.775036e+001 3.687620e+001
    endloop
  endfacet
  facet normal 0.000000e+000 5.000000e-001 -8.660254e-001
    outer loop
      vertex   -5.200000e+001 3.678299e+001 2.712419e+001
      vertex   -5.200000e+001 4.672069e+001 3.286173e+001
      vertex   -2.700000e+001 3.678299e+001 2.712419e+001
    endloop
  endfacet
  facet normal 0.000000e+000 5.000000e-001 -8.660254e-001
    outer loop
      vertex   -2.700000e+001 3.678299e+001 2.712419e+001
      vertex   -5.200000e+001 4.672069e+001 3.286173e+001
      vertex   -2.700000e+001 4.672069e+001 3.286173e+001
    endloop
  endfacet
  facet normal 0.000000e+000 6.427876e-001 -7.660444e-001
    outer loop
      vertex   -5.200000e+001 2.789185e+001 1.966365e+001
      vertex   -5.200000e+001 3.678299e+001 2.712419e+001
      vertex   -2.700000e+001 2.789185e+001 1.966365e+001
    endloop
  endfacet
  facet normal 0.000000e+000 6.427876e-001 -7.660444e-001
    outer loop
      vertex   -2.700000e+001 2.789185e+001 1.966365e+001
      vertex   -5.200000e+001 3.678299e+001 2.712419e+001
      vertex   -2.700000e+001 3.678299e+001 2.712419e+001
    endloop
  endfacet
  facet normal 0.000000e+000 7.071068e-001 -7.071068e-001
    outer loop
      vertex   -5.200000e+001 1.977847e+001 1.155026e+001
      vertex   -5.200000e+001 2.789185e+001 1.966365e+001
      vertex   -2.700000e+001 1.977847e+001 1.155026e+001
    endloop
  endfacet
  facet normal 0.000000e+000 7.071068e-001 -7.071068e-001
    outer loop
      vertex   -2.700000e+001 1.977847e+001 1.155026e+001
      vertex   -5.200000e+001 2.789185e+001 1.966365e+001
      vertex   -2.700000e+001 2.789185e+001 1.966365e+001
    endloop
  endfacet
  facet normal 0.000000e+000 8.660254e-001 -5.000000e-001
    outer loop
      vertex   -5.200000e+001 1.570800e+001 4.500000e+000
      vertex   -5.200000e+001 1.977847e+001 1.155026e+001
      vertex   -2.700000e+001 1.570800e+001 4.500000e+000
    endloop
  endfacet
  facet normal 0.000000e+000 8.660254e-001 -5.000000e-001
    outer loop
      vertex   -2.700000e+001 1.570800e+001 4.500000e+000
      vertex   -5.200000e+001 1.977847e+001 1.155026e+001
      vertex   -2.700000e+001 1.977847e+001 1.155026e+001
    endloop
  endfacet
  facet normal 1.000000e+000 0.000000e+000 0.000000e+000
    outer loop
      vertex   -2.700000e+001 1.977847e+001 1.155026e+001
      vertex   -2.700000e+001 1.737787e+001 1.339230e+001
      vertex   -2.700000e+001 1.570800e+001 4.500000e+000
    endloop
  endfacet
  facet normal 1.000000e+000 0.000000e+000 -0.000000e+000
    outer loop
      vertex   -2.700000e+001 1.977847e+001 1.155026e+001
      vertex   -2.700000e+001 2.789185e+001 1.966365e+001
      vertex   -2.700000e+001 1.737787e+001 1.339230e+001
    endloop
  endfacet
  facet normal 1.000000e+000 0.000000e+000 -0.000000e+000
    outer loop
      vertex   -2.700000e+001 1.737787e+001 1.339230e+001
      vertex   -2.700000e+001 2.789185e+001 1.966365e+001
      vertex   -2.700000e+001 2.586315e+001 2.187759e+001
    endloop
  endfacet
  facet normal 1.000000e+000 -0.000000e+000 0.000000e+000
    outer loop
      vertex   -2.700000e+001 2.586315e+001 2.187759e+001
      vertex   -2.700000e+001 2.789185e+001 1.966365e+001
      vertex   -2.700000e+001 3.678299e+001 2.712419e+001
    endloop
  endfacet
  facet normal 1.000000e+000 -0.000000e+000 0.000000e+000
    outer loop
      vertex   -2.700000e+001 3.505568e+001 2.959104e+001
      vertex   -2.700000e+001 3.678299e+001 2.712419e+001
      vertex   -2.700000e+001 4.672069e+001 3.286173e+001
    endloop
  endfacet
  facet normal 1.000000e+000 -0.000000e+000 0.000000e+000
    outer loop
      vertex   -2.700000e+001 4.544799e+001 3.559104e+001
      vertex   -2.700000e+001 4.672069e+001 3.286173e+001
      vertex   -2.700000e+001 5.775036e+001 3.687620e+001
    endloop
  endfacet
  facet normal 1.000000e+000 -0.000000e+000 0.000000e+000
    outer loop
      vertex   -2.700000e+001 5.672430e+001 3.969528e+001
      vertex   -2.700000e+001 4.544799e+001 3.559104e+001
      vertex   -2.700000e+001 5.775036e+001 3.687620e+001
    endloop
  endfacet
  facet normal 1.000000e+000 0.000000e+000 -0.000000e+000
    outer loop
      vertex   -2.700000e+001 2.586315e+001 2.187759e+001
      vertex   -2.700000e+001 3.678299e+001 2.712419e+001
      vertex   -2.700000e+001 3.505568e+001 2.959104e+001
    endloop
  endfacet
  facet normal 1.000000e+000 0.000000e+000 -0.000000e+000
    outer loop
      vertex   -2.700000e+001 3.505568e+001 2.959104e+001
      vertex   -2.700000e+001 4.672069e+001 3.286173e+001
      vertex   -2.700000e+001 4.544799e+001 3.559104e+001
    endloop
  endfacet
  facet normal 1.000000e+000 -0.000000e+000 0.000000e+000
    outer loop
      vertex   -2.700000e+001 1.737787e+001 1.339230e+001
      vertex   -2.700000e+001 1.224390e+001 4.500000e+000
      vertex   -2.700000e+001 1.570800e+001 4.500000e+000
    endloop
  endfacet
  facet normal 1.000000e+000 0.000000e+000 0.000000e+000
    outer loop
      vertex   -2.700000e+001 1.570800e+001 4.500000e+000
      vertex   -2.700000e+001 1.224390e+001 4.500000e+000
      vertex   -2.700000e+001 6.377870e+000 1.500000e+000
    endloop
  endfacet
  facet normal 1.000000e+000 0.000000e+000 0.000000e+000
    outer loop
      vertex   -2.700000e+001 4.937787e+001 1.500000e+000
      vertex   -2.700000e+001 1.570800e+001 4.500000e+000
      vertex   -2.700000e+001 6.377870e+000 1.500000e+000
    endloop
  endfacet
  facet normal 1.000000e+000 0.000000e+000 -0.000000e+000
    outer loop
      vertex   -2.700000e+001 4.937787e+001 1.500000e+000
      vertex   -2.700000e+001 4.937787e+001 4.500000e+000
      vertex   -2.700000e+001 1.570800e+001 4.500000e+000
    endloop
  endfacet
  facet normal 1.000000e+000 0.000000e+000 0.000000e+000
    outer loop
      vertex   -2.700000e+001 1.224390e+001 4.500000e+000
      vertex   -2.700000e+001 6.377870e+000 4.500000e+000
      vertex   -2.700000e+001 6.377870e+000 1.500000e+000
    endloop
  endfacet
endsolid
