solid ascii
  facet normal -7.071068e-001 7.071068e-001 0.000000e+000
    outer loop
      vertex   -1.000000e+002 1.880000e+002 1.500000e+000
      vertex   -1.000000e+002 1.880000e+002 -5.543232e-006
      vertex   -1.100000e+002 1.780000e+002 1.500000e+000
    endloop
  endfacet
  facet normal -7.071068e-001 7.071068e-001 0.000000e+000
    outer loop
      vertex   -1.100000e+002 1.780000e+002 1.500000e+000
      vertex   -1.000000e+002 1.880000e+002 -5.543232e-006
      vertex   -1.250000e+002 1.630000e+002 0.000000e+000
    endloop
  endfacet
  facet normal -7.071068e-001 7.071068e-001 0.000000e+000
    outer loop
      vertex   -1.200000e+002 1.680000e+002 1.500000e+000
      vertex   -1.250000e+002 1.630000e+002 0.000000e+000
      vertex   -1.300000e+002 1.580000e+002 1.500000e+000
    endloop
  endfacet
  facet normal -7.071068e-001 7.071068e-001 0.000000e+000
    outer loop
      vertex   -1.200000e+002 1.680000e+002 1.500000e+000
      vertex   -1.100000e+002 1.780000e+002 1.500000e+000
      vertex   -1.250000e+002 1.630000e+002 0.000000e+000
    endloop
  endfacet
  facet normal -7.071068e-001 7.071068e-001 0.000000e+000
    outer loop
      vertex   -1.300000e+002 1.580000e+002 1.500000e+000
      vertex   -1.250000e+002 1.630000e+002 0.000000e+000
      vertex   -1.400000e+002 1.480000e+002 1.500000e+000
    endloop
  endfacet
  facet normal -7.071068e-001 7.071068e-001 0.000000e+000
    outer loop
      vertex   -1.400000e+002 1.480000e+002 1.500000e+000
      vertex   -1.250000e+002 1.630000e+002 0.000000e+000
      vertex   -1.500000e+002 1.380000e+002 -4.053116e-006
    endloop
  endfacet
  facet normal -7.071068e-001 7.071068e-001 0.000000e+000
    outer loop
      vertex   -1.500000e+002 1.380000e+002 1.500000e+000
      vertex   -1.400000e+002 1.480000e+002 1.500000e+000
      vertex   -1.500000e+002 1.380000e+002 -4.053116e-006
    endloop
  endfacet
  facet normal -0.000000e+000 0.000000e+000 1.000000e+000
    outer loop
      vertex   -1.400000e+002 1.480000e+002 1.500000e+000
      vertex   -1.500000e+002 1.380000e+002 1.500000e+000
      vertex   -1.400000e+002 1.460000e+002 1.500000e+000
    endloop
  endfacet
  facet normal 2.220446e-016 -2.775558e-016 1.000000e+000
    outer loop
      vertex   -1.400000e+002 1.460000e+002 1.500000e+000
      vertex   -1.500000e+002 1.380000e+002 1.500000e+000
      vertex   -1.450000e+002 1.380000e+002 1.500000e+000
    endloop
  endfacet
  facet normal -5.551646e-016 5.551646e-016 1.000000e+000
    outer loop
      vertex   -1.350002e+002 1.460000e+002 1.500000e+000
      vertex   -1.450000e+002 1.380000e+002 1.500000e+000
      vertex   -1.450002e+002 1.360000e+002 1.500000e+000
    endloop
  endfacet
  facet normal 0.000000e+000 -1.387779e-016 1.000000e+000
    outer loop
      vertex   -1.350002e+002 1.460000e+002 1.500000e+000
      vertex   -1.400000e+002 1.460000e+002 1.500000e+000
      vertex   -1.450000e+002 1.380000e+002 1.500000e+000
    endloop
  endfacet
  facet normal -0.000000e+000 0.000000e+000 1.000000e+000
    outer loop
      vertex   -1.300000e+002 1.580000e+002 1.500000e+000
      vertex   -1.400000e+002 1.480000e+002 1.500000e+000
      vertex   -1.300000e+002 1.560000e+002 1.500000e+000
    endloop
  endfacet
  facet normal 2.220446e-016 -2.775558e-016 1.000000e+000
    outer loop
      vertex   -1.300000e+002 1.560000e+002 1.500000e+000
      vertex   -1.400000e+002 1.480000e+002 1.500000e+000
      vertex   -1.350000e+002 1.480000e+002 1.500000e+000
    endloop
  endfacet
  facet normal -5.551646e-016 5.551646e-016 1.000000e+000
    outer loop
      vertex   -1.250002e+002 1.560000e+002 1.500000e+000
      vertex   -1.350000e+002 1.480000e+002 1.500000e+000
      vertex   -1.350002e+002 1.460000e+002 1.500000e+000
    endloop
  endfacet
  facet normal 0.000000e+000 -1.387779e-016 1.000000e+000
    outer loop
      vertex   -1.250002e+002 1.560000e+002 1.500000e+000
      vertex   -1.300000e+002 1.560000e+002 1.500000e+000
      vertex   -1.350000e+002 1.480000e+002 1.500000e+000
    endloop
  endfacet
  facet normal -0.000000e+000 0.000000e+000 1.000000e+000
    outer loop
      vertex   -1.200000e+002 1.680000e+002 1.500000e+000
      vertex   -1.300000e+002 1.580000e+002 1.500000e+000
      vertex   -1.200000e+002 1.660000e+002 1.500000e+000
    endloop
  endfacet
  facet normal 2.220446e-016 -2.775558e-016 1.000000e+000
    outer loop
      vertex   -1.200000e+002 1.660000e+002 1.500000e+000
      vertex   -1.300000e+002 1.580000e+002 1.500000e+000
      vertex   -1.250000e+002 1.580000e+002 1.500000e+000
    endloop
  endfacet
  facet normal -5.551646e-016 5.551646e-016 1.000000e+000
    outer loop
      vertex   -1.150002e+002 1.660000e+002 1.500000e+000
      vertex   -1.250000e+002 1.580000e+002 1.500000e+000
      vertex   -1.250002e+002 1.560000e+002 1.500000e+000
    endloop
  endfacet
  facet normal 0.000000e+000 -1.387779e-016 1.000000e+000
    outer loop
      vertex   -1.150002e+002 1.660000e+002 1.500000e+000
      vertex   -1.200000e+002 1.660000e+002 1.500000e+000
      vertex   -1.250000e+002 1.580000e+002 1.500000e+000
    endloop
  endfacet
  facet normal -0.000000e+000 0.000000e+000 1.000000e+000
    outer loop
      vertex   -1.100000e+002 1.780000e+002 1.500000e+000
      vertex   -1.200000e+002 1.680000e+002 1.500000e+000
      vertex   -1.100000e+002 1.760000e+002 1.500000e+000
    endloop
  endfacet
  facet normal 2.220446e-016 -2.775558e-016 1.000000e+000
    outer loop
      vertex   -1.100000e+002 1.760000e+002 1.500000e+000
      vertex   -1.200000e+002 1.680000e+002 1.500000e+000
      vertex   -1.150000e+002 1.680000e+002 1.500000e+000
    endloop
  endfacet
  facet normal -5.551646e-016 5.551646e-016 1.000000e+000
    outer loop
      vertex   -1.050002e+002 1.760000e+002 1.500000e+000
      vertex   -1.150000e+002 1.680000e+002 1.500000e+000
      vertex   -1.150002e+002 1.660000e+002 1.500000e+000
    endloop
  endfacet
  facet normal 0.000000e+000 -1.387779e-016 1.000000e+000
    outer loop
      vertex   -1.050002e+002 1.760000e+002 1.500000e+000
      vertex   -1.100000e+002 1.760000e+002 1.500000e+000
      vertex   -1.150000e+002 1.680000e+002 1.500000e+000
    endloop
  endfacet
  facet normal 0.000000e+000 -0.000000e+000 1.000000e+000
    outer loop
      vertex   -1.050002e+002 1.760000e+002 1.500000e+000
      vertex   -9.500020e+001 1.860000e+002 1.500000e+000
      vertex   -1.050000e+002 1.780000e+002 1.500000e+000
    endloop
  endfacet
  facet normal 0.000000e+000 -0.000000e+000 1.000000e+000
    outer loop
      vertex   -1.050000e+002 1.780000e+002 1.500000e+000
      vertex   -9.500020e+001 1.860000e+002 1.500000e+000
      vertex   -1.000000e+002 1.860000e+002 1.500000e+000
    endloop
  endfacet
  facet normal 0.000000e+000 0.000000e+000 1.000000e+000
    outer loop
      vertex   -1.100000e+002 1.780000e+002 1.500000e+000
      vertex   -1.000000e+002 1.860000e+002 1.500000e+000
      vertex   -1.000000e+002 1.880000e+002 1.500000e+000
    endloop
  endfacet
  facet normal 0.000000e+000 0.000000e+000 1.000000e+000
    outer loop
      vertex   -1.100000e+002 1.780000e+002 1.500000e+000
      vertex   -1.050000e+002 1.780000e+002 1.500000e+000
      vertex   -1.000000e+002 1.860000e+002 1.500000e+000
    endloop
  endfacet
  facet normal 7.071068e-001 -7.071068e-001 9.021152e-005
    outer loop
      vertex   -1.450002e+002 1.360000e+002 1.500000e+000
      vertex   -1.450000e+002 1.360000e+002 -4.053116e-006
      vertex   -1.350002e+002 1.460000e+002 1.500000e+000
    endloop
  endfacet
  facet normal 7.071095e-001 -7.071041e-001 5.412717e-005
    outer loop
      vertex   -1.350002e+002 1.460000e+002 1.500000e+000
      vertex   -1.450000e+002 1.360000e+002 -4.053116e-006
      vertex   -1.200002e+002 1.610000e+002 0.000000e+000
    endloop
  endfacet
  facet normal 7.071068e-001 -7.071068e-001 -6.699061e-015
    outer loop
      vertex   -1.250002e+002 1.560000e+002 1.500000e+000
      vertex   -1.200002e+002 1.610000e+002 0.000000e+000
      vertex   -1.150002e+002 1.660000e+002 1.500000e+000
    endloop
  endfacet
  facet normal 7.071068e-001 -7.071068e-001 -1.339812e-014
    outer loop
      vertex   -1.250002e+002 1.560000e+002 1.500000e+000
      vertex   -1.350002e+002 1.460000e+002 1.500000e+000
      vertex   -1.200002e+002 1.610000e+002 0.000000e+000
    endloop
  endfacet
  facet normal 7.071068e-001 -7.071068e-001 -6.699061e-015
    outer loop
      vertex   -1.150002e+002 1.660000e+002 1.500000e+000
      vertex   -1.200002e+002 1.610000e+002 0.000000e+000
      vertex   -1.050002e+002 1.760000e+002 1.500000e+000
    endloop
  endfacet
  facet normal 7.071041e-001 -7.071095e-001 5.412675e-005
    outer loop
      vertex   -1.050002e+002 1.760000e+002 1.500000e+000
      vertex   -1.200002e+002 1.610000e+002 0.000000e+000
      vertex   -9.500000e+001 1.860000e+002 -5.543232e-006
    endloop
  endfacet
  facet normal 7.071068e-001 -7.071068e-001 9.021143e-005
    outer loop
      vertex   -9.500020e+001 1.860000e+002 1.500000e+000
      vertex   -1.050002e+002 1.760000e+002 1.500000e+000
      vertex   -9.500000e+001 1.860000e+002 -5.543232e-006
    endloop
  endfacet
  facet normal -0.000000e+000 -0.000000e+000 -1.000000e+000
    outer loop
      vertex   -9.500000e+001 1.880000e+002 -5.543232e-006
      vertex   -9.500000e+001 1.860000e+002 -5.543232e-006
      vertex   -1.000000e+002 1.880000e+002 -5.543232e-006
    endloop
  endfacet
  facet normal -6.335106e-008 -1.583777e-007 -1.000000e+000
    outer loop
      vertex   -1.000000e+002 1.880000e+002 -5.543232e-006
      vertex   -9.500000e+001 1.860000e+002 -5.543232e-006
      vertex   -1.200002e+002 1.610000e+002 0.000000e+000
    endloop
  endfacet
  facet normal 4.632293e-008 1.158021e-007 -1.000000e+000
    outer loop
      vertex   -1.250000e+002 1.630000e+002 0.000000e+000
      vertex   -1.200002e+002 1.610000e+002 0.000000e+000
      vertex   -1.450000e+002 1.360000e+002 -4.053116e-006
    endloop
  endfacet
  facet normal -0.000000e+000 -0.000000e+000 -1.000000e+000
    outer loop
      vertex   -1.500000e+002 1.380000e+002 -4.053116e-006
      vertex   -1.450000e+002 1.360000e+002 -4.053116e-006
      vertex   -1.500000e+002 1.360000e+002 -4.053116e-006
    endloop
  endfacet
  facet normal 4.632132e-008 1.158033e-007 -1.000000e+000
    outer loop
      vertex   -1.500000e+002 1.380000e+002 -4.053116e-006
      vertex   -1.250000e+002 1.630000e+002 0.000000e+000
      vertex   -1.450000e+002 1.360000e+002 -4.053116e-006
    endloop
  endfacet
  facet normal -6.335325e-008 -1.583760e-007 -1.000000e+000
    outer loop
      vertex   -1.000000e+002 1.880000e+002 -5.543232e-006
      vertex   -1.200002e+002 1.610000e+002 0.000000e+000
      vertex   -1.250000e+002 1.630000e+002 0.000000e+000
    endloop
  endfacet
  facet normal -1.000000e+000 0.000000e+000 0.000000e+000
    outer loop
      vertex   -1.100000e+002 1.780000e+002 1.500000e+000
      vertex   -1.100000e+002 1.760000e+002 1.500000e+000
      vertex   -1.100000e+002 1.780000e+002 7.000000e+000
    endloop
  endfacet
  facet normal -1.000000e+000 -0.000000e+000 0.000000e+000
    outer loop
      vertex   -1.100000e+002 1.780000e+002 7.000000e+000
      vertex   -1.100000e+002 1.760000e+002 1.500000e+000
      vertex   -1.100000e+002 1.760000e+002 1.000000e+001
    endloop
  endfacet
  facet normal -1.000000e+000 -0.000000e+000 0.000000e+000
    outer loop
      vertex   -1.100000e+002 1.980000e+002 1.000000e+001
      vertex   -1.100000e+002 1.780000e+002 7.000000e+000
      vertex   -1.100000e+002 1.760000e+002 1.000000e+001
    endloop
  endfacet
  facet normal -1.000000e+000 -0.000000e+000 -0.000000e+000
    outer loop
      vertex   -1.100000e+002 1.980000e+002 1.000000e+001
      vertex   -1.100000e+002 1.980000e+002 7.000000e+000
      vertex   -1.100000e+002 1.780000e+002 7.000000e+000
    endloop
  endfacet
  facet normal 0.000000e+000 -1.000000e+000 0.000000e+000
    outer loop
      vertex   -1.100000e+002 1.760000e+002 1.500000e+000
      vertex   -1.050002e+002 1.760000e+002 1.500000e+000
      vertex   -1.100000e+002 1.760000e+002 1.000000e+001
    endloop
  endfacet
  facet normal 0.000000e+000 -1.000000e+000 0.000000e+000
    outer loop
      vertex   -1.100000e+002 1.760000e+002 1.000000e+001
      vertex   -1.050002e+002 1.760000e+002 1.500000e+000
      vertex   -1.050000e+002 1.760000e+002 1.000000e+001
    endloop
  endfacet
  facet normal -1.000000e+000 0.000000e+000 0.000000e+000
    outer loop
      vertex   -1.200000e+002 1.680000e+002 1.500000e+000
      vertex   -1.200000e+002 1.660000e+002 1.500000e+000
      vertex   -1.200000e+002 1.680000e+002 1.200000e+001
    endloop
  endfacet
  facet normal -1.000000e+000 -0.000000e+000 0.000000e+000
    outer loop
      vertex   -1.200000e+002 1.680000e+002 1.200000e+001
      vertex   -1.200000e+002 1.660000e+002 1.500000e+000
      vertex   -1.200000e+002 1.660000e+002 1.500000e+001
    endloop
  endfacet
  facet normal -1.000000e+000 -0.000000e+000 0.000000e+000
    outer loop
      vertex   -1.200000e+002 1.980000e+002 1.500000e+001
      vertex   -1.200000e+002 1.680000e+002 1.200000e+001
      vertex   -1.200000e+002 1.660000e+002 1.500000e+001
    endloop
  endfacet
  facet normal -1.000000e+000 -0.000000e+000 -0.000000e+000
    outer loop
      vertex   -1.200000e+002 1.980000e+002 1.500000e+001
      vertex   -1.200000e+002 1.980000e+002 1.200000e+001
      vertex   -1.200000e+002 1.680000e+002 1.200000e+001
    endloop
  endfacet
  facet normal 0.000000e+000 -1.000000e+000 0.000000e+000
    outer loop
      vertex   -1.200000e+002 1.660000e+002 1.500000e+000
      vertex   -1.150002e+002 1.660000e+002 1.500000e+000
      vertex   -1.200000e+002 1.660000e+002 1.500000e+001
    endloop
  endfacet
  facet normal 0.000000e+000 -1.000000e+000 0.000000e+000
    outer loop
      vertex   -1.200000e+002 1.660000e+002 1.500000e+001
      vertex   -1.150002e+002 1.660000e+002 1.500000e+000
      vertex   -1.150000e+002 1.660000e+002 1.500000e+001
    endloop
  endfacet
  facet normal -1.000000e+000 0.000000e+000 0.000000e+000
    outer loop
      vertex   -1.300000e+002 1.580000e+002 1.500000e+000
      vertex   -1.300000e+002 1.560000e+002 1.500000e+000
      vertex   -1.300000e+002 1.580000e+002 1.700000e+001
    endloop
  endfacet
  facet normal -1.000000e+000 -0.000000e+000 0.000000e+000
    outer loop
      vertex   -1.300000e+002 1.580000e+002 1.700000e+001
      vertex   -1.300000e+002 1.560000e+002 1.500000e+000
      vertex   -1.300000e+002 1.560000e+002 2.000000e+001
    endloop
  endfacet
  facet normal -1.000000e+000 -0.000000e+000 0.000000e+000
    outer loop
      vertex   -1.300000e+002 1.980000e+002 2.000000e+001
      vertex   -1.300000e+002 1.580000e+002 1.700000e+001
      vertex   -1.300000e+002 1.560000e+002 2.000000e+001
    endloop
  endfacet
  facet normal -1.000000e+000 -0.000000e+000 -0.000000e+000
    outer loop
      vertex   -1.300000e+002 1.980000e+002 2.000000e+001
      vertex   -1.300000e+002 1.980000e+002 1.700000e+001
      vertex   -1.300000e+002 1.580000e+002 1.700000e+001
    endloop
  endfacet
  facet normal 0.000000e+000 -1.000000e+000 0.000000e+000
    outer loop
      vertex   -1.300000e+002 1.560000e+002 1.500000e+000
      vertex   -1.250002e+002 1.560000e+002 1.500000e+000
      vertex   -1.300000e+002 1.560000e+002 2.000000e+001
    endloop
  endfacet
  facet normal 0.000000e+000 -1.000000e+000 0.000000e+000
    outer loop
      vertex   -1.300000e+002 1.560000e+002 2.000000e+001
      vertex   -1.250002e+002 1.560000e+002 1.500000e+000
      vertex   -1.250000e+002 1.560000e+002 2.000000e+001
    endloop
  endfacet
  facet normal -1.000000e+000 0.000000e+000 0.000000e+000
    outer loop
      vertex   -1.400000e+002 1.480000e+002 1.500000e+000
      vertex   -1.400000e+002 1.460000e+002 1.500000e+000
      vertex   -1.400000e+002 1.480000e+002 2.200000e+001
    endloop
  endfacet
  facet normal -1.000000e+000 -0.000000e+000 0.000000e+000
    outer loop
      vertex   -1.400000e+002 1.480000e+002 2.200000e+001
      vertex   -1.400000e+002 1.460000e+002 1.500000e+000
      vertex   -1.400000e+002 1.460000e+002 2.500000e+001
    endloop
  endfacet
  facet normal -1.000000e+000 -0.000000e+000 0.000000e+000
    outer loop
      vertex   -1.400000e+002 1.980000e+002 2.500000e+001
      vertex   -1.400000e+002 1.480000e+002 2.200000e+001
      vertex   -1.400000e+002 1.460000e+002 2.500000e+001
    endloop
  endfacet
  facet normal -1.000000e+000 -0.000000e+000 -0.000000e+000
    outer loop
      vertex   -1.400000e+002 1.980000e+002 2.500000e+001
      vertex   -1.400000e+002 1.980000e+002 2.200000e+001
      vertex   -1.400000e+002 1.480000e+002 2.200000e+001
    endloop
  endfacet
  facet normal 0.000000e+000 -1.000000e+000 0.000000e+000
    outer loop
      vertex   -1.400000e+002 1.460000e+002 1.500000e+000
      vertex   -1.350002e+002 1.460000e+002 1.500000e+000
      vertex   -1.400000e+002 1.460000e+002 2.500000e+001
    endloop
  endfacet
  facet normal 0.000000e+000 -1.000000e+000 0.000000e+000
    outer loop
      vertex   -1.400000e+002 1.460000e+002 2.500000e+001
      vertex   -1.350002e+002 1.460000e+002 1.500000e+000
      vertex   -1.350000e+002 1.460000e+002 2.500000e+001
    endloop
  endfacet
  facet normal 0.000000e+000 1.000000e+000 -0.000000e+000
    outer loop
      vertex   -1.050000e+002 1.780000e+002 1.500000e+000
      vertex   -1.100000e+002 1.780000e+002 1.500000e+000
      vertex   -1.050000e+002 1.780000e+002 7.000000e+000
    endloop
  endfacet
  facet normal 0.000000e+000 1.000000e+000 -0.000000e+000
    outer loop
      vertex   -1.050000e+002 1.780000e+002 7.000000e+000
      vertex   -1.100000e+002 1.780000e+002 1.500000e+000
      vertex   -1.100000e+002 1.780000e+002 7.000000e+000
    endloop
  endfacet
  facet normal 0.000000e+000 1.000000e+000 -0.000000e+000
    outer loop
      vertex   -1.150000e+002 1.680000e+002 1.500000e+000
      vertex   -1.200000e+002 1.680000e+002 1.500000e+000
      vertex   -1.150000e+002 1.680000e+002 1.200000e+001
    endloop
  endfacet
  facet normal 0.000000e+000 1.000000e+000 -0.000000e+000
    outer loop
      vertex   -1.150000e+002 1.680000e+002 1.200000e+001
      vertex   -1.200000e+002 1.680000e+002 1.500000e+000
      vertex   -1.200000e+002 1.680000e+002 1.200000e+001
    endloop
  endfacet
  facet normal 0.000000e+000 1.000000e+000 -0.000000e+000
    outer loop
      vertex   -1.250000e+002 1.580000e+002 1.500000e+000
      vertex   -1.300000e+002 1.580000e+002 1.500000e+000
      vertex   -1.250000e+002 1.580000e+002 1.700000e+001
    endloop
  endfacet
  facet normal 0.000000e+000 1.000000e+000 -0.000000e+000
    outer loop
      vertex   -1.250000e+002 1.580000e+002 1.700000e+001
      vertex   -1.300000e+002 1.580000e+002 1.500000e+000
      vertex   -1.300000e+002 1.580000e+002 1.700000e+001
    endloop
  endfacet
  facet normal -1.869105e-006 -1.000000e+000 0.000000e+000
    outer loop
      vertex   -1.000000e+002 1.860000e+002 1.500000e+000
      vertex   -9.500020e+001 1.860000e+002 1.500000e+000
      vertex   -1.000000e+002 1.860000e+002 5.000000e+000
    endloop
  endfacet
  facet normal 0.000000e+000 -1.000000e+000 2.670043e-006
    outer loop
      vertex   -1.000000e+002 1.860000e+002 5.000000e+000
      vertex   -9.500020e+001 1.860000e+002 1.500000e+000
      vertex   -9.500000e+001 1.860000e+002 5.000000e+000
    endloop
  endfacet
  facet normal -0.000000e+000 1.000000e+000 0.000000e+000
    outer loop
      vertex   -1.000000e+002 1.880000e+002 2.000000e+000
      vertex   -9.500000e+001 1.880000e+002 2.000000e+000
      vertex   -1.000000e+002 1.880000e+002 1.500000e+000
    endloop
  endfacet
  facet normal -0.000000e+000 1.000000e+000 0.000000e+000
    outer loop
      vertex   -1.000000e+002 1.880000e+002 1.500000e+000
      vertex   -9.500000e+001 1.880000e+002 2.000000e+000
      vertex   -9.500000e+001 1.880000e+002 -5.543232e-006
    endloop
  endfacet
  facet normal -0.000000e+000 1.000000e+000 0.000000e+000
    outer loop
      vertex   -1.000000e+002 1.880000e+002 -5.543232e-006
      vertex   -1.000000e+002 1.880000e+002 1.500000e+000
      vertex   -9.500000e+001 1.880000e+002 -5.543232e-006
    endloop
  endfacet
  facet normal 0.000000e+000 -1.000000e+000 3.279000e-007
    outer loop
      vertex   -1.450000e+002 1.360000e+002 3.000000e+001
      vertex   -1.500000e+002 1.360000e+002 3.000000e+001
      vertex   -1.450002e+002 1.360000e+002 1.500000e+000
    endloop
  endfacet
  facet normal -1.869105e-006 -1.000000e+000 -0.000000e+000
    outer loop
      vertex   -1.450002e+002 1.360000e+002 1.500000e+000
      vertex   -1.500000e+002 1.360000e+002 3.000000e+001
      vertex   -1.500000e+002 1.360000e+002 -4.053116e-006
    endloop
  endfacet
  facet normal 0.000000e+000 -1.000000e+000 -6.230083e-006
    outer loop
      vertex   -1.450000e+002 1.360000e+002 -4.053116e-006
      vertex   -1.450002e+002 1.360000e+002 1.500000e+000
      vertex   -1.500000e+002 1.360000e+002 -4.053116e-006
    endloop
  endfacet
  facet normal 0.000000e+000 1.000000e+000 -0.000000e+000
    outer loop
      vertex   -1.450000e+002 1.380000e+002 1.500000e+000
      vertex   -1.500000e+002 1.380000e+002 1.500000e+000
      vertex   -1.450000e+002 1.380000e+002 2.700000e+001
    endloop
  endfacet
  facet normal 0.000000e+000 1.000000e+000 -0.000000e+000
    outer loop
      vertex   -1.450000e+002 1.380000e+002 2.700000e+001
      vertex   -1.500000e+002 1.380000e+002 1.500000e+000
      vertex   -1.500000e+002 1.380000e+002 2.700000e+001
    endloop
  endfacet
  facet normal 0.000000e+000 1.000000e+000 -0.000000e+000
    outer loop
      vertex   -1.350000e+002 1.480000e+002 1.500000e+000
      vertex   -1.400000e+002 1.480000e+002 1.500000e+000
      vertex   -1.350000e+002 1.480000e+002 2.200000e+001
    endloop
  endfacet
  facet normal 0.000000e+000 1.000000e+000 -0.000000e+000
    outer loop
      vertex   -1.350000e+002 1.480000e+002 2.200000e+001
      vertex   -1.400000e+002 1.480000e+002 1.500000e+000
      vertex   -1.400000e+002 1.480000e+002 2.200000e+001
    endloop
  endfacet
  facet normal -1.000000e+000 0.000000e+000 0.000000e+000
    outer loop
      vertex   -1.000000e+002 1.880000e+002 1.500000e+000
      vertex   -1.000000e+002 1.860000e+002 1.500000e+000
      vertex   -1.000000e+002 1.880000e+002 2.000000e+000
    endloop
  endfacet
  facet normal -1.000000e+000 -0.000000e+000 0.000000e+000
    outer loop
      vertex   -1.000000e+002 1.880000e+002 2.000000e+000
      vertex   -1.000000e+002 1.860000e+002 1.500000e+000
      vertex   -1.000000e+002 1.860000e+002 5.000000e+000
    endloop
  endfacet
  facet normal -1.000000e+000 -0.000000e+000 0.000000e+000
    outer loop
      vertex   -1.000000e+002 1.980000e+002 5.000000e+000
      vertex   -1.000000e+002 1.880000e+002 2.000000e+000
      vertex   -1.000000e+002 1.860000e+002 5.000000e+000
    endloop
  endfacet
  facet normal -1.000000e+000 -0.000000e+000 -0.000000e+000
    outer loop
      vertex   -1.000000e+002 1.980000e+002 5.000000e+000
      vertex   -1.000000e+002 1.980000e+002 2.000000e+000
      vertex   -1.000000e+002 1.880000e+002 2.000000e+000
    endloop
  endfacet
  facet normal 0.000000e+000 0.000000e+000 -1.000000e+000
    outer loop
      vertex   -9.500000e+001 1.880000e+002 2.000000e+000
      vertex   -1.000000e+002 1.880000e+002 2.000000e+000
      vertex   -9.500000e+001 1.980000e+002 2.000000e+000
    endloop
  endfacet
  facet normal -0.000000e+000 0.000000e+000 -1.000000e+000
    outer loop
      vertex   -9.500000e+001 1.980000e+002 2.000000e+000
      vertex   -1.000000e+002 1.880000e+002 2.000000e+000
      vertex   -1.000000e+002 1.980000e+002 2.000000e+000
    endloop
  endfacet
  facet normal 0.000000e+000 0.000000e+000 -1.000000e+000
    outer loop
      vertex   -1.250000e+002 1.580000e+002 1.700000e+001
      vertex   -1.300000e+002 1.580000e+002 1.700000e+001
      vertex   -1.250000e+002 1.980000e+002 1.700000e+001
    endloop
  endfacet
  facet normal -0.000000e+000 0.000000e+000 -1.000000e+000
    outer loop
      vertex   -1.250000e+002 1.980000e+002 1.700000e+001
      vertex   -1.300000e+002 1.580000e+002 1.700000e+001
      vertex   -1.300000e+002 1.980000e+002 1.700000e+001
    endloop
  endfacet
  facet normal 0.000000e+000 0.000000e+000 -1.000000e+000
    outer loop
      vertex   -1.050000e+002 1.780000e+002 7.000000e+000
      vertex   -1.100000e+002 1.780000e+002 7.000000e+000
      vertex   -1.050000e+002 1.980000e+002 7.000000e+000
    endloop
  endfacet
  facet normal -0.000000e+000 0.000000e+000 -1.000000e+000
    outer loop
      vertex   -1.050000e+002 1.980000e+002 7.000000e+000
      vertex   -1.100000e+002 1.780000e+002 7.000000e+000
      vertex   -1.100000e+002 1.980000e+002 7.000000e+000
    endloop
  endfacet
  facet normal 0.000000e+000 0.000000e+000 -1.000000e+000
    outer loop
      vertex   -1.150000e+002 1.680000e+002 1.200000e+001
      vertex   -1.200000e+002 1.680000e+002 1.200000e+001
      vertex   -1.150000e+002 1.980000e+002 1.200000e+001
    endloop
  endfacet
  facet normal -0.000000e+000 0.000000e+000 -1.000000e+000
    outer loop
      vertex   -1.150000e+002 1.980000e+002 1.200000e+001
      vertex   -1.200000e+002 1.680000e+002 1.200000e+001
      vertex   -1.200000e+002 1.980000e+002 1.200000e+001
    endloop
  endfacet
  facet normal 1.000000e+000 -9.568403e-005 0.000000e+000
    outer loop
      vertex   -1.050000e+002 1.780000e+002 1.500000e+000
      vertex   -1.050000e+002 1.780000e+002 7.000000e+000
      vertex   -1.050002e+002 1.760000e+002 1.500000e+000
    endloop
  endfacet
  facet normal 1.000000e+000 -3.377083e-005 -2.251389e-005
    outer loop
      vertex   -1.050002e+002 1.760000e+002 1.500000e+000
      vertex   -1.050000e+002 1.780000e+002 7.000000e+000
      vertex   -1.050000e+002 1.760000e+002 1.000000e+001
    endloop
  endfacet
  facet normal 1.000000e+000 -0.000000e+000 0.000000e+000
    outer loop
      vertex   -1.050000e+002 1.760000e+002 1.000000e+001
      vertex   -1.050000e+002 1.780000e+002 7.000000e+000
      vertex   -1.050000e+002 1.980000e+002 7.000000e+000
    endloop
  endfacet
  facet normal 1.000000e+000 0.000000e+000 0.000000e+000
    outer loop
      vertex   -1.050000e+002 2.000000e+002 1.000000e+001
      vertex   -1.050000e+002 1.980000e+002 7.000000e+000
      vertex   -1.050000e+002 2.000000e+002 5.000000e+000
    endloop
  endfacet
  facet normal 1.000000e+000 0.000000e+000 0.000000e+000
    outer loop
      vertex   -1.050000e+002 2.000000e+002 1.000000e+001
      vertex   -1.050000e+002 1.760000e+002 1.000000e+001
      vertex   -1.050000e+002 1.980000e+002 7.000000e+000
    endloop
  endfacet
  facet normal 1.000000e+000 -0.000000e+000 0.000000e+000
    outer loop
      vertex   -1.050000e+002 1.980000e+002 7.000000e+000
      vertex   -1.050000e+002 1.980000e+002 5.000000e+000
      vertex   -1.050000e+002 2.000000e+002 5.000000e+000
    endloop
  endfacet
  facet normal 0.000000e+000 -0.000000e+000 1.000000e+000
    outer loop
      vertex   -1.100000e+002 1.760000e+002 1.000000e+001
      vertex   -1.050000e+002 1.760000e+002 1.000000e+001
      vertex   -1.100000e+002 1.980000e+002 1.000000e+001
    endloop
  endfacet
  facet normal -0.000000e+000 0.000000e+000 1.000000e+000
    outer loop
      vertex   -1.100000e+002 1.980000e+002 1.000000e+001
      vertex   -1.050000e+002 1.760000e+002 1.000000e+001
      vertex   -1.050000e+002 2.000000e+002 1.000000e+001
    endloop
  endfacet
  facet normal -0.000000e+000 0.000000e+000 1.000000e+000
    outer loop
      vertex   -1.150000e+002 2.000000e+002 1.000000e+001
      vertex   -1.100000e+002 1.980000e+002 1.000000e+001
      vertex   -1.050000e+002 2.000000e+002 1.000000e+001
    endloop
  endfacet
  facet normal -0.000000e+000 0.000000e+000 1.000000e+000
    outer loop
      vertex   -1.150000e+002 2.000000e+002 1.000000e+001
      vertex   -1.150000e+002 1.980000e+002 1.000000e+001
      vertex   -1.100000e+002 1.980000e+002 1.000000e+001
    endloop
  endfacet
  facet normal 1.000000e+000 -9.568403e-005 0.000000e+000
    outer loop
      vertex   -1.150000e+002 1.680000e+002 1.500000e+000
      vertex   -1.150000e+002 1.680000e+002 1.200000e+001
      vertex   -1.150002e+002 1.660000e+002 1.500000e+000
    endloop
  endfacet
  facet normal 1.000000e+000 -2.126312e-005 -1.417541e-005
    outer loop
      vertex   -1.150002e+002 1.660000e+002 1.500000e+000
      vertex   -1.150000e+002 1.680000e+002 1.200000e+001
      vertex   -1.150000e+002 1.660000e+002 1.500000e+001
    endloop
  endfacet
  facet normal 1.000000e+000 -0.000000e+000 0.000000e+000
    outer loop
      vertex   -1.150000e+002 1.660000e+002 1.500000e+001
      vertex   -1.150000e+002 1.680000e+002 1.200000e+001
      vertex   -1.150000e+002 1.980000e+002 1.200000e+001
    endloop
  endfacet
  facet normal 1.000000e+000 0.000000e+000 0.000000e+000
    outer loop
      vertex   -1.150000e+002 2.000000e+002 1.500000e+001
      vertex   -1.150000e+002 1.980000e+002 1.200000e+001
      vertex   -1.150000e+002 2.000000e+002 1.000000e+001
    endloop
  endfacet
  facet normal 1.000000e+000 0.000000e+000 0.000000e+000
    outer loop
      vertex   -1.150000e+002 2.000000e+002 1.500000e+001
      vertex   -1.150000e+002 1.660000e+002 1.500000e+001
      vertex   -1.150000e+002 1.980000e+002 1.200000e+001
    endloop
  endfacet
  facet normal 1.000000e+000 -0.000000e+000 0.000000e+000
    outer loop
      vertex   -1.150000e+002 1.980000e+002 1.200000e+001
      vertex   -1.150000e+002 1.980000e+002 1.000000e+001
      vertex   -1.150000e+002 2.000000e+002 1.000000e+001
    endloop
  endfacet
  facet normal 0.000000e+000 -0.000000e+000 1.000000e+000
    outer loop
      vertex   -1.200000e+002 1.660000e+002 1.500000e+001
      vertex   -1.150000e+002 1.660000e+002 1.500000e+001
      vertex   -1.200000e+002 1.980000e+002 1.500000e+001
    endloop
  endfacet
  facet normal -0.000000e+000 0.000000e+000 1.000000e+000
    outer loop
      vertex   -1.200000e+002 1.980000e+002 1.500000e+001
      vertex   -1.150000e+002 1.660000e+002 1.500000e+001
      vertex   -1.150000e+002 2.000000e+002 1.500000e+001
    endloop
  endfacet
  facet normal -0.000000e+000 0.000000e+000 1.000000e+000
    outer loop
      vertex   -1.250000e+002 2.000000e+002 1.500000e+001
      vertex   -1.200000e+002 1.980000e+002 1.500000e+001
      vertex   -1.150000e+002 2.000000e+002 1.500000e+001
    endloop
  endfacet
  facet normal -0.000000e+000 0.000000e+000 1.000000e+000
    outer loop
      vertex   -1.250000e+002 2.000000e+002 1.500000e+001
      vertex   -1.250000e+002 1.980000e+002 1.500000e+001
      vertex   -1.200000e+002 1.980000e+002 1.500000e+001
    endloop
  endfacet
  facet normal 1.000000e+000 -9.568403e-005 0.000000e+000
    outer loop
      vertex   -1.250000e+002 1.580000e+002 1.500000e+000
      vertex   -1.250000e+002 1.580000e+002 1.700000e+001
      vertex   -1.250002e+002 1.560000e+002 1.500000e+000
    endloop
  endfacet
  facet normal 1.000000e+000 -1.551633e-005 -1.034422e-005
    outer loop
      vertex   -1.250002e+002 1.560000e+002 1.500000e+000
      vertex   -1.250000e+002 1.580000e+002 1.700000e+001
      vertex   -1.250000e+002 1.560000e+002 2.000000e+001
    endloop
  endfacet
  facet normal 1.000000e+000 -0.000000e+000 0.000000e+000
    outer loop
      vertex   -1.250000e+002 1.560000e+002 2.000000e+001
      vertex   -1.250000e+002 1.580000e+002 1.700000e+001
      vertex   -1.250000e+002 1.980000e+002 1.700000e+001
    endloop
  endfacet
  facet normal 1.000000e+000 0.000000e+000 0.000000e+000
    outer loop
      vertex   -1.250000e+002 2.000000e+002 2.000000e+001
      vertex   -1.250000e+002 1.980000e+002 1.700000e+001
      vertex   -1.250000e+002 2.000000e+002 1.500000e+001
    endloop
  endfacet
  facet normal 1.000000e+000 0.000000e+000 0.000000e+000
    outer loop
      vertex   -1.250000e+002 2.000000e+002 2.000000e+001
      vertex   -1.250000e+002 1.560000e+002 2.000000e+001
      vertex   -1.250000e+002 1.980000e+002 1.700000e+001
    endloop
  endfacet
  facet normal 1.000000e+000 -0.000000e+000 0.000000e+000
    outer loop
      vertex   -1.250000e+002 1.980000e+002 1.700000e+001
      vertex   -1.250000e+002 1.980000e+002 1.500000e+001
      vertex   -1.250000e+002 2.000000e+002 1.500000e+001
    endloop
  endfacet
  facet normal 0.000000e+000 -0.000000e+000 1.000000e+000
    outer loop
      vertex   -1.300000e+002 1.560000e+002 2.000000e+001
      vertex   -1.250000e+002 1.560000e+002 2.000000e+001
      vertex   -1.300000e+002 1.980000e+002 2.000000e+001
    endloop
  endfacet
  facet normal -0.000000e+000 0.000000e+000 1.000000e+000
    outer loop
      vertex   -1.300000e+002 1.980000e+002 2.000000e+001
      vertex   -1.250000e+002 1.560000e+002 2.000000e+001
      vertex   -1.250000e+002 2.000000e+002 2.000000e+001
    endloop
  endfacet
  facet normal -0.000000e+000 0.000000e+000 1.000000e+000
    outer loop
      vertex   -1.350000e+002 2.000000e+002 2.000000e+001
      vertex   -1.300000e+002 1.980000e+002 2.000000e+001
      vertex   -1.250000e+002 2.000000e+002 2.000000e+001
    endloop
  endfacet
  facet normal -0.000000e+000 0.000000e+000 1.000000e+000
    outer loop
      vertex   -1.350000e+002 2.000000e+002 2.000000e+001
      vertex   -1.350000e+002 1.980000e+002 2.000000e+001
      vertex   -1.300000e+002 1.980000e+002 2.000000e+001
    endloop
  endfacet
  facet normal 0.000000e+000 -0.000000e+000 -1.000000e+000
    outer loop
      vertex   -1.400000e+002 1.980000e+002 2.200000e+001
      vertex   -1.350000e+002 1.980000e+002 2.200000e+001
      vertex   -1.400000e+002 1.480000e+002 2.200000e+001
    endloop
  endfacet
  facet normal 0.000000e+000 0.000000e+000 -1.000000e+000
    outer loop
      vertex   -1.400000e+002 1.480000e+002 2.200000e+001
      vertex   -1.350000e+002 1.980000e+002 2.200000e+001
      vertex   -1.350000e+002 1.480000e+002 2.200000e+001
    endloop
  endfacet
  facet normal 1.000000e+000 -9.568403e-005 0.000000e+000
    outer loop
      vertex   -1.350000e+002 1.480000e+002 1.500000e+000
      vertex   -1.350000e+002 1.480000e+002 2.200000e+001
      vertex   -1.350002e+002 1.460000e+002 1.500000e+000
    endloop
  endfacet
  facet normal 1.000000e+000 -1.221498e-005 -8.143322e-006
    outer loop
      vertex   -1.350002e+002 1.460000e+002 1.500000e+000
      vertex   -1.350000e+002 1.480000e+002 2.200000e+001
      vertex   -1.350000e+002 1.460000e+002 2.500000e+001
    endloop
  endfacet
  facet normal 1.000000e+000 -0.000000e+000 0.000000e+000
    outer loop
      vertex   -1.350000e+002 1.460000e+002 2.500000e+001
      vertex   -1.350000e+002 1.480000e+002 2.200000e+001
      vertex   -1.350000e+002 1.980000e+002 2.200000e+001
    endloop
  endfacet
  facet normal 1.000000e+000 0.000000e+000 0.000000e+000
    outer loop
      vertex   -1.350000e+002 2.000000e+002 2.500000e+001
      vertex   -1.350000e+002 1.980000e+002 2.200000e+001
      vertex   -1.350000e+002 2.000000e+002 2.000000e+001
    endloop
  endfacet
  facet normal 1.000000e+000 0.000000e+000 0.000000e+000
    outer loop
      vertex   -1.350000e+002 2.000000e+002 2.500000e+001
      vertex   -1.350000e+002 1.460000e+002 2.500000e+001
      vertex   -1.350000e+002 1.980000e+002 2.200000e+001
    endloop
  endfacet
  facet normal 1.000000e+000 -0.000000e+000 0.000000e+000
    outer loop
      vertex   -1.350000e+002 1.980000e+002 2.200000e+001
      vertex   -1.350000e+002 1.980000e+002 2.000000e+001
      vertex   -1.350000e+002 2.000000e+002 2.000000e+001
    endloop
  endfacet
  facet normal 0.000000e+000 -0.000000e+000 1.000000e+000
    outer loop
      vertex   -1.400000e+002 1.460000e+002 2.500000e+001
      vertex   -1.350000e+002 1.460000e+002 2.500000e+001
      vertex   -1.400000e+002 1.980000e+002 2.500000e+001
    endloop
  endfacet
  facet normal -0.000000e+000 0.000000e+000 1.000000e+000
    outer loop
      vertex   -1.400000e+002 1.980000e+002 2.500000e+001
      vertex   -1.350000e+002 1.460000e+002 2.500000e+001
      vertex   -1.350000e+002 2.000000e+002 2.500000e+001
    endloop
  endfacet
  facet normal -0.000000e+000 0.000000e+000 1.000000e+000
    outer loop
      vertex   -1.450000e+002 2.000000e+002 2.500000e+001
      vertex   -1.400000e+002 1.980000e+002 2.500000e+001
      vertex   -1.350000e+002 2.000000e+002 2.500000e+001
    endloop
  endfacet
  facet normal -0.000000e+000 0.000000e+000 1.000000e+000
    outer loop
      vertex   -1.450000e+002 2.000000e+002 2.500000e+001
      vertex   -1.450000e+002 1.980000e+002 2.500000e+001
      vertex   -1.400000e+002 1.980000e+002 2.500000e+001
    endloop
  endfacet
  facet normal 0.000000e+000 -0.000000e+000 -1.000000e+000
    outer loop
      vertex   -1.500000e+002 1.980000e+002 2.700000e+001
      vertex   -1.450000e+002 1.980000e+002 2.700000e+001
      vertex   -1.500000e+002 1.680000e+002 2.700000e+001
    endloop
  endfacet
  facet normal 0.000000e+000 0.000000e+000 -1.000000e+000
    outer loop
      vertex   -1.500000e+002 1.680000e+002 2.700000e+001
      vertex   -1.450000e+002 1.980000e+002 2.700000e+001
      vertex   -1.450000e+002 1.680000e+002 2.700000e+001
    endloop
  endfacet
  facet normal 0.000000e+000 0.000000e+000 -1.000000e+000
    outer loop
      vertex   -1.500000e+002 1.380000e+002 2.700000e+001
      vertex   -1.450000e+002 1.680000e+002 2.700000e+001
      vertex   -1.450000e+002 1.380000e+002 2.700000e+001
    endloop
  endfacet
  facet normal 0.000000e+000 0.000000e+000 -1.000000e+000
    outer loop
      vertex   -1.500000e+002 1.380000e+002 2.700000e+001
      vertex   -1.500000e+002 1.680000e+002 2.700000e+001
      vertex   -1.450000e+002 1.680000e+002 2.700000e+001
    endloop
  endfacet
  facet normal 0.000000e+000 0.000000e+000 -1.000000e+000
    outer loop
      vertex   -1.500000e+002 1.980000e+002 -3.576279e-006
      vertex   -1.450000e+002 2.000000e+002 -3.576279e-006
      vertex   -1.450000e+002 1.980000e+002 -3.576279e-006
    endloop
  endfacet
  facet normal 0.000000e+000 0.000000e+000 -1.000000e+000
    outer loop
      vertex   -1.500000e+002 1.980000e+002 -3.576279e-006
      vertex   -1.500000e+002 2.000000e+002 -3.576279e-006
      vertex   -1.450000e+002 2.000000e+002 -3.576279e-006
    endloop
  endfacet
  facet normal 2.861023e-007 0.000000e+000 -1.000000e+000
    outer loop
      vertex   -1.450000e+002 2.000000e+002 -3.576279e-006
      vertex   -1.350000e+002 2.000000e+002 -7.152557e-007
      vertex   -1.450000e+002 1.980000e+002 -3.576279e-006
    endloop
  endfacet
  facet normal 2.861023e-007 0.000000e+000 -1.000000e+000
    outer loop
      vertex   -1.450000e+002 1.980000e+002 -3.576279e-006
      vertex   -1.350000e+002 2.000000e+002 -7.152557e-007
      vertex   -1.350000e+002 1.980000e+002 -7.152557e-007
    endloop
  endfacet
  facet normal 4.768372e-008 0.000000e+000 -1.000000e+000
    outer loop
      vertex   -1.350000e+002 1.980000e+002 -7.152557e-007
      vertex   -1.350000e+002 2.000000e+002 -7.152557e-007
      vertex   -1.250000e+002 2.000000e+002 -2.384186e-007
    endloop
  endfacet
  facet normal 4.768372e-008 0.000000e+000 -1.000000e+000
    outer loop
      vertex   -1.250000e+002 1.980000e+002 -2.384186e-007
      vertex   -1.250000e+002 2.000000e+002 -2.384186e-007
      vertex   -1.150000e+002 2.000000e+002 2.384186e-007
    endloop
  endfacet
  facet normal -1.192093e-008 0.000000e+000 -1.000000e+000
    outer loop
      vertex   -1.150000e+002 1.980000e+002 2.384186e-007
      vertex   -1.150000e+002 2.000000e+002 2.384186e-007
      vertex   -9.500000e+001 2.000000e+002 0.000000e+000
    endloop
  endfacet
  facet normal -1.192093e-008 0.000000e+000 -1.000000e+000
    outer loop
      vertex   -9.500000e+001 1.980000e+002 0.000000e+000
      vertex   -1.150000e+002 1.980000e+002 2.384186e-007
      vertex   -9.500000e+001 2.000000e+002 0.000000e+000
    endloop
  endfacet
  facet normal 4.768372e-008 0.000000e+000 -1.000000e+000
    outer loop
      vertex   -1.350000e+002 1.980000e+002 -7.152557e-007
      vertex   -1.250000e+002 2.000000e+002 -2.384186e-007
      vertex   -1.250000e+002 1.980000e+002 -2.384186e-007
    endloop
  endfacet
  facet normal 4.768372e-008 0.000000e+000 -1.000000e+000
    outer loop
      vertex   -1.250000e+002 1.980000e+002 -2.384186e-007
      vertex   -1.150000e+002 2.000000e+002 2.384186e-007
      vertex   -1.150000e+002 1.980000e+002 2.384186e-007
    endloop
  endfacet
  facet normal 1.000000e+000 -1.003561e-004 0.000000e+000
    outer loop
      vertex   -1.450000e+002 1.380000e+002 1.500000e+000
      vertex   -1.450000e+002 1.380000e+002 2.700000e+001
      vertex   -1.450002e+002 1.360000e+002 1.500000e+000
    endloop
  endfacet
  facet normal 1.000000e+000 -1.056385e-005 -7.042565e-006
    outer loop
      vertex   -1.450002e+002 1.360000e+002 1.500000e+000
      vertex   -1.450000e+002 1.380000e+002 2.700000e+001
      vertex   -1.450000e+002 1.360000e+002 3.000000e+001
    endloop
  endfacet
  facet normal 1.000000e+000 -0.000000e+000 0.000000e+000
    outer loop
      vertex   -1.450000e+002 1.360000e+002 3.000000e+001
      vertex   -1.450000e+002 1.380000e+002 2.700000e+001
      vertex   -1.450000e+002 1.680000e+002 3.000000e+001
    endloop
  endfacet
  facet normal 1.000000e+000 -0.000000e+000 0.000000e+000
    outer loop
      vertex   -1.450000e+002 1.680000e+002 3.000000e+001
      vertex   -1.450000e+002 1.380000e+002 2.700000e+001
      vertex   -1.450000e+002 1.680000e+002 2.700000e+001
    endloop
  endfacet
  facet normal 1.000000e+000 0.000000e+000 0.000000e+000
    outer loop
      vertex   -1.450000e+002 1.980000e+002 2.700000e+001
      vertex   -1.450000e+002 1.680000e+002 3.000000e+001
      vertex   -1.450000e+002 1.680000e+002 2.700000e+001
    endloop
  endfacet
  facet normal 1.000000e+000 0.000000e+000 -0.000000e+000
    outer loop
      vertex   -1.450000e+002 1.980000e+002 2.700000e+001
      vertex   -1.450000e+002 2.000000e+002 3.000000e+001
      vertex   -1.450000e+002 1.680000e+002 3.000000e+001
    endloop
  endfacet
  facet normal 1.000000e+000 -0.000000e+000 0.000000e+000
    outer loop
      vertex   -1.450000e+002 1.980000e+002 2.700000e+001
      vertex   -1.450000e+002 2.000000e+002 2.500000e+001
      vertex   -1.450000e+002 2.000000e+002 3.000000e+001
    endloop
  endfacet
  facet normal 1.000000e+000 -0.000000e+000 0.000000e+000
    outer loop
      vertex   -1.450000e+002 1.980000e+002 2.700000e+001
      vertex   -1.450000e+002 1.980000e+002 2.500000e+001
      vertex   -1.450000e+002 2.000000e+002 2.500000e+001
    endloop
  endfacet
  facet normal 0.000000e+000 -0.000000e+000 1.000000e+000
    outer loop
      vertex   -1.500000e+002 1.360000e+002 3.000000e+001
      vertex   -1.450000e+002 1.360000e+002 3.000000e+001
      vertex   -1.500000e+002 1.680000e+002 3.000000e+001
    endloop
  endfacet
  facet normal -0.000000e+000 0.000000e+000 1.000000e+000
    outer loop
      vertex   -1.500000e+002 1.680000e+002 3.000000e+001
      vertex   -1.450000e+002 1.360000e+002 3.000000e+001
      vertex   -1.450000e+002 1.680000e+002 3.000000e+001
    endloop
  endfacet
  facet normal -0.000000e+000 0.000000e+000 1.000000e+000
    outer loop
      vertex   -1.500000e+002 2.000000e+002 3.000000e+001
      vertex   -1.450000e+002 1.680000e+002 3.000000e+001
      vertex   -1.450000e+002 2.000000e+002 3.000000e+001
    endloop
  endfacet
  facet normal -0.000000e+000 0.000000e+000 1.000000e+000
    outer loop
      vertex   -1.500000e+002 2.000000e+002 3.000000e+001
      vertex   -1.500000e+002 1.680000e+002 3.000000e+001
      vertex   -1.450000e+002 1.680000e+002 3.000000e+001
    endloop
  endfacet
  facet normal -1.000000e+000 0.000000e+000 0.000000e+000
    outer loop
      vertex   -1.500000e+002 1.360000e+002 -4.053116e-006
      vertex   -1.500000e+002 1.360000e+002 3.000000e+001
      vertex   -1.500000e+002 1.380000e+002 2.700000e+001
    endloop
  endfacet
  facet normal -1.000000e+000 -0.000000e+000 0.000000e+000
    outer loop
      vertex   -1.500000e+002 1.380000e+002 1.500000e+000
      vertex   -1.500000e+002 1.360000e+002 -4.053116e-006
      vertex   -1.500000e+002 1.380000e+002 2.700000e+001
    endloop
  endfacet
  facet normal -1.000000e+000 -0.000000e+000 -0.000000e+000
    outer loop
      vertex   -1.500000e+002 1.380000e+002 1.500000e+000
      vertex   -1.500000e+002 1.380000e+002 -4.053116e-006
      vertex   -1.500000e+002 1.360000e+002 -4.053116e-006
    endloop
  endfacet
  facet normal -1.000000e+000 -0.000000e+000 0.000000e+000
    outer loop
      vertex   -1.500000e+002 2.000000e+002 3.000000e+001
      vertex   -1.500000e+002 1.980000e+002 2.700000e+001
      vertex   -1.500000e+002 1.680000e+002 3.000000e+001
    endloop
  endfacet
  facet normal -1.000000e+000 -0.000000e+000 -0.000000e+000
    outer loop
      vertex   -1.500000e+002 2.000000e+002 3.000000e+001
      vertex   -1.500000e+002 2.000000e+002 -3.576279e-006
      vertex   -1.500000e+002 1.980000e+002 2.700000e+001
    endloop
  endfacet
  facet normal -1.000000e+000 -0.000000e+000 -0.000000e+000
    outer loop
      vertex   -1.500000e+002 1.980000e+002 2.700000e+001
      vertex   -1.500000e+002 2.000000e+002 -3.576279e-006
      vertex   -1.500000e+002 1.980000e+002 -3.576279e-006
    endloop
  endfacet
  facet normal -1.000000e+000 0.000000e+000 0.000000e+000
    outer loop
      vertex   -1.500000e+002 1.980000e+002 2.700000e+001
      vertex   -1.500000e+002 1.680000e+002 2.700000e+001
      vertex   -1.500000e+002 1.680000e+002 3.000000e+001
    endloop
  endfacet
  facet normal -1.000000e+000 -0.000000e+000 -0.000000e+000
    outer loop
      vertex   -1.500000e+002 1.680000e+002 3.000000e+001
      vertex   -1.500000e+002 1.680000e+002 2.700000e+001
      vertex   -1.500000e+002 1.380000e+002 2.700000e+001
    endloop
  endfacet
  facet normal -1.000000e+000 0.000000e+000 -0.000000e+000
    outer loop
      vertex   -1.500000e+002 1.360000e+002 3.000000e+001
      vertex   -1.500000e+002 1.680000e+002 3.000000e+001
      vertex   -1.500000e+002 1.380000e+002 2.700000e+001
    endloop
  endfacet
  facet normal 0.000000e+000 1.000000e+000 0.000000e+000
    outer loop
      vertex   -1.500000e+002 2.000000e+002 3.000000e+001
      vertex   -1.450000e+002 2.000000e+002 2.500000e+001
      vertex   -1.500000e+002 2.000000e+002 -3.576279e-006
    endloop
  endfacet
  facet normal -0.000000e+000 1.000000e+000 0.000000e+000
    outer loop
      vertex   -1.500000e+002 2.000000e+002 3.000000e+001
      vertex   -1.450000e+002 2.000000e+002 3.000000e+001
      vertex   -1.450000e+002 2.000000e+002 2.500000e+001
    endloop
  endfacet
  facet normal 0.000000e+000 1.000000e+000 0.000000e+000
    outer loop
      vertex   -1.350000e+002 2.000000e+002 2.500000e+001
      vertex   -1.350000e+002 2.000000e+002 2.000000e+001
      vertex   -1.450000e+002 2.000000e+002 2.500000e+001
    endloop
  endfacet
  facet normal 0.000000e+000 1.000000e+000 0.000000e+000
    outer loop
      vertex   -1.450000e+002 2.000000e+002 2.500000e+001
      vertex   -1.350000e+002 2.000000e+002 2.000000e+001
      vertex   -1.500000e+002 2.000000e+002 -3.576279e-006
    endloop
  endfacet
  facet normal -0.000000e+000 1.000000e+000 0.000000e+000
    outer loop
      vertex   -1.500000e+002 2.000000e+002 -3.576279e-006
      vertex   -1.350000e+002 2.000000e+002 2.000000e+001
      vertex   -1.450000e+002 2.000000e+002 -3.576279e-006
    endloop
  endfacet
  facet normal -0.000000e+000 1.000000e+000 0.000000e+000
    outer loop
      vertex   -1.450000e+002 2.000000e+002 -3.576279e-006
      vertex   -1.350000e+002 2.000000e+002 2.000000e+001
      vertex   -1.250000e+002 2.000000e+002 1.500000e+001
    endloop
  endfacet
  facet normal -0.000000e+000 1.000000e+000 0.000000e+000
    outer loop
      vertex   -1.350000e+002 2.000000e+002 -7.152557e-007
      vertex   -1.250000e+002 2.000000e+002 1.500000e+001
      vertex   -1.250000e+002 2.000000e+002 -2.384186e-007
    endloop
  endfacet
  facet normal 0.000000e+000 1.000000e+000 -0.000000e+000
    outer loop
      vertex   -1.350000e+002 2.000000e+002 -7.152557e-007
      vertex   -1.450000e+002 2.000000e+002 -3.576279e-006
      vertex   -1.250000e+002 2.000000e+002 1.500000e+001
    endloop
  endfacet
  facet normal -0.000000e+000 1.000000e+000 0.000000e+000
    outer loop
      vertex   -1.350000e+002 2.000000e+002 2.000000e+001
      vertex   -1.250000e+002 2.000000e+002 2.000000e+001
      vertex   -1.250000e+002 2.000000e+002 1.500000e+001
    endloop
  endfacet
  facet normal 0.000000e+000 1.000000e+000 0.000000e+000
    outer loop
      vertex   -1.150000e+002 2.000000e+002 1.500000e+001
      vertex   -1.150000e+002 2.000000e+002 1.000000e+001
      vertex   -1.250000e+002 2.000000e+002 1.500000e+001
    endloop
  endfacet
  facet normal 0.000000e+000 1.000000e+000 0.000000e+000
    outer loop
      vertex   -1.250000e+002 2.000000e+002 1.500000e+001
      vertex   -1.150000e+002 2.000000e+002 1.000000e+001
      vertex   -1.250000e+002 2.000000e+002 -2.384186e-007
    endloop
  endfacet
  facet normal -0.000000e+000 1.000000e+000 0.000000e+000
    outer loop
      vertex   -1.250000e+002 2.000000e+002 -2.384186e-007
      vertex   -1.150000e+002 2.000000e+002 1.000000e+001
      vertex   -1.150000e+002 2.000000e+002 2.384186e-007
    endloop
  endfacet
  facet normal -0.000000e+000 1.000000e+000 0.000000e+000
    outer loop
      vertex   -1.150000e+002 2.000000e+002 2.384186e-007
      vertex   -1.150000e+002 2.000000e+002 1.000000e+001
      vertex   -1.050000e+002 2.000000e+002 5.000000e+000
    endloop
  endfacet
  facet normal 0.000000e+000 1.000000e+000 -0.000000e+000
    outer loop
      vertex   -9.500000e+001 2.000000e+002 0.000000e+000
      vertex   -1.050000e+002 2.000000e+002 5.000000e+000
      vertex   -9.500000e+001 2.000000e+002 5.000000e+000
    endloop
  endfacet
  facet normal 0.000000e+000 1.000000e+000 -0.000000e+000
    outer loop
      vertex   -9.500000e+001 2.000000e+002 0.000000e+000
      vertex   -1.150000e+002 2.000000e+002 2.384186e-007
      vertex   -1.050000e+002 2.000000e+002 5.000000e+000
    endloop
  endfacet
  facet normal -0.000000e+000 1.000000e+000 0.000000e+000
    outer loop
      vertex   -1.150000e+002 2.000000e+002 1.000000e+001
      vertex   -1.050000e+002 2.000000e+002 1.000000e+001
      vertex   -1.050000e+002 2.000000e+002 5.000000e+000
    endloop
  endfacet
  facet normal -0.000000e+000 -1.000000e+000 -0.000000e+000
    outer loop
      vertex   -1.000000e+002 1.980000e+002 5.000000e+000
      vertex   -1.050000e+002 1.980000e+002 5.000000e+000
      vertex   -1.000000e+002 1.980000e+002 2.000000e+000
    endloop
  endfacet
  facet normal -0.000000e+000 -1.000000e+000 0.000000e+000
    outer loop
      vertex   -1.000000e+002 1.980000e+002 2.000000e+000
      vertex   -1.050000e+002 1.980000e+002 5.000000e+000
      vertex   -1.150000e+002 1.980000e+002 2.384186e-007
    endloop
  endfacet
  facet normal -0.000000e+000 -1.000000e+000 0.000000e+000
    outer loop
      vertex   -9.500000e+001 1.980000e+002 0.000000e+000
      vertex   -1.000000e+002 1.980000e+002 2.000000e+000
      vertex   -1.150000e+002 1.980000e+002 2.384186e-007
    endloop
  endfacet
  facet normal 0.000000e+000 -1.000000e+000 0.000000e+000
    outer loop
      vertex   -9.500000e+001 1.980000e+002 0.000000e+000
      vertex   -9.500000e+001 1.980000e+002 2.000000e+000
      vertex   -1.000000e+002 1.980000e+002 2.000000e+000
    endloop
  endfacet
  facet normal -0.000000e+000 -1.000000e+000 -0.000000e+000
    outer loop
      vertex   -1.050000e+002 1.980000e+002 7.000000e+000
      vertex   -1.100000e+002 1.980000e+002 7.000000e+000
      vertex   -1.050000e+002 1.980000e+002 5.000000e+000
    endloop
  endfacet
  facet normal -0.000000e+000 -1.000000e+000 0.000000e+000
    outer loop
      vertex   -1.050000e+002 1.980000e+002 5.000000e+000
      vertex   -1.100000e+002 1.980000e+002 7.000000e+000
      vertex   -1.150000e+002 1.980000e+002 2.384186e-007
    endloop
  endfacet
  facet normal -0.000000e+000 -1.000000e+000 0.000000e+000
    outer loop
      vertex   -1.150000e+002 1.980000e+002 2.384186e-007
      vertex   -1.100000e+002 1.980000e+002 7.000000e+000
      vertex   -1.250000e+002 1.980000e+002 -2.384186e-007
    endloop
  endfacet
  facet normal 0.000000e+000 -1.000000e+000 0.000000e+000
    outer loop
      vertex   -1.250000e+002 1.980000e+002 -2.384186e-007
      vertex   -1.100000e+002 1.980000e+002 7.000000e+000
      vertex   -1.150000e+002 1.980000e+002 1.000000e+001
    endloop
  endfacet
  facet normal 0.000000e+000 -1.000000e+000 0.000000e+000
    outer loop
      vertex   -1.200000e+002 1.980000e+002 1.200000e+001
      vertex   -1.150000e+002 1.980000e+002 1.000000e+001
      vertex   -1.150000e+002 1.980000e+002 1.200000e+001
    endloop
  endfacet
  facet normal 0.000000e+000 -1.000000e+000 -0.000000e+000
    outer loop
      vertex   -1.200000e+002 1.980000e+002 1.200000e+001
      vertex   -1.250000e+002 1.980000e+002 -2.384186e-007
      vertex   -1.150000e+002 1.980000e+002 1.000000e+001
    endloop
  endfacet
  facet normal 0.000000e+000 -1.000000e+000 -0.000000e+000
    outer loop
      vertex   -1.200000e+002 1.980000e+002 1.200000e+001
      vertex   -1.350000e+002 1.980000e+002 -7.152557e-007
      vertex   -1.250000e+002 1.980000e+002 -2.384186e-007
    endloop
  endfacet
  facet normal -0.000000e+000 -1.000000e+000 0.000000e+000
    outer loop
      vertex   -1.200000e+002 1.980000e+002 1.200000e+001
      vertex   -1.250000e+002 1.980000e+002 1.500000e+001
      vertex   -1.350000e+002 1.980000e+002 -7.152557e-007
    endloop
  endfacet
  facet normal 0.000000e+000 -1.000000e+000 0.000000e+000
    outer loop
      vertex   -1.200000e+002 1.980000e+002 1.200000e+001
      vertex   -1.200000e+002 1.980000e+002 1.500000e+001
      vertex   -1.250000e+002 1.980000e+002 1.500000e+001
    endloop
  endfacet
  facet normal 0.000000e+000 -1.000000e+000 0.000000e+000
    outer loop
      vertex   -1.100000e+002 1.980000e+002 7.000000e+000
      vertex   -1.100000e+002 1.980000e+002 1.000000e+001
      vertex   -1.150000e+002 1.980000e+002 1.000000e+001
    endloop
  endfacet
  facet normal -0.000000e+000 -1.000000e+000 -0.000000e+000
    outer loop
      vertex   -1.250000e+002 1.980000e+002 1.700000e+001
      vertex   -1.300000e+002 1.980000e+002 1.700000e+001
      vertex   -1.250000e+002 1.980000e+002 1.500000e+001
    endloop
  endfacet
  facet normal -0.000000e+000 -1.000000e+000 0.000000e+000
    outer loop
      vertex   -1.250000e+002 1.980000e+002 1.500000e+001
      vertex   -1.300000e+002 1.980000e+002 1.700000e+001
      vertex   -1.350000e+002 1.980000e+002 -7.152557e-007
    endloop
  endfacet
  facet normal -0.000000e+000 -1.000000e+000 0.000000e+000
    outer loop
      vertex   -1.350000e+002 1.980000e+002 -7.152557e-007
      vertex   -1.300000e+002 1.980000e+002 1.700000e+001
      vertex   -1.450000e+002 1.980000e+002 -3.576279e-006
    endloop
  endfacet
  facet normal -0.000000e+000 -1.000000e+000 0.000000e+000
    outer loop
      vertex   -1.450000e+002 1.980000e+002 -3.576279e-006
      vertex   -1.300000e+002 1.980000e+002 1.700000e+001
      vertex   -1.500000e+002 1.980000e+002 -3.576279e-006
    endloop
  endfacet
  facet normal 0.000000e+000 -1.000000e+000 0.000000e+000
    outer loop
      vertex   -1.500000e+002 1.980000e+002 -3.576279e-006
      vertex   -1.300000e+002 1.980000e+002 1.700000e+001
      vertex   -1.350000e+002 1.980000e+002 2.000000e+001
    endloop
  endfacet
  facet normal 0.000000e+000 -1.000000e+000 0.000000e+000
    outer loop
      vertex   -1.400000e+002 1.980000e+002 2.200000e+001
      vertex   -1.350000e+002 1.980000e+002 2.000000e+001
      vertex   -1.350000e+002 1.980000e+002 2.200000e+001
    endloop
  endfacet
  facet normal 0.000000e+000 -1.000000e+000 -0.000000e+000
    outer loop
      vertex   -1.400000e+002 1.980000e+002 2.200000e+001
      vertex   -1.500000e+002 1.980000e+002 -3.576279e-006
      vertex   -1.350000e+002 1.980000e+002 2.000000e+001
    endloop
  endfacet
  facet normal -0.000000e+000 -1.000000e+000 0.000000e+000
    outer loop
      vertex   -1.400000e+002 1.980000e+002 2.200000e+001
      vertex   -1.450000e+002 1.980000e+002 2.500000e+001
      vertex   -1.500000e+002 1.980000e+002 -3.576279e-006
    endloop
  endfacet
  facet normal 0.000000e+000 -1.000000e+000 0.000000e+000
    outer loop
      vertex   -1.400000e+002 1.980000e+002 2.200000e+001
      vertex   -1.400000e+002 1.980000e+002 2.500000e+001
      vertex   -1.450000e+002 1.980000e+002 2.500000e+001
    endloop
  endfacet
  facet normal 0.000000e+000 -1.000000e+000 0.000000e+000
    outer loop
      vertex   -1.300000e+002 1.980000e+002 1.700000e+001
      vertex   -1.300000e+002 1.980000e+002 2.000000e+001
      vertex   -1.350000e+002 1.980000e+002 2.000000e+001
    endloop
  endfacet
  facet normal -0.000000e+000 -1.000000e+000 -0.000000e+000
    outer loop
      vertex   -1.450000e+002 1.980000e+002 2.700000e+001
      vertex   -1.500000e+002 1.980000e+002 2.700000e+001
      vertex   -1.450000e+002 1.980000e+002 2.500000e+001
    endloop
  endfacet
  facet normal -0.000000e+000 -1.000000e+000 -0.000000e+000
    outer loop
      vertex   -1.450000e+002 1.980000e+002 2.500000e+001
      vertex   -1.500000e+002 1.980000e+002 2.700000e+001
      vertex   -1.500000e+002 1.980000e+002 -3.576279e-006
    endloop
  endfacet
  facet normal 1.000000e+000 0.000000e+000 -0.000000e+000
    outer loop
      vertex   -9.500000e+001 1.980000e+002 0.000000e+000
      vertex   -9.500000e+001 2.000000e+002 0.000000e+000
      vertex   -9.500000e+001 1.980000e+002 2.000000e+000
    endloop
  endfacet
  facet normal 1.000000e+000 -0.000000e+000 0.000000e+000
    outer loop
      vertex   -9.500000e+001 1.980000e+002 2.000000e+000
      vertex   -9.500000e+001 2.000000e+002 0.000000e+000
      vertex   -9.500000e+001 2.000000e+002 5.000000e+000
    endloop
  endfacet
  facet normal 1.000000e+000 -0.000000e+000 0.000000e+000
    outer loop
      vertex   -9.500000e+001 1.860000e+002 5.000000e+000
      vertex   -9.500000e+001 1.980000e+002 2.000000e+000
      vertex   -9.500000e+001 2.000000e+002 5.000000e+000
    endloop
  endfacet
  facet normal 1.000000e+000 -0.000000e+000 0.000000e+000
    outer loop
      vertex   -9.500000e+001 1.860000e+002 5.000000e+000
      vertex   -9.500000e+001 1.880000e+002 2.000000e+000
      vertex   -9.500000e+001 1.980000e+002 2.000000e+000
    endloop
  endfacet
  facet normal 1.000000e+000 -8.601960e-005 -5.734640e-005
    outer loop
      vertex   -9.500000e+001 1.860000e+002 5.000000e+000
      vertex   -9.500020e+001 1.860000e+002 1.500000e+000
      vertex   -9.500000e+001 1.880000e+002 2.000000e+000
    endloop
  endfacet
  facet normal 1.000000e+000 -1.003561e-004 0.000000e+000
    outer loop
      vertex   -9.500000e+001 1.880000e+002 2.000000e+000
      vertex   -9.500020e+001 1.860000e+002 1.500000e+000
      vertex   -9.500000e+001 1.880000e+002 -5.543232e-006
    endloop
  endfacet
  facet normal 1.000000e+000 0.000000e+000 1.338083e-004
    outer loop
      vertex   -9.500000e+001 1.880000e+002 -5.543232e-006
      vertex   -9.500020e+001 1.860000e+002 1.500000e+000
      vertex   -9.500000e+001 1.860000e+002 -5.543232e-006
    endloop
  endfacet
  facet normal 0.000000e+000 -0.000000e+000 1.000000e+000
    outer loop
      vertex   -1.000000e+002 1.860000e+002 5.000000e+000
      vertex   -9.500000e+001 1.860000e+002 5.000000e+000
      vertex   -1.000000e+002 1.980000e+002 5.000000e+000
    endloop
  endfacet
  facet normal -0.000000e+000 0.000000e+000 1.000000e+000
    outer loop
      vertex   -1.000000e+002 1.980000e+002 5.000000e+000
      vertex   -9.500000e+001 1.860000e+002 5.000000e+000
      vertex   -9.500000e+001 2.000000e+002 5.000000e+000
    endloop
  endfacet
  facet normal -0.000000e+000 0.000000e+000 1.000000e+000
    outer loop
      vertex   -1.050000e+002 2.000000e+002 5.000000e+000
      vertex   -1.000000e+002 1.980000e+002 5.000000e+000
      vertex   -9.500000e+001 2.000000e+002 5.000000e+000
    endloop
  endfacet
  facet normal -0.000000e+000 0.000000e+000 1.000000e+000
    outer loop
      vertex   -1.050000e+002 2.000000e+002 5.000000e+000
      vertex   -1.050000e+002 1.980000e+002 5.000000e+000
      vertex   -1.000000e+002 1.980000e+002 5.000000e+000
    endloop
  endfacet
endsolid
