solid ascii
  facet normal -9.965458e-001 0.000000e+000 8.304548e-002
    outer loop
      vertex   -1.065000e+002 5.950000e+001 1.000000e+000
      vertex   -1.065000e+002 5.650000e+001 1.000000e+000
      vertex   -1.050000e+002 5.800000e+001 1.900000e+001
    endloop
  endfacet
  facet normal 0.000000e+000 -9.965458e-001 8.304548e-002
    outer loop
      vertex   -1.065000e+002 5.650000e+001 1.000000e+000
      vertex   -1.035000e+002 5.650000e+001 1.000000e+000
      vertex   -1.050000e+002 5.800000e+001 1.900000e+001
    endloop
  endfacet
  facet normal 9.965458e-001 -0.000000e+000 8.304548e-002
    outer loop
      vertex   -1.035000e+002 5.650000e+001 1.000000e+000
      vertex   -1.035000e+002 5.950000e+001 1.000000e+000
      vertex   -1.050000e+002 5.800000e+001 1.900000e+001
    endloop
  endfacet
  facet normal 0.000000e+000 9.965458e-001 8.304548e-002
    outer loop
      vertex   -1.035000e+002 5.950000e+001 1.000000e+000
      vertex   -1.065000e+002 5.950000e+001 1.000000e+000
      vertex   -1.050000e+002 5.800000e+001 1.900000e+001
    endloop
  endfacet
  facet normal -9.950372e-001 0.000000e+000 9.950372e-002
    outer loop
      vertex   -1.065000e+002 4.450000e+001 1.000000e+000
      vertex   -1.065000e+002 4.150000e+001 1.000000e+000
      vertex   -1.050000e+002 4.300000e+001 1.600000e+001
    endloop
  endfacet
  facet normal 0.000000e+000 -9.950372e-001 9.950372e-002
    outer loop
      vertex   -1.065000e+002 4.150000e+001 1.000000e+000
      vertex   -1.035000e+002 4.150000e+001 1.000000e+000
      vertex   -1.050000e+002 4.300000e+001 1.600000e+001
    endloop
  endfacet
  facet normal 9.950372e-001 -0.000000e+000 9.950372e-002
    outer loop
      vertex   -1.035000e+002 4.150000e+001 1.000000e+000
      vertex   -1.035000e+002 4.450000e+001 1.000000e+000
      vertex   -1.050000e+002 4.300000e+001 1.600000e+001
    endloop
  endfacet
  facet normal 0.000000e+000 9.950372e-001 9.950372e-002
    outer loop
      vertex   -1.035000e+002 4.450000e+001 1.000000e+000
      vertex   -1.065000e+002 4.450000e+001 1.000000e+000
      vertex   -1.050000e+002 4.300000e+001 1.600000e+001
    endloop
  endfacet
  facet normal -9.950372e-001 0.000000e+000 9.950372e-002
    outer loop
      vertex   -1.215000e+002 5.950000e+001 1.000000e+000
      vertex   -1.215000e+002 5.650000e+001 1.000000e+000
      vertex   -1.200000e+002 5.800000e+001 1.600000e+001
    endloop
  endfacet
  facet normal 0.000000e+000 -9.950372e-001 9.950372e-002
    outer loop
      vertex   -1.215000e+002 5.650000e+001 1.000000e+000
      vertex   -1.185000e+002 5.650000e+001 1.000000e+000
      vertex   -1.200000e+002 5.800000e+001 1.600000e+001
    endloop
  endfacet
  facet normal 9.950372e-001 -0.000000e+000 9.950372e-002
    outer loop
      vertex   -1.185000e+002 5.650000e+001 1.000000e+000
      vertex   -1.185000e+002 5.950000e+001 1.000000e+000
      vertex   -1.200000e+002 5.800000e+001 1.600000e+001
    endloop
  endfacet
  facet normal 0.000000e+000 9.950372e-001 9.950372e-002
    outer loop
      vertex   -1.185000e+002 5.950000e+001 1.000000e+000
      vertex   -1.215000e+002 5.950000e+001 1.000000e+000
      vertex   -1.200000e+002 5.800000e+001 1.600000e+001
    endloop
  endfacet
  facet normal -9.922779e-001 0.000000e+000 1.240347e-001
    outer loop
      vertex   -1.215000e+002 1.450000e+001 1.000000e+000
      vertex   -1.215000e+002 1.150000e+001 1.000000e+000
      vertex   -1.200000e+002 1.300000e+001 1.300000e+001
    endloop
  endfacet
  facet normal 0.000000e+000 -9.922779e-001 1.240347e-001
    outer loop
      vertex   -1.215000e+002 1.150000e+001 1.000000e+000
      vertex   -1.185000e+002 1.150000e+001 1.000000e+000
      vertex   -1.200000e+002 1.300000e+001 1.300000e+001
    endloop
  endfacet
  facet normal 9.922779e-001 -0.000000e+000 1.240347e-001
    outer loop
      vertex   -1.185000e+002 1.150000e+001 1.000000e+000
      vertex   -1.185000e+002 1.450000e+001 1.000000e+000
      vertex   -1.200000e+002 1.300000e+001 1.300000e+001
    endloop
  endfacet
  facet normal 0.000000e+000 9.922779e-001 1.240347e-001
    outer loop
      vertex   -1.185000e+002 1.450000e+001 1.000000e+000
      vertex   -1.215000e+002 1.450000e+001 1.000000e+000
      vertex   -1.200000e+002 1.300000e+001 1.300000e+001
    endloop
  endfacet
  facet normal -9.922779e-001 0.000000e+000 1.240347e-001
    outer loop
      vertex   -1.065000e+002 2.950000e+001 1.000000e+000
      vertex   -1.065000e+002 2.650000e+001 1.000000e+000
      vertex   -1.050000e+002 2.800000e+001 1.300000e+001
    endloop
  endfacet
  facet normal 0.000000e+000 -9.922779e-001 1.240347e-001
    outer loop
      vertex   -1.065000e+002 2.650000e+001 1.000000e+000
      vertex   -1.035000e+002 2.650000e+001 1.000000e+000
      vertex   -1.050000e+002 2.800000e+001 1.300000e+001
    endloop
  endfacet
  facet normal 9.922779e-001 -0.000000e+000 1.240347e-001
    outer loop
      vertex   -1.035000e+002 2.650000e+001 1.000000e+000
      vertex   -1.035000e+002 2.950000e+001 1.000000e+000
      vertex   -1.050000e+002 2.800000e+001 1.300000e+001
    endloop
  endfacet
  facet normal 0.000000e+000 9.922779e-001 1.240347e-001
    outer loop
      vertex   -1.035000e+002 2.950000e+001 1.000000e+000
      vertex   -1.065000e+002 2.950000e+001 1.000000e+000
      vertex   -1.050000e+002 2.800000e+001 1.300000e+001
    endloop
  endfacet
  facet normal -9.889364e-001 0.000000e+000 1.483405e-001
    outer loop
      vertex   -1.365000e+002 4.450000e+001 1.000000e+000
      vertex   -1.365000e+002 4.150000e+001 1.000000e+000
      vertex   -1.350000e+002 4.300000e+001 1.100000e+001
    endloop
  endfacet
  facet normal 0.000000e+000 -9.889364e-001 1.483405e-001
    outer loop
      vertex   -1.365000e+002 4.150000e+001 1.000000e+000
      vertex   -1.335000e+002 4.150000e+001 1.000000e+000
      vertex   -1.350000e+002 4.300000e+001 1.100000e+001
    endloop
  endfacet
  facet normal 9.889364e-001 -0.000000e+000 1.483405e-001
    outer loop
      vertex   -1.335000e+002 4.150000e+001 1.000000e+000
      vertex   -1.335000e+002 4.450000e+001 1.000000e+000
      vertex   -1.350000e+002 4.300000e+001 1.100000e+001
    endloop
  endfacet
  facet normal 0.000000e+000 9.889364e-001 1.483405e-001
    outer loop
      vertex   -1.335000e+002 4.450000e+001 1.000000e+000
      vertex   -1.365000e+002 4.450000e+001 1.000000e+000
      vertex   -1.350000e+002 4.300000e+001 1.100000e+001
    endloop
  endfacet
  facet normal -9.889364e-001 0.000000e+000 1.483405e-001
    outer loop
      vertex   -1.215000e+002 4.450000e+001 1.000000e+000
      vertex   -1.215000e+002 4.150000e+001 1.000000e+000
      vertex   -1.200000e+002 4.300000e+001 1.100000e+001
    endloop
  endfacet
  facet normal 0.000000e+000 -9.889364e-001 1.483405e-001
    outer loop
      vertex   -1.215000e+002 4.150000e+001 1.000000e+000
      vertex   -1.185000e+002 4.150000e+001 1.000000e+000
      vertex   -1.200000e+002 4.300000e+001 1.100000e+001
    endloop
  endfacet
  facet normal 9.889364e-001 -0.000000e+000 1.483405e-001
    outer loop
      vertex   -1.185000e+002 4.150000e+001 1.000000e+000
      vertex   -1.185000e+002 4.450000e+001 1.000000e+000
      vertex   -1.200000e+002 4.300000e+001 1.100000e+001
    endloop
  endfacet
  facet normal 0.000000e+000 9.889364e-001 1.483405e-001
    outer loop
      vertex   -1.185000e+002 4.450000e+001 1.000000e+000
      vertex   -1.215000e+002 4.450000e+001 1.000000e+000
      vertex   -1.200000e+002 4.300000e+001 1.100000e+001
    endloop
  endfacet
  facet normal -9.965458e-001 0.000000e+000 8.304548e-002
    outer loop
      vertex   -1.515000e+002 5.950000e+001 1.000000e+000
      vertex   -1.515000e+002 5.650000e+001 1.000000e+000
      vertex   -1.500000e+002 5.800000e+001 1.900000e+001
    endloop
  endfacet
  facet normal 0.000000e+000 -9.965458e-001 8.304548e-002
    outer loop
      vertex   -1.515000e+002 5.650000e+001 1.000000e+000
      vertex   -1.485000e+002 5.650000e+001 1.000000e+000
      vertex   -1.500000e+002 5.800000e+001 1.900000e+001
    endloop
  endfacet
  facet normal 9.965458e-001 -0.000000e+000 8.304548e-002
    outer loop
      vertex   -1.485000e+002 5.650000e+001 1.000000e+000
      vertex   -1.485000e+002 5.950000e+001 1.000000e+000
      vertex   -1.500000e+002 5.800000e+001 1.900000e+001
    endloop
  endfacet
  facet normal 0.000000e+000 9.965458e-001 8.304548e-002
    outer loop
      vertex   -1.485000e+002 5.950000e+001 1.000000e+000
      vertex   -1.515000e+002 5.950000e+001 1.000000e+000
      vertex   -1.500000e+002 5.800000e+001 1.900000e+001
    endloop
  endfacet
  facet normal -9.950372e-001 0.000000e+000 9.950372e-002
    outer loop
      vertex   -1.515000e+002 2.950000e+001 1.000000e+000
      vertex   -1.515000e+002 2.650000e+001 1.000000e+000
      vertex   -1.500000e+002 2.800000e+001 1.600000e+001
    endloop
  endfacet
  facet normal 0.000000e+000 -9.950372e-001 9.950372e-002
    outer loop
      vertex   -1.515000e+002 2.650000e+001 1.000000e+000
      vertex   -1.485000e+002 2.650000e+001 1.000000e+000
      vertex   -1.500000e+002 2.800000e+001 1.600000e+001
    endloop
  endfacet
  facet normal 9.950372e-001 -0.000000e+000 9.950372e-002
    outer loop
      vertex   -1.485000e+002 2.650000e+001 1.000000e+000
      vertex   -1.485000e+002 2.950000e+001 1.000000e+000
      vertex   -1.500000e+002 2.800000e+001 1.600000e+001
    endloop
  endfacet
  facet normal 0.000000e+000 9.950372e-001 9.950372e-002
    outer loop
      vertex   -1.485000e+002 2.950000e+001 1.000000e+000
      vertex   -1.515000e+002 2.950000e+001 1.000000e+000
      vertex   -1.500000e+002 2.800000e+001 1.600000e+001
    endloop
  endfacet
  facet normal -9.889364e-001 0.000000e+000 1.483405e-001
    outer loop
      vertex   -1.365000e+002 2.950000e+001 1.000000e+000
      vertex   -1.365000e+002 2.650000e+001 1.000000e+000
      vertex   -1.350000e+002 2.800000e+001 1.100000e+001
    endloop
  endfacet
  facet normal 0.000000e+000 -9.889364e-001 1.483405e-001
    outer loop
      vertex   -1.365000e+002 2.650000e+001 1.000000e+000
      vertex   -1.335000e+002 2.650000e+001 1.000000e+000
      vertex   -1.350000e+002 2.800000e+001 1.100000e+001
    endloop
  endfacet
  facet normal 9.889364e-001 -0.000000e+000 1.483405e-001
    outer loop
      vertex   -1.335000e+002 2.650000e+001 1.000000e+000
      vertex   -1.335000e+002 2.950000e+001 1.000000e+000
      vertex   -1.350000e+002 2.800000e+001 1.100000e+001
    endloop
  endfacet
  facet normal 0.000000e+000 9.889364e-001 1.483405e-001
    outer loop
      vertex   -1.335000e+002 2.950000e+001 1.000000e+000
      vertex   -1.365000e+002 2.950000e+001 1.000000e+000
      vertex   -1.350000e+002 2.800000e+001 1.100000e+001
    endloop
  endfacet
  facet normal -9.889364e-001 0.000000e+000 1.483405e-001
    outer loop
      vertex   -1.215000e+002 2.950000e+001 1.000000e+000
      vertex   -1.215000e+002 2.650000e+001 1.000000e+000
      vertex   -1.200000e+002 2.800000e+001 1.100000e+001
    endloop
  endfacet
  facet normal 0.000000e+000 -9.889364e-001 1.483405e-001
    outer loop
      vertex   -1.215000e+002 2.650000e+001 1.000000e+000
      vertex   -1.185000e+002 2.650000e+001 1.000000e+000
      vertex   -1.200000e+002 2.800000e+001 1.100000e+001
    endloop
  endfacet
  facet normal 9.889364e-001 -0.000000e+000 1.483405e-001
    outer loop
      vertex   -1.185000e+002 2.650000e+001 1.000000e+000
      vertex   -1.185000e+002 2.950000e+001 1.000000e+000
      vertex   -1.200000e+002 2.800000e+001 1.100000e+001
    endloop
  endfacet
  facet normal 0.000000e+000 9.889364e-001 1.483405e-001
    outer loop
      vertex   -1.185000e+002 2.950000e+001 1.000000e+000
      vertex   -1.215000e+002 2.950000e+001 1.000000e+000
      vertex   -1.200000e+002 2.800000e+001 1.100000e+001
    endloop
  endfacet
  facet normal -9.922779e-001 0.000000e+000 1.240347e-001
    outer loop
      vertex   -1.515000e+002 4.450000e+001 1.000000e+000
      vertex   -1.515000e+002 4.150000e+001 1.000000e+000
      vertex   -1.500000e+002 4.300000e+001 1.300000e+001
    endloop
  endfacet
  facet normal 0.000000e+000 -9.922779e-001 1.240347e-001
    outer loop
      vertex   -1.515000e+002 4.150000e+001 1.000000e+000
      vertex   -1.485000e+002 4.150000e+001 1.000000e+000
      vertex   -1.500000e+002 4.300000e+001 1.300000e+001
    endloop
  endfacet
  facet normal 9.922779e-001 -0.000000e+000 1.240347e-001
    outer loop
      vertex   -1.485000e+002 4.150000e+001 1.000000e+000
      vertex   -1.485000e+002 4.450000e+001 1.000000e+000
      vertex   -1.500000e+002 4.300000e+001 1.300000e+001
    endloop
  endfacet
  facet normal 0.000000e+000 9.922779e-001 1.240347e-001
    outer loop
      vertex   -1.485000e+002 4.450000e+001 1.000000e+000
      vertex   -1.515000e+002 4.450000e+001 1.000000e+000
      vertex   -1.500000e+002 4.300000e+001 1.300000e+001
    endloop
  endfacet
  facet normal -9.922779e-001 0.000000e+000 1.240347e-001
    outer loop
      vertex   -1.365000e+002 5.950000e+001 1.000000e+000
      vertex   -1.365000e+002 5.650000e+001 1.000000e+000
      vertex   -1.350000e+002 5.800000e+001 1.300000e+001
    endloop
  endfacet
  facet normal 0.000000e+000 -9.922779e-001 1.240347e-001
    outer loop
      vertex   -1.365000e+002 5.650000e+001 1.000000e+000
      vertex   -1.335000e+002 5.650000e+001 1.000000e+000
      vertex   -1.350000e+002 5.800000e+001 1.300000e+001
    endloop
  endfacet
  facet normal 9.922779e-001 -0.000000e+000 1.240347e-001
    outer loop
      vertex   -1.335000e+002 5.650000e+001 1.000000e+000
      vertex   -1.335000e+002 5.950000e+001 1.000000e+000
      vertex   -1.350000e+002 5.800000e+001 1.300000e+001
    endloop
  endfacet
  facet normal 0.000000e+000 9.922779e-001 1.240347e-001
    outer loop
      vertex   -1.335000e+002 5.950000e+001 1.000000e+000
      vertex   -1.365000e+002 5.950000e+001 1.000000e+000
      vertex   -1.350000e+002 5.800000e+001 1.300000e+001
    endloop
  endfacet
  facet normal -9.965458e-001 0.000000e+000 8.304548e-002
    outer loop
      vertex   -1.065000e+002 1.450000e+001 1.000000e+000
      vertex   -1.065000e+002 1.150000e+001 1.000000e+000
      vertex   -1.050000e+002 1.300000e+001 1.900000e+001
    endloop
  endfacet
  facet normal 0.000000e+000 -9.965458e-001 8.304548e-002
    outer loop
      vertex   -1.065000e+002 1.150000e+001 1.000000e+000
      vertex   -1.035000e+002 1.150000e+001 1.000000e+000
      vertex   -1.050000e+002 1.300000e+001 1.900000e+001
    endloop
  endfacet
  facet normal 9.965458e-001 -0.000000e+000 8.304548e-002
    outer loop
      vertex   -1.035000e+002 1.150000e+001 1.000000e+000
      vertex   -1.035000e+002 1.450000e+001 1.000000e+000
      vertex   -1.050000e+002 1.300000e+001 1.900000e+001
    endloop
  endfacet
  facet normal 0.000000e+000 9.965458e-001 8.304548e-002
    outer loop
      vertex   -1.035000e+002 1.450000e+001 1.000000e+000
      vertex   -1.065000e+002 1.450000e+001 1.000000e+000
      vertex   -1.050000e+002 1.300000e+001 1.900000e+001
    endloop
  endfacet
  facet normal -9.950372e-001 0.000000e+000 9.950372e-002
    outer loop
      vertex   -1.365000e+002 1.450000e+001 1.000000e+000
      vertex   -1.365000e+002 1.150000e+001 1.000000e+000
      vertex   -1.350000e+002 1.300000e+001 1.600000e+001
    endloop
  endfacet
  facet normal 0.000000e+000 -9.950372e-001 9.950372e-002
    outer loop
      vertex   -1.365000e+002 1.150000e+001 1.000000e+000
      vertex   -1.335000e+002 1.150000e+001 1.000000e+000
      vertex   -1.350000e+002 1.300000e+001 1.600000e+001
    endloop
  endfacet
  facet normal 9.950372e-001 -0.000000e+000 9.950372e-002
    outer loop
      vertex   -1.335000e+002 1.150000e+001 1.000000e+000
      vertex   -1.335000e+002 1.450000e+001 1.000000e+000
      vertex   -1.350000e+002 1.300000e+001 1.600000e+001
    endloop
  endfacet
  facet normal 0.000000e+000 9.950372e-001 9.950372e-002
    outer loop
      vertex   -1.335000e+002 1.450000e+001 1.000000e+000
      vertex   -1.365000e+002 1.450000e+001 1.000000e+000
      vertex   -1.350000e+002 1.300000e+001 1.600000e+001
    endloop
  endfacet
  facet normal -9.965458e-001 0.000000e+000 8.304548e-002
    outer loop
      vertex   -1.515000e+002 1.450000e+001 1.000000e+000
      vertex   -1.515000e+002 1.150000e+001 1.000000e+000
      vertex   -1.500000e+002 1.300000e+001 1.900000e+001
    endloop
  endfacet
  facet normal 0.000000e+000 -9.965458e-001 8.304548e-002
    outer loop
      vertex   -1.515000e+002 1.150000e+001 1.000000e+000
      vertex   -1.485000e+002 1.150000e+001 1.000000e+000
      vertex   -1.500000e+002 1.300000e+001 1.900000e+001
    endloop
  endfacet
  facet normal 9.965458e-001 -0.000000e+000 8.304548e-002
    outer loop
      vertex   -1.485000e+002 1.150000e+001 1.000000e+000
      vertex   -1.485000e+002 1.450000e+001 1.000000e+000
      vertex   -1.500000e+002 1.300000e+001 1.900000e+001
    endloop
  endfacet
  facet normal 0.000000e+000 9.965458e-001 8.304548e-002
    outer loop
      vertex   -1.485000e+002 1.450000e+001 1.000000e+000
      vertex   -1.515000e+002 1.450000e+001 1.000000e+000
      vertex   -1.500000e+002 1.300000e+001 1.900000e+001
    endloop
  endfacet
  facet normal 0.000000e+000 0.000000e+000 1.000000e+000
    outer loop
      vertex   -1.065000e+002 5.950000e+001 1.000000e+000
      vertex   -1.185000e+002 5.950000e+001 1.000000e+000
      vertex   -1.065000e+002 5.650000e+001 1.000000e+000
    endloop
  endfacet
  facet normal 0.000000e+000 -0.000000e+000 1.000000e+000
    outer loop
      vertex   -1.065000e+002 5.950000e+001 1.000000e+000
      vertex   -1.000000e+002 6.300000e+001 1.000000e+000
      vertex   -1.185000e+002 5.950000e+001 1.000000e+000
    endloop
  endfacet
  facet normal 0.000000e+000 0.000000e+000 1.000000e+000
    outer loop
      vertex   -1.065000e+002 5.950000e+001 1.000000e+000
      vertex   -1.035000e+002 5.950000e+001 1.000000e+000
      vertex   -1.000000e+002 6.300000e+001 1.000000e+000
    endloop
  endfacet
  facet normal 0.000000e+000 0.000000e+000 1.000000e+000
    outer loop
      vertex   -1.000000e+002 6.300000e+001 1.000000e+000
      vertex   -1.035000e+002 5.950000e+001 1.000000e+000
      vertex   -1.035000e+002 5.650000e+001 1.000000e+000
    endloop
  endfacet
  facet normal 0.000000e+000 0.000000e+000 1.000000e+000
    outer loop
      vertex   -1.035000e+002 4.450000e+001 1.000000e+000
      vertex   -1.035000e+002 5.650000e+001 1.000000e+000
      vertex   -1.065000e+002 5.650000e+001 1.000000e+000
    endloop
  endfacet
  facet normal 0.000000e+000 0.000000e+000 1.000000e+000
    outer loop
      vertex   -1.065000e+002 4.450000e+001 1.000000e+000
      vertex   -1.065000e+002 5.650000e+001 1.000000e+000
      vertex   -1.185000e+002 5.650000e+001 1.000000e+000
    endloop
  endfacet
  facet normal 0.000000e+000 -0.000000e+000 1.000000e+000
    outer loop
      vertex   -1.185000e+002 4.450000e+001 1.000000e+000
      vertex   -1.185000e+002 5.650000e+001 1.000000e+000
      vertex   -1.215000e+002 5.650000e+001 1.000000e+000
    endloop
  endfacet
  facet normal 0.000000e+000 -0.000000e+000 1.000000e+000
    outer loop
      vertex   -1.215000e+002 4.450000e+001 1.000000e+000
      vertex   -1.215000e+002 5.650000e+001 1.000000e+000
      vertex   -1.335000e+002 5.650000e+001 1.000000e+000
    endloop
  endfacet
  facet normal 0.000000e+000 0.000000e+000 1.000000e+000
    outer loop
      vertex   -1.335000e+002 4.450000e+001 1.000000e+000
      vertex   -1.335000e+002 5.650000e+001 1.000000e+000
      vertex   -1.365000e+002 5.650000e+001 1.000000e+000
    endloop
  endfacet
  facet normal 0.000000e+000 -0.000000e+000 1.000000e+000
    outer loop
      vertex   -1.365000e+002 4.450000e+001 1.000000e+000
      vertex   -1.365000e+002 5.650000e+001 1.000000e+000
      vertex   -1.485000e+002 5.650000e+001 1.000000e+000
    endloop
  endfacet
  facet normal 0.000000e+000 -0.000000e+000 1.000000e+000
    outer loop
      vertex   -1.485000e+002 4.450000e+001 1.000000e+000
      vertex   -1.485000e+002 5.650000e+001 1.000000e+000
      vertex   -1.515000e+002 5.650000e+001 1.000000e+000
    endloop
  endfacet
  facet normal 0.000000e+000 -0.000000e+000 1.000000e+000
    outer loop
      vertex   -1.515000e+002 4.450000e+001 1.000000e+000
      vertex   -1.515000e+002 5.650000e+001 1.000000e+000
      vertex   -1.550000e+002 6.300000e+001 1.000000e+000
    endloop
  endfacet
  facet normal 0.000000e+000 0.000000e+000 1.000000e+000
    outer loop
      vertex   -1.515000e+002 4.150000e+001 1.000000e+000
      vertex   -1.550000e+002 6.300000e+001 1.000000e+000
      vertex   -1.550000e+002 8.000000e+000 1.000000e+000
    endloop
  endfacet
  facet normal -0.000000e+000 0.000000e+000 1.000000e+000
    outer loop
      vertex   -1.515000e+002 2.950000e+001 1.000000e+000
      vertex   -1.550000e+002 8.000000e+000 1.000000e+000
      vertex   -1.515000e+002 2.650000e+001 1.000000e+000
    endloop
  endfacet
  facet normal 0.000000e+000 0.000000e+000 1.000000e+000
    outer loop
      vertex   -1.515000e+002 2.950000e+001 1.000000e+000
      vertex   -1.515000e+002 4.150000e+001 1.000000e+000
      vertex   -1.550000e+002 8.000000e+000 1.000000e+000
    endloop
  endfacet
  facet normal 0.000000e+000 -0.000000e+000 1.000000e+000
    outer loop
      vertex   -1.515000e+002 2.950000e+001 1.000000e+000
      vertex   -1.485000e+002 2.950000e+001 1.000000e+000
      vertex   -1.515000e+002 4.150000e+001 1.000000e+000
    endloop
  endfacet
  facet normal -0.000000e+000 -0.000000e+000 1.000000e+000
    outer loop
      vertex   -1.515000e+002 4.150000e+001 1.000000e+000
      vertex   -1.485000e+002 2.950000e+001 1.000000e+000
      vertex   -1.485000e+002 4.150000e+001 1.000000e+000
    endloop
  endfacet
  facet normal -0.000000e+000 0.000000e+000 1.000000e+000
    outer loop
      vertex   -1.485000e+002 4.150000e+001 1.000000e+000
      vertex   -1.485000e+002 2.950000e+001 1.000000e+000
      vertex   -1.365000e+002 2.950000e+001 1.000000e+000
    endloop
  endfacet
  facet normal -0.000000e+000 0.000000e+000 1.000000e+000
    outer loop
      vertex   -1.365000e+002 4.150000e+001 1.000000e+000
      vertex   -1.365000e+002 2.950000e+001 1.000000e+000
      vertex   -1.335000e+002 2.950000e+001 1.000000e+000
    endloop
  endfacet
  facet normal -0.000000e+000 0.000000e+000 1.000000e+000
    outer loop
      vertex   -1.335000e+002 4.150000e+001 1.000000e+000
      vertex   -1.335000e+002 2.950000e+001 1.000000e+000
      vertex   -1.215000e+002 2.950000e+001 1.000000e+000
    endloop
  endfacet
  facet normal -0.000000e+000 0.000000e+000 1.000000e+000
    outer loop
      vertex   -1.215000e+002 4.150000e+001 1.000000e+000
      vertex   -1.215000e+002 2.950000e+001 1.000000e+000
      vertex   -1.185000e+002 2.950000e+001 1.000000e+000
    endloop
  endfacet
  facet normal -0.000000e+000 0.000000e+000 1.000000e+000
    outer loop
      vertex   -1.185000e+002 4.150000e+001 1.000000e+000
      vertex   -1.185000e+002 2.950000e+001 1.000000e+000
      vertex   -1.065000e+002 2.950000e+001 1.000000e+000
    endloop
  endfacet
  facet normal -0.000000e+000 0.000000e+000 1.000000e+000
    outer loop
      vertex   -1.065000e+002 4.150000e+001 1.000000e+000
      vertex   -1.065000e+002 2.950000e+001 1.000000e+000
      vertex   -1.035000e+002 2.950000e+001 1.000000e+000
    endloop
  endfacet
  facet normal 0.000000e+000 0.000000e+000 1.000000e+000
    outer loop
      vertex   -1.035000e+002 4.150000e+001 1.000000e+000
      vertex   -1.035000e+002 2.950000e+001 1.000000e+000
      vertex   -1.000000e+002 8.000000e+000 1.000000e+000
    endloop
  endfacet
  facet normal 0.000000e+000 0.000000e+000 1.000000e+000
    outer loop
      vertex   -1.000000e+002 6.300000e+001 1.000000e+000
      vertex   -1.035000e+002 4.150000e+001 1.000000e+000
      vertex   -1.000000e+002 8.000000e+000 1.000000e+000
    endloop
  endfacet
  facet normal 0.000000e+000 0.000000e+000 1.000000e+000
    outer loop
      vertex   -1.000000e+002 6.300000e+001 1.000000e+000
      vertex   -1.035000e+002 4.450000e+001 1.000000e+000
      vertex   -1.035000e+002 4.150000e+001 1.000000e+000
    endloop
  endfacet
  facet normal 0.000000e+000 0.000000e+000 1.000000e+000
    outer loop
      vertex   -1.000000e+002 6.300000e+001 1.000000e+000
      vertex   -1.035000e+002 5.650000e+001 1.000000e+000
      vertex   -1.035000e+002 4.450000e+001 1.000000e+000
    endloop
  endfacet
  facet normal 0.000000e+000 0.000000e+000 1.000000e+000
    outer loop
      vertex   -1.065000e+002 4.450000e+001 1.000000e+000
      vertex   -1.185000e+002 4.450000e+001 1.000000e+000
      vertex   -1.065000e+002 4.150000e+001 1.000000e+000
    endloop
  endfacet
  facet normal 0.000000e+000 0.000000e+000 1.000000e+000
    outer loop
      vertex   -1.065000e+002 4.450000e+001 1.000000e+000
      vertex   -1.185000e+002 5.650000e+001 1.000000e+000
      vertex   -1.185000e+002 4.450000e+001 1.000000e+000
    endloop
  endfacet
  facet normal 0.000000e+000 -0.000000e+000 1.000000e+000
    outer loop
      vertex   -1.065000e+002 4.450000e+001 1.000000e+000
      vertex   -1.035000e+002 4.450000e+001 1.000000e+000
      vertex   -1.065000e+002 5.650000e+001 1.000000e+000
    endloop
  endfacet
  facet normal 0.000000e+000 0.000000e+000 1.000000e+000
    outer loop
      vertex   -1.035000e+002 4.150000e+001 1.000000e+000
      vertex   -1.065000e+002 4.150000e+001 1.000000e+000
      vertex   -1.035000e+002 2.950000e+001 1.000000e+000
    endloop
  endfacet
  facet normal -0.000000e+000 -0.000000e+000 1.000000e+000
    outer loop
      vertex   -1.335000e+002 5.650000e+001 1.000000e+000
      vertex   -1.215000e+002 5.650000e+001 1.000000e+000
      vertex   -1.335000e+002 5.950000e+001 1.000000e+000
    endloop
  endfacet
  facet normal -0.000000e+000 0.000000e+000 1.000000e+000
    outer loop
      vertex   -1.335000e+002 5.950000e+001 1.000000e+000
      vertex   -1.215000e+002 5.650000e+001 1.000000e+000
      vertex   -1.215000e+002 5.950000e+001 1.000000e+000
    endloop
  endfacet
  facet normal -0.000000e+000 0.000000e+000 1.000000e+000
    outer loop
      vertex   -1.000000e+002 6.300000e+001 1.000000e+000
      vertex   -1.215000e+002 5.950000e+001 1.000000e+000
      vertex   -1.185000e+002 5.950000e+001 1.000000e+000
    endloop
  endfacet
  facet normal 0.000000e+000 0.000000e+000 1.000000e+000
    outer loop
      vertex   -1.000000e+002 6.300000e+001 1.000000e+000
      vertex   -1.335000e+002 5.950000e+001 1.000000e+000
      vertex   -1.215000e+002 5.950000e+001 1.000000e+000
    endloop
  endfacet
  facet normal 0.000000e+000 0.000000e+000 1.000000e+000
    outer loop
      vertex   -1.000000e+002 6.300000e+001 1.000000e+000
      vertex   -1.550000e+002 6.300000e+001 1.000000e+000
      vertex   -1.335000e+002 5.950000e+001 1.000000e+000
    endloop
  endfacet
  facet normal 0.000000e+000 0.000000e+000 1.000000e+000
    outer loop
      vertex   -1.335000e+002 5.950000e+001 1.000000e+000
      vertex   -1.550000e+002 6.300000e+001 1.000000e+000
      vertex   -1.365000e+002 5.950000e+001 1.000000e+000
    endloop
  endfacet
  facet normal 0.000000e+000 0.000000e+000 1.000000e+000
    outer loop
      vertex   -1.365000e+002 5.950000e+001 1.000000e+000
      vertex   -1.550000e+002 6.300000e+001 1.000000e+000
      vertex   -1.485000e+002 5.950000e+001 1.000000e+000
    endloop
  endfacet
  facet normal 0.000000e+000 0.000000e+000 1.000000e+000
    outer loop
      vertex   -1.365000e+002 5.650000e+001 1.000000e+000
      vertex   -1.485000e+002 5.950000e+001 1.000000e+000
      vertex   -1.485000e+002 5.650000e+001 1.000000e+000
    endloop
  endfacet
  facet normal 0.000000e+000 -0.000000e+000 1.000000e+000
    outer loop
      vertex   -1.365000e+002 5.650000e+001 1.000000e+000
      vertex   -1.365000e+002 5.950000e+001 1.000000e+000
      vertex   -1.485000e+002 5.950000e+001 1.000000e+000
    endloop
  endfacet
  facet normal -0.000000e+000 0.000000e+000 1.000000e+000
    outer loop
      vertex   -1.185000e+002 5.950000e+001 1.000000e+000
      vertex   -1.185000e+002 5.650000e+001 1.000000e+000
      vertex   -1.065000e+002 5.650000e+001 1.000000e+000
    endloop
  endfacet
  facet normal 0.000000e+000 0.000000e+000 1.000000e+000
    outer loop
      vertex   -1.215000e+002 1.450000e+001 1.000000e+000
      vertex   -1.335000e+002 1.450000e+001 1.000000e+000
      vertex   -1.215000e+002 1.150000e+001 1.000000e+000
    endloop
  endfacet
  facet normal 0.000000e+000 0.000000e+000 1.000000e+000
    outer loop
      vertex   -1.215000e+002 1.450000e+001 1.000000e+000
      vertex   -1.335000e+002 2.650000e+001 1.000000e+000
      vertex   -1.335000e+002 1.450000e+001 1.000000e+000
    endloop
  endfacet
  facet normal 0.000000e+000 -0.000000e+000 1.000000e+000
    outer loop
      vertex   -1.215000e+002 1.450000e+001 1.000000e+000
      vertex   -1.215000e+002 2.650000e+001 1.000000e+000
      vertex   -1.335000e+002 2.650000e+001 1.000000e+000
    endloop
  endfacet
  facet normal 0.000000e+000 -0.000000e+000 1.000000e+000
    outer loop
      vertex   -1.215000e+002 1.450000e+001 1.000000e+000
      vertex   -1.185000e+002 1.450000e+001 1.000000e+000
      vertex   -1.215000e+002 2.650000e+001 1.000000e+000
    endloop
  endfacet
  facet normal -0.000000e+000 0.000000e+000 1.000000e+000
    outer loop
      vertex   -1.215000e+002 2.650000e+001 1.000000e+000
      vertex   -1.185000e+002 1.450000e+001 1.000000e+000
      vertex   -1.185000e+002 2.650000e+001 1.000000e+000
    endloop
  endfacet
  facet normal 0.000000e+000 0.000000e+000 1.000000e+000
    outer loop
      vertex   -1.185000e+002 2.650000e+001 1.000000e+000
      vertex   -1.185000e+002 1.450000e+001 1.000000e+000
      vertex   -1.065000e+002 1.450000e+001 1.000000e+000
    endloop
  endfacet
  facet normal -0.000000e+000 0.000000e+000 1.000000e+000
    outer loop
      vertex   -1.065000e+002 2.650000e+001 1.000000e+000
      vertex   -1.065000e+002 1.450000e+001 1.000000e+000
      vertex   -1.035000e+002 1.450000e+001 1.000000e+000
    endloop
  endfacet
  facet normal 0.000000e+000 0.000000e+000 1.000000e+000
    outer loop
      vertex   -1.035000e+002 2.650000e+001 1.000000e+000
      vertex   -1.035000e+002 1.450000e+001 1.000000e+000
      vertex   -1.000000e+002 8.000000e+000 1.000000e+000
    endloop
  endfacet
  facet normal 0.000000e+000 0.000000e+000 1.000000e+000
    outer loop
      vertex   -1.035000e+002 2.950000e+001 1.000000e+000
      vertex   -1.035000e+002 2.650000e+001 1.000000e+000
      vertex   -1.000000e+002 8.000000e+000 1.000000e+000
    endloop
  endfacet
  facet normal 0.000000e+000 0.000000e+000 1.000000e+000
    outer loop
      vertex   -1.065000e+002 1.450000e+001 1.000000e+000
      vertex   -1.185000e+002 1.450000e+001 1.000000e+000
      vertex   -1.065000e+002 1.150000e+001 1.000000e+000
    endloop
  endfacet
  facet normal 0.000000e+000 0.000000e+000 1.000000e+000
    outer loop
      vertex   -1.065000e+002 1.150000e+001 1.000000e+000
      vertex   -1.185000e+002 1.450000e+001 1.000000e+000
      vertex   -1.185000e+002 1.150000e+001 1.000000e+000
    endloop
  endfacet
  facet normal 0.000000e+000 0.000000e+000 1.000000e+000
    outer loop
      vertex   -1.000000e+002 8.000000e+000 1.000000e+000
      vertex   -1.185000e+002 1.150000e+001 1.000000e+000
      vertex   -1.215000e+002 1.150000e+001 1.000000e+000
    endloop
  endfacet
  facet normal 0.000000e+000 -0.000000e+000 1.000000e+000
    outer loop
      vertex   -1.335000e+002 1.150000e+001 1.000000e+000
      vertex   -1.215000e+002 1.150000e+001 1.000000e+000
      vertex   -1.335000e+002 1.450000e+001 1.000000e+000
    endloop
  endfacet
  facet normal -0.000000e+000 -0.000000e+000 1.000000e+000
    outer loop
      vertex   -1.335000e+002 1.150000e+001 1.000000e+000
      vertex   -1.000000e+002 8.000000e+000 1.000000e+000
      vertex   -1.215000e+002 1.150000e+001 1.000000e+000
    endloop
  endfacet
  facet normal -0.000000e+000 0.000000e+000 1.000000e+000
    outer loop
      vertex   -1.335000e+002 1.150000e+001 1.000000e+000
      vertex   -1.550000e+002 8.000000e+000 1.000000e+000
      vertex   -1.000000e+002 8.000000e+000 1.000000e+000
    endloop
  endfacet
  facet normal 0.000000e+000 0.000000e+000 1.000000e+000
    outer loop
      vertex   -1.335000e+002 1.150000e+001 1.000000e+000
      vertex   -1.365000e+002 1.150000e+001 1.000000e+000
      vertex   -1.550000e+002 8.000000e+000 1.000000e+000
    endloop
  endfacet
  facet normal 0.000000e+000 -0.000000e+000 1.000000e+000
    outer loop
      vertex   -1.550000e+002 8.000000e+000 1.000000e+000
      vertex   -1.365000e+002 1.150000e+001 1.000000e+000
      vertex   -1.485000e+002 1.150000e+001 1.000000e+000
    endloop
  endfacet
  facet normal -0.000000e+000 0.000000e+000 1.000000e+000
    outer loop
      vertex   -1.515000e+002 1.150000e+001 1.000000e+000
      vertex   -1.550000e+002 8.000000e+000 1.000000e+000
      vertex   -1.485000e+002 1.150000e+001 1.000000e+000
    endloop
  endfacet
  facet normal 0.000000e+000 -0.000000e+000 1.000000e+000
    outer loop
      vertex   -1.515000e+002 1.150000e+001 1.000000e+000
      vertex   -1.515000e+002 1.450000e+001 1.000000e+000
      vertex   -1.550000e+002 8.000000e+000 1.000000e+000
    endloop
  endfacet
  facet normal 0.000000e+000 0.000000e+000 1.000000e+000
    outer loop
      vertex   -1.550000e+002 8.000000e+000 1.000000e+000
      vertex   -1.515000e+002 1.450000e+001 1.000000e+000
      vertex   -1.515000e+002 2.650000e+001 1.000000e+000
    endloop
  endfacet
  facet normal -0.000000e+000 0.000000e+000 1.000000e+000
    outer loop
      vertex   -1.515000e+002 2.650000e+001 1.000000e+000
      vertex   -1.515000e+002 1.450000e+001 1.000000e+000
      vertex   -1.485000e+002 1.450000e+001 1.000000e+000
    endloop
  endfacet
  facet normal 0.000000e+000 0.000000e+000 1.000000e+000
    outer loop
      vertex   -1.485000e+002 2.650000e+001 1.000000e+000
      vertex   -1.485000e+002 1.450000e+001 1.000000e+000
      vertex   -1.365000e+002 1.450000e+001 1.000000e+000
    endloop
  endfacet
  facet normal -0.000000e+000 0.000000e+000 1.000000e+000
    outer loop
      vertex   -1.365000e+002 2.650000e+001 1.000000e+000
      vertex   -1.365000e+002 1.450000e+001 1.000000e+000
      vertex   -1.335000e+002 1.450000e+001 1.000000e+000
    endloop
  endfacet
  facet normal 0.000000e+000 0.000000e+000 1.000000e+000
    outer loop
      vertex   -1.335000e+002 2.650000e+001 1.000000e+000
      vertex   -1.365000e+002 2.650000e+001 1.000000e+000
      vertex   -1.335000e+002 1.450000e+001 1.000000e+000
    endloop
  endfacet
  facet normal 0.000000e+000 0.000000e+000 1.000000e+000
    outer loop
      vertex   -1.065000e+002 1.150000e+001 1.000000e+000
      vertex   -1.185000e+002 1.150000e+001 1.000000e+000
      vertex   -1.000000e+002 8.000000e+000 1.000000e+000
    endloop
  endfacet
  facet normal -0.000000e+000 -0.000000e+000 1.000000e+000
    outer loop
      vertex   -1.035000e+002 1.150000e+001 1.000000e+000
      vertex   -1.000000e+002 8.000000e+000 1.000000e+000
      vertex   -1.035000e+002 1.450000e+001 1.000000e+000
    endloop
  endfacet
  facet normal 0.000000e+000 0.000000e+000 1.000000e+000
    outer loop
      vertex   -1.035000e+002 1.150000e+001 1.000000e+000
      vertex   -1.065000e+002 1.150000e+001 1.000000e+000
      vertex   -1.000000e+002 8.000000e+000 1.000000e+000
    endloop
  endfacet
  facet normal 0.000000e+000 0.000000e+000 1.000000e+000
    outer loop
      vertex   -1.065000e+002 2.950000e+001 1.000000e+000
      vertex   -1.185000e+002 2.950000e+001 1.000000e+000
      vertex   -1.065000e+002 2.650000e+001 1.000000e+000
    endloop
  endfacet
  facet normal 0.000000e+000 0.000000e+000 1.000000e+000
    outer loop
      vertex   -1.065000e+002 2.650000e+001 1.000000e+000
      vertex   -1.185000e+002 2.950000e+001 1.000000e+000
      vertex   -1.185000e+002 2.650000e+001 1.000000e+000
    endloop
  endfacet
  facet normal 0.000000e+000 0.000000e+000 1.000000e+000
    outer loop
      vertex   -1.065000e+002 1.450000e+001 1.000000e+000
      vertex   -1.065000e+002 2.650000e+001 1.000000e+000
      vertex   -1.185000e+002 2.650000e+001 1.000000e+000
    endloop
  endfacet
  facet normal -0.000000e+000 0.000000e+000 1.000000e+000
    outer loop
      vertex   -1.185000e+002 4.150000e+001 1.000000e+000
      vertex   -1.065000e+002 2.950000e+001 1.000000e+000
      vertex   -1.065000e+002 4.150000e+001 1.000000e+000
    endloop
  endfacet
  facet normal 0.000000e+000 0.000000e+000 1.000000e+000
    outer loop
      vertex   -1.185000e+002 4.450000e+001 1.000000e+000
      vertex   -1.185000e+002 4.150000e+001 1.000000e+000
      vertex   -1.065000e+002 4.150000e+001 1.000000e+000
    endloop
  endfacet
  facet normal 0.000000e+000 0.000000e+000 1.000000e+000
    outer loop
      vertex   -1.035000e+002 2.650000e+001 1.000000e+000
      vertex   -1.065000e+002 2.650000e+001 1.000000e+000
      vertex   -1.035000e+002 1.450000e+001 1.000000e+000
    endloop
  endfacet
  facet normal 0.000000e+000 0.000000e+000 1.000000e+000
    outer loop
      vertex   -1.365000e+002 4.450000e+001 1.000000e+000
      vertex   -1.485000e+002 4.450000e+001 1.000000e+000
      vertex   -1.365000e+002 4.150000e+001 1.000000e+000
    endloop
  endfacet
  facet normal 0.000000e+000 0.000000e+000 1.000000e+000
    outer loop
      vertex   -1.365000e+002 4.450000e+001 1.000000e+000
      vertex   -1.485000e+002 5.650000e+001 1.000000e+000
      vertex   -1.485000e+002 4.450000e+001 1.000000e+000
    endloop
  endfacet
  facet normal 0.000000e+000 -0.000000e+000 1.000000e+000
    outer loop
      vertex   -1.365000e+002 4.450000e+001 1.000000e+000
      vertex   -1.335000e+002 4.450000e+001 1.000000e+000
      vertex   -1.365000e+002 5.650000e+001 1.000000e+000
    endloop
  endfacet
  facet normal 0.000000e+000 -0.000000e+000 1.000000e+000
    outer loop
      vertex   -1.335000e+002 4.150000e+001 1.000000e+000
      vertex   -1.215000e+002 4.150000e+001 1.000000e+000
      vertex   -1.335000e+002 4.450000e+001 1.000000e+000
    endloop
  endfacet
  facet normal -0.000000e+000 0.000000e+000 1.000000e+000
    outer loop
      vertex   -1.335000e+002 4.150000e+001 1.000000e+000
      vertex   -1.215000e+002 2.950000e+001 1.000000e+000
      vertex   -1.215000e+002 4.150000e+001 1.000000e+000
    endloop
  endfacet
  facet normal 0.000000e+000 0.000000e+000 1.000000e+000
    outer loop
      vertex   -1.335000e+002 4.150000e+001 1.000000e+000
      vertex   -1.365000e+002 4.150000e+001 1.000000e+000
      vertex   -1.335000e+002 2.950000e+001 1.000000e+000
    endloop
  endfacet
  facet normal 0.000000e+000 -0.000000e+000 1.000000e+000
    outer loop
      vertex   -1.215000e+002 4.150000e+001 1.000000e+000
      vertex   -1.215000e+002 4.450000e+001 1.000000e+000
      vertex   -1.335000e+002 4.450000e+001 1.000000e+000
    endloop
  endfacet
  facet normal 0.000000e+000 -0.000000e+000 1.000000e+000
    outer loop
      vertex   -1.335000e+002 4.450000e+001 1.000000e+000
      vertex   -1.215000e+002 4.450000e+001 1.000000e+000
      vertex   -1.335000e+002 5.650000e+001 1.000000e+000
    endloop
  endfacet
  facet normal 0.000000e+000 -0.000000e+000 1.000000e+000
    outer loop
      vertex   -1.215000e+002 4.450000e+001 1.000000e+000
      vertex   -1.185000e+002 4.450000e+001 1.000000e+000
      vertex   -1.215000e+002 5.650000e+001 1.000000e+000
    endloop
  endfacet
  facet normal 0.000000e+000 0.000000e+000 1.000000e+000
    outer loop
      vertex   -1.185000e+002 4.150000e+001 1.000000e+000
      vertex   -1.215000e+002 4.150000e+001 1.000000e+000
      vertex   -1.185000e+002 2.950000e+001 1.000000e+000
    endloop
  endfacet
  facet normal 0.000000e+000 -0.000000e+000 1.000000e+000
    outer loop
      vertex   -1.515000e+002 5.650000e+001 1.000000e+000
      vertex   -1.515000e+002 5.950000e+001 1.000000e+000
      vertex   -1.550000e+002 6.300000e+001 1.000000e+000
    endloop
  endfacet
  facet normal -0.000000e+000 0.000000e+000 1.000000e+000
    outer loop
      vertex   -1.550000e+002 6.300000e+001 1.000000e+000
      vertex   -1.515000e+002 5.950000e+001 1.000000e+000
      vertex   -1.485000e+002 5.950000e+001 1.000000e+000
    endloop
  endfacet
  facet normal 0.000000e+000 0.000000e+000 1.000000e+000
    outer loop
      vertex   -1.365000e+002 2.950000e+001 1.000000e+000
      vertex   -1.485000e+002 2.950000e+001 1.000000e+000
      vertex   -1.365000e+002 2.650000e+001 1.000000e+000
    endloop
  endfacet
  facet normal 0.000000e+000 0.000000e+000 1.000000e+000
    outer loop
      vertex   -1.365000e+002 2.650000e+001 1.000000e+000
      vertex   -1.485000e+002 2.950000e+001 1.000000e+000
      vertex   -1.485000e+002 2.650000e+001 1.000000e+000
    endloop
  endfacet
  facet normal 0.000000e+000 0.000000e+000 1.000000e+000
    outer loop
      vertex   -1.365000e+002 1.450000e+001 1.000000e+000
      vertex   -1.365000e+002 2.650000e+001 1.000000e+000
      vertex   -1.485000e+002 2.650000e+001 1.000000e+000
    endloop
  endfacet
  facet normal 0.000000e+000 0.000000e+000 1.000000e+000
    outer loop
      vertex   -1.485000e+002 2.650000e+001 1.000000e+000
      vertex   -1.515000e+002 2.650000e+001 1.000000e+000
      vertex   -1.485000e+002 1.450000e+001 1.000000e+000
    endloop
  endfacet
  facet normal -0.000000e+000 0.000000e+000 1.000000e+000
    outer loop
      vertex   -1.485000e+002 4.150000e+001 1.000000e+000
      vertex   -1.365000e+002 2.950000e+001 1.000000e+000
      vertex   -1.365000e+002 4.150000e+001 1.000000e+000
    endloop
  endfacet
  facet normal 0.000000e+000 0.000000e+000 1.000000e+000
    outer loop
      vertex   -1.485000e+002 4.450000e+001 1.000000e+000
      vertex   -1.485000e+002 4.150000e+001 1.000000e+000
      vertex   -1.365000e+002 4.150000e+001 1.000000e+000
    endloop
  endfacet
  facet normal 0.000000e+000 0.000000e+000 1.000000e+000
    outer loop
      vertex   -1.215000e+002 2.950000e+001 1.000000e+000
      vertex   -1.335000e+002 2.950000e+001 1.000000e+000
      vertex   -1.215000e+002 2.650000e+001 1.000000e+000
    endloop
  endfacet
  facet normal 0.000000e+000 0.000000e+000 1.000000e+000
    outer loop
      vertex   -1.215000e+002 2.650000e+001 1.000000e+000
      vertex   -1.335000e+002 2.950000e+001 1.000000e+000
      vertex   -1.335000e+002 2.650000e+001 1.000000e+000
    endloop
  endfacet
  facet normal 0.000000e+000 -0.000000e+000 1.000000e+000
    outer loop
      vertex   -1.515000e+002 4.150000e+001 1.000000e+000
      vertex   -1.515000e+002 4.450000e+001 1.000000e+000
      vertex   -1.550000e+002 6.300000e+001 1.000000e+000
    endloop
  endfacet
  facet normal 0.000000e+000 -0.000000e+000 1.000000e+000
    outer loop
      vertex   -1.515000e+002 4.450000e+001 1.000000e+000
      vertex   -1.485000e+002 4.450000e+001 1.000000e+000
      vertex   -1.515000e+002 5.650000e+001 1.000000e+000
    endloop
  endfacet
  facet normal -0.000000e+000 -0.000000e+000 1.000000e+000
    outer loop
      vertex   -1.485000e+002 1.150000e+001 1.000000e+000
      vertex   -1.365000e+002 1.150000e+001 1.000000e+000
      vertex   -1.485000e+002 1.450000e+001 1.000000e+000
    endloop
  endfacet
  facet normal -0.000000e+000 0.000000e+000 1.000000e+000
    outer loop
      vertex   -1.485000e+002 1.450000e+001 1.000000e+000
      vertex   -1.365000e+002 1.150000e+001 1.000000e+000
      vertex   -1.365000e+002 1.450000e+001 1.000000e+000
    endloop
  endfacet
  facet normal 0.000000e+000 0.000000e+000 -1.000000e+000
    outer loop
      vertex   -1.000000e+002 8.000000e+000 -2.775558e-016
      vertex   -1.550000e+002 8.000000e+000 -2.775558e-016
      vertex   -1.000000e+002 6.300000e+001 -2.775558e-016
    endloop
  endfacet
  facet normal -0.000000e+000 0.000000e+000 -1.000000e+000
    outer loop
      vertex   -1.000000e+002 6.300000e+001 -2.775558e-016
      vertex   -1.550000e+002 8.000000e+000 -2.775558e-016
      vertex   -1.550000e+002 6.300000e+001 -2.775558e-016
    endloop
  endfacet
  facet normal 0.000000e+000 -1.000000e+000 0.000000e+000
    outer loop
      vertex   -1.550000e+002 8.000000e+000 -2.775558e-016
      vertex   -1.000000e+002 8.000000e+000 -2.775558e-016
      vertex   -1.550000e+002 8.000000e+000 1.000000e+000
    endloop
  endfacet
  facet normal 0.000000e+000 -1.000000e+000 0.000000e+000
    outer loop
      vertex   -1.550000e+002 8.000000e+000 1.000000e+000
      vertex   -1.000000e+002 8.000000e+000 -2.775558e-016
      vertex   -1.000000e+002 8.000000e+000 1.000000e+000
    endloop
  endfacet
  facet normal -1.000000e+000 0.000000e+000 0.000000e+000
    outer loop
      vertex   -1.550000e+002 6.300000e+001 -2.775558e-016
      vertex   -1.550000e+002 8.000000e+000 -2.775558e-016
      vertex   -1.550000e+002 6.300000e+001 1.000000e+000
    endloop
  endfacet
  facet normal -1.000000e+000 -0.000000e+000 0.000000e+000
    outer loop
      vertex   -1.550000e+002 6.300000e+001 1.000000e+000
      vertex   -1.550000e+002 8.000000e+000 -2.775558e-016
      vertex   -1.550000e+002 8.000000e+000 1.000000e+000
    endloop
  endfacet
  facet normal 0.000000e+000 1.000000e+000 -0.000000e+000
    outer loop
      vertex   -1.000000e+002 6.300000e+001 -2.775558e-016
      vertex   -1.550000e+002 6.300000e+001 -2.775558e-016
      vertex   -1.000000e+002 6.300000e+001 1.000000e+000
    endloop
  endfacet
  facet normal 0.000000e+000 1.000000e+000 -0.000000e+000
    outer loop
      vertex   -1.000000e+002 6.300000e+001 1.000000e+000
      vertex   -1.550000e+002 6.300000e+001 -2.775558e-016
      vertex   -1.550000e+002 6.300000e+001 1.000000e+000
    endloop
  endfacet
  facet normal 1.000000e+000 0.000000e+000 -0.000000e+000
    outer loop
      vertex   -1.000000e+002 8.000000e+000 -2.775558e-016
      vertex   -1.000000e+002 6.300000e+001 -2.775558e-016
      vertex   -1.000000e+002 8.000000e+000 1.000000e+000
    endloop
  endfacet
  facet normal 1.000000e+000 -0.000000e+000 0.000000e+000
    outer loop
      vertex   -1.000000e+002 8.000000e+000 1.000000e+000
      vertex   -1.000000e+002 6.300000e+001 -2.775558e-016
      vertex   -1.000000e+002 6.300000e+001 1.000000e+000
    endloop
  endfacet
endsolid
